<svg xmlns="http://www.w3.org/2000/svg" width="88" height="68" viewBox="0 0 88 68">
  <g id="amazon" transform="translate(-6174 -19225)">
    <rect id="Rectangle_17685" data-name="Rectangle 17685" width="88" height="68" rx="5" transform="translate(6174 19225)" fill="#fff" opacity="0"/>
    <g id="Layer_2" data-name="Layer 2" transform="translate(6181.878 19253)">
      <g id="Layer_1" data-name="Layer 1">
        <path id="Path_3636" data-name="Path 3636" d="M654.808,0c.366.09.747.113,1.11.223a5.367,5.367,0,0,1,.9.347,3.094,3.094,0,0,1,1.733,2.756c.024.382.033.768.033,1.15,0,1.256.018,2.513-.007,3.769a3.1,3.1,0,0,0,.673,2.049c.428.549.41.609-.111,1.061L657.8,12.523a.5.5,0,0,1-.773,0,4.768,4.768,0,0,1-.993-1.162c-.1-.166-.159-.2-.316-.041a4.438,4.438,0,0,1-2.027,1.29,5.07,5.07,0,0,1-2.367.075,2.829,2.829,0,0,1-2.258-2.034,4.077,4.077,0,0,1,.606-3.827,4.215,4.215,0,0,1,2.351-1.454,17.176,17.176,0,0,1,2.89-.448c.529-.051.531-.039.531-.559a4.786,4.786,0,0,0-.041-.787,1.293,1.293,0,0,0-1.07-1.155,1.783,1.783,0,0,0-2.165,1.118c-.023.071-.038.145-.06.217-.09.285-.217.38-.513.35-.658-.066-1.316-.135-1.973-.215-.322-.039-.437-.214-.372-.536A3.9,3.9,0,0,1,652.213.268a6.924,6.924,0,0,1,1.128-.223c.041,0,.094.011.113-.045Zm.632,7.45c0-.21-.008-.421,0-.632.007-.135-.042-.163-.166-.158a8.313,8.313,0,0,0-1.232.117,2.08,2.08,0,0,0-1.9,2.5,1.354,1.354,0,0,0,2.032,1.09,2.2,2.2,0,0,0,1.038-1.252A4.414,4.414,0,0,0,655.44,7.45Z" transform="translate(-619.545)" fill="#010101"/>
        <path id="Path_3637" data-name="Path 3637" d="M6.005,0c.3.06.593.111.886.181A3.82,3.82,0,0,1,8.943,1.323,3.194,3.194,0,0,1,9.7,3.466q.039,2.38.016,4.762A3.18,3.18,0,0,0,10.4,10.3c.425.545.406.611-.116,1.06q-.666.576-1.33,1.154a.514.514,0,0,1-.808-.005,4.886,4.886,0,0,1-.987-1.166c-.09-.149-.147-.173-.284-.034a4.421,4.421,0,0,1-1.894,1.259,4.64,4.64,0,0,1-3.1-.059,2.926,2.926,0,0,1-1.8-2.264c-.023-.1-.006-.222-.09-.31V8.759c.056-.023.039-.074.045-.116A3.708,3.708,0,0,1,1.118,6.485,5.2,5.2,0,0,1,3.962,5.192c.813-.149,1.639-.22,2.46-.309.09-.01.175,0,.169-.141a8.953,8.953,0,0,0-.045-1.149,1.326,1.326,0,0,0-.523-.935,1.909,1.909,0,0,0-2.491.424,2.128,2.128,0,0,0-.284.681c-.056.2-.168.373-.406.35q-1.066-.1-2.13-.229a.378.378,0,0,1-.337-.471A3.992,3.992,0,0,1,1,1.881,4.416,4.416,0,0,1,3.915.135,3.065,3.065,0,0,0,4.605,0Zm.587,7.416c0-.2-.008-.406,0-.609.007-.126-.045-.15-.155-.147a7.724,7.724,0,0,0-1.254.117A2.081,2.081,0,0,0,3.3,9.306,1.341,1.341,0,0,0,5.27,10.39,2.143,2.143,0,0,0,6.324,9.21,4.529,4.529,0,0,0,6.592,7.416Z" fill="#010101"/>
        <path id="Path_3638" data-name="Path 3638" d="M1405.831,14.535a.68.68,0,0,1-.62.267c-.639-.013-1.279,0-1.918,0-.384,0-.531-.149-.531-.531v-7a4.576,4.576,0,0,0-.165-1.247,1.275,1.275,0,0,0-2.161-.529,2.728,2.728,0,0,0-.653,1.55,7.821,7.821,0,0,0-.065,1.283V14.2c0,.468-.135.6-.606.6h-1.9c-.427,0-.562-.138-.562-.57q0-5.585,0-11.171c0-.406.135-.536.542-.537h1.873c.346,0,.488.148.489.5V4.634c.156-.311.28-.562.406-.813a3.135,3.135,0,0,1,5.272-.226,4.72,4.72,0,0,1,.553,1.977c.007.068-.036.152.048.2Z" transform="translate(-1333.59 -2.164)" fill="#010101"/>
        <path id="Path_3639" data-name="Path 3639" d="M242.321,315.8a2.022,2.022,0,0,0-.636-.08A28.031,28.031,0,0,1,228,310.8a27.549,27.549,0,0,1-2.739-2.171.953.953,0,0,1-.173-.2.3.3,0,0,1,0-.341.328.328,0,0,1,.335-.14.819.819,0,0,1,.309.13,37.074,37.074,0,0,0,10.049,3.948,38.768,38.768,0,0,0,6.234.942,35.85,35.85,0,0,0,5.367-.02,37.89,37.89,0,0,0,10.577-2.4c.372-.143.739-.3,1.108-.445a.755.755,0,0,1,.527-.045.518.518,0,0,1,.265.858,1.387,1.387,0,0,1-.29.248,23.285,23.285,0,0,1-6.178,3.106,29.863,29.863,0,0,1-6.213,1.386c-.388.045-.779.068-1.168.1-.042,0-.093-.011-.117.042Z" transform="translate(-214.869 -294.04)" fill="#fe9901"/>
        <path id="Path_3640" data-name="Path 3640" d="M275.819,4.613a3.068,3.068,0,0,1,5.823-.031c.09-.041.088-.132.121-.2a3.3,3.3,0,0,1,5.652-.5,3.253,3.253,0,0,1,.482,1.828c.017,1.046,0,2.092,0,3.138v5.621c0,.411-.145.558-.555.559H285.4c-.43,0-.571-.14-.571-.564q0-3.612,0-7.224a5.13,5.13,0,0,0-.036-.677,1.3,1.3,0,0,0-2.063-.971,1.629,1.629,0,0,0-.75,1.249,9.069,9.069,0,0,0-.079,1.283V14.44c0,.448-.13.581-.573.582h-1.919c-.428,0-.573-.142-.573-.565q0-3.4.005-6.8a4.637,4.637,0,0,0-.15-1.385,1.165,1.165,0,0,0-1.024-.912,1.31,1.31,0,0,0-1.425.677,3.105,3.105,0,0,0-.31,1.441c-.013,1.829-.011,3.657-.015,5.486,0,.519,0,1.038,0,1.558a.438.438,0,0,1-.487.492q-1.05.008-2.1,0c-.324,0-.478-.164-.478-.492V3.239c0-.348.145-.5.49-.5q.971,0,1.941,0c.331,0,.48.15.483.483,0,.384,0,.768,0,1.151C275.776,4.448,275.747,4.525,275.819,4.613Z" transform="translate(-260.54 -2.388)" fill="#010101"/>
        <path id="Path_3641" data-name="Path 3641" d="M1144.764,8.91a7.19,7.19,0,0,1-1.344,4.38,4.7,4.7,0,0,1-6.722.85,5.441,5.441,0,0,1-1.771-2.968,8.831,8.831,0,0,1,.422-5.951,4.428,4.428,0,0,1,3.013-2.637,4.706,4.706,0,0,1,5.7,2.748A8.726,8.726,0,0,1,1144.764,8.91Zm-3.327-.037c0-.368.017-.738,0-1.105a6.928,6.928,0,0,0-.361-2.057,1.352,1.352,0,0,0-1.292-.951,1.392,1.392,0,0,0-1.366.741,3.474,3.474,0,0,0-.4,1.3,16.1,16.1,0,0,0-.037,3.333,4.593,4.593,0,0,0,.474,1.887,1.379,1.379,0,0,0,2.455.074,2.726,2.726,0,0,0,.311-.722A8.376,8.376,0,0,0,1141.437,8.872Z" transform="translate(-1083.377 -2.302)" fill="#010101"/>
        <path id="Path_3642" data-name="Path 3642" d="M919.871,15.413a8.772,8.772,0,0,1,3.194.446,6.913,6.913,0,0,1,.945.419.77.77,0,0,1,.438.731c0,.542,0,1.084,0,1.625,0,.4-.274.562-.629.394a8.377,8.377,0,0,0-7.559,0c-.364.175-.627.025-.632-.381-.006-.6,0-1.2,0-1.806a1.827,1.827,0,0,1,.359-1.07q2.081-2.974,4.154-5.954c.045-.066.09-.135.158-.234h-3.719c-.406,0-.536-.135-.536-.542V7.6c0-.338.145-.486.478-.486h7.224c.331,0,.477.152.479.486,0,.354-.018.708.006,1.061a1.387,1.387,0,0,1-.288.925q-.893,1.274-1.783,2.549L920,15.215C919.965,15.268,919.931,15.322,919.871,15.413Z" transform="translate(-874.284 -6.789)" fill="#010101"/>
        <path id="Path_3643" data-name="Path 3643" d="M918.129,292.56c-.872.032-1.739.128-2.606.226-.16.018-.341.055-.406-.135s.077-.31.214-.406a5.938,5.938,0,0,1,2.156-.936,8.645,8.645,0,0,1,4-.025,1.516,1.516,0,0,1,.151.045c.518.167.655.316.639.862a8.119,8.119,0,0,1-2.263,5.585,1.555,1.555,0,0,1-.382.316c-.116.061-.243.107-.357,0s-.075-.218-.03-.335c.278-.713.563-1.424.8-2.154a7.43,7.43,0,0,0,.439-2c.021-.6-.138-.81-.733-.941A6.6,6.6,0,0,0,918.129,292.56Z" transform="translate(-873.783 -277.919)" fill="#fe9902"/>
      </g>
    </g>
  </g>
</svg>
