<svg xmlns="http://www.w3.org/2000/svg" width="88" height="68" viewBox="0 0 88 68">
  <g id="bikayi" transform="translate(-6826 -19391)">
    <rect id="Rectangle_17686" data-name="Rectangle 17686" width="88" height="68" rx="5" transform="translate(6826 19391)" fill="#fff" opacity="0"/>
    <g id="Layer_2" data-name="Layer 2" transform="translate(6834 19413)">
      <g id="Layer_1" data-name="Layer 1" transform="translate(0)">
        <path id="Path_3644" data-name="Path 3644" d="M160.523,33.2v4.532c0,.308-.076.389-.379.376-.677-.025-1.354-.013-2.021,0-.182,0-.253-.025-.253-.253V26.673c0-.189.04-.253.253-.253q1.076.018,2.152,0c.217,0,.27.071.268.278V31.17l1.4-1.67c.793-.942,1.589-1.885,2.372-2.834a.619.619,0,0,1,.541-.253c.849.013,1.7,0,2.546,0a.475.475,0,0,1,.308.043,3.878,3.878,0,0,1-.505.629q-1.981,2.327-3.944,4.628c-.154.179-.189.283,0,.485q2.216,2.468,4.393,4.967c.187.215.235.179.333-.061q2.089-5.207,4.189-10.408a.356.356,0,0,1,.394-.275c.647.018,1.293.013,1.94,0a.321.321,0,0,1,.359.23q2.248,5.6,4.5,11.189c.086.212.061.27-.179.268-.788-.013-1.576,0-2.365,0a.283.283,0,0,1-.321-.227c-.222-.627-.465-1.245-.687-1.874a.291.291,0,0,0-.321-.237h-3.971a.27.27,0,0,0-.3.217c-.222.627-.472,1.245-.687,1.874a.318.318,0,0,1-.369.253h-5.09a.6.6,0,0,1-.505-.253q-1.874-2.2-3.8-4.388C160.715,33.4,160.644,33.33,160.523,33.2Zm13.015-3.173-1.3,3.39h2.589Z" transform="translate(-117.977 -19.734)" fill="#751fce"/>
        <path id="Path_3645" data-name="Path 3645" d="M24.978,12.543a12.511,12.511,0,1,1-25.01-.584A12.626,12.626,0,0,1,12.493,0,12.47,12.47,0,0,1,24.978,12.543Zm-1.435.1a4.561,4.561,0,1,0,.01,0Z" transform="translate(0.043 0)" fill="#7a33dc"/>
        <path id="Path_3646" data-name="Path 3646" d="M110.373,31.94c.184.051.331.088.475.134a2.541,2.541,0,0,1,1.945,2.418,3.168,3.168,0,0,1-2.951,3.6,7.281,7.281,0,0,1-.935.056h-4.09c-.172,0-.268,0-.268-.232V26.7c0-.154.015-.253.207-.237,1.382.025,2.779-.053,4.148.045a3.451,3.451,0,0,1,2.054.791,3.046,3.046,0,0,1-.389,4.514Zm-3.16,2.779V35.87c0,.093-.035.217.131.212a6.5,6.5,0,0,0,1.685-.109A1.163,1.163,0,0,0,110,34.789a1.263,1.263,0,0,0-.975-1.324,6.274,6.274,0,0,0-1.655-.119c-.149,0-.157.081-.157.192,0,.381,0,.783,0,1.177Zm0-4.939v1.089c0,.116.015.189.162.187a3.145,3.145,0,0,0,1.124-.182,1.122,1.122,0,0,0,.685-1.167,1.011,1.011,0,0,0-.73-1.031,3.2,3.2,0,0,0-1.011-.141c-.2,0-.237.071-.232.253.01.333,0,.657,0,.988Z" transform="translate(-78.127 -19.773)" fill="#741ecd"/>
        <path id="Path_3647" data-name="Path 3647" d="M234.39,26.49h3.054c.167,0,.225.1.3.212l2.021,3.12c.076.116.154.23.253.379l.869-1.309,1.435-2.208c.061-.091.106-.195.253-.195h3.039a.619.619,0,0,1-.164.333q-1.965,2.948-3.938,5.891a.854.854,0,0,0-.154.505v4.666c0,.225-.056.291-.283.285q-1.061-.023-2.122,0c-.217,0-.253-.063-.253-.27V33.326a1.122,1.122,0,0,0-.2-.672q-1.97-2.925-3.923-5.861C234.524,26.707,234.473,26.619,234.39,26.49Z" transform="translate(-175.166 -19.798)" fill="#751fce"/>
        <path id="Path_3648" data-name="Path 3648" d="M143.9,32.345V37.9c0,.253-.076.316-.321.311q-1.01-.025-2,0c-.253,0-.354-.051-.351-.339V26.783c0-.2.056-.253.253-.253h2.152c.225,0,.253.083.253.283C143.9,28.647,143.9,30.5,143.9,32.345Z" transform="translate(-105.541 -19.828)" fill="#751fce"/>
        <path id="Path_3649" data-name="Path 3649" d="M280,32.279V26.762c0-.235.056-.311.3-.3.7.018,1.394,0,2.092,0,.2,0,.28.043.28.265V37.877c0,.217-.066.268-.273.253-.707,0-1.415-.018-2.122,0-.253,0-.275-.081-.273-.293C280,36,280,34.138,280,32.279Z" transform="translate(-209.254 -19.774)" fill="#751fce"/>
        <path id="Path_3650" data-name="Path 3650" d="M28.2,17.43A11.012,11.012,0,1,1,17.222,6.4,11.012,11.012,0,0,1,28.2,17.43Zm-6.626-5c-.217-.316-.4-.568-.561-.821-.116-.2-.192-.215-.376-.056q-3.769,3.254-7.551,6.5A9.885,9.885,0,0,0,10.9,20.428a3.517,3.517,0,0,0,.283,4.128,6.29,6.29,0,0,0,1.42,1.311,7.862,7.862,0,0,0,6.924.985,9.636,9.636,0,0,0,7.086-10.8,9.772,9.772,0,0,0-9.016-8.1A9.563,9.563,0,0,0,8.643,12.9a5.174,5.174,0,0,0-.836,3.378,1.888,1.888,0,0,0,2.723,1.64,3.585,3.585,0,0,0,1.107-.675c.758-.687,1.541-1.369,2.312-2.051q2.88-2.546,5.765-5.106c.187-.164.2-.28.058-.47s-.253-.424-.432-.7l1.92.462c.7.169.71.169.614.894S21.684,11.657,21.578,12.425Z" transform="translate(-4.608 -4.783)" fill="#fcfbfd"/>
        <path id="Path_3651" data-name="Path 3651" d="M26.314,16.967c.106-.758.207-1.455.3-2.145S26.7,14.1,26,13.928l-1.92-.462c.169.28.285.505.432.7s.129.306-.058.47q-2.893,2.541-5.767,5.1c-.771.685-1.544,1.364-2.312,2.051a3.585,3.585,0,0,1-1.107.669,1.893,1.893,0,0,1-2.723-1.645,5.174,5.174,0,0,1,.836-3.378,9.568,9.568,0,0,1,8.958-4.954,9.757,9.757,0,0,1,9.011,8.1,9.642,9.642,0,0,1-7.089,10.8,7.87,7.87,0,0,1-6.924-.985A6.29,6.29,0,0,1,15.923,29.1a3.517,3.517,0,0,1-.275-4.128,9.932,9.932,0,0,1,2.185-2.377q3.767-3.256,7.543-6.513c.184-.159.253-.141.376.056C25.91,16.4,26.1,16.651,26.314,16.967ZM23.08,18.483c.227.038.4.056.561.1a1.077,1.077,0,0,1,.872,1.185.986.986,0,0,1-.917,1.026,3.2,3.2,0,0,1-.48.058c-.637.033-1.263.04-1.907.018-.227,0-.505.068-.45-.366-.715.6-1.374,1.16-2.056,1.708a.387.387,0,0,0-.111.354v4.454c0,.253.071.3.3.3h4.727a4.57,4.57,0,0,0,.7-.053,2.781,2.781,0,0,0,2.506-2.314,2.467,2.467,0,0,0-1.074-2.779c-.167-.106-.344-.2-.541-.313a2.4,2.4,0,0,0,.955-.675,2.841,2.841,0,0,0-1.011-4.254.2.2,0,0,0-.253.023c-.586.508-1.187,1.011-1.826,1.546Zm-4.5.879,3.284-2.8C20.8,16.5,19.766,16.5,18.73,16.5c-.1,0-.149.043-.149.144C18.576,17.525,18.576,18.419,18.576,19.362Z" transform="translate(-9.344 -9.325)" fill="#741ecd"/>
        <path id="Path_3652" data-name="Path 3652" d="M41.09,31.568c.639-.536,1.243-1.038,1.844-1.544A.2.2,0,0,1,43.187,30,2.855,2.855,0,0,1,44.2,34.256a2.4,2.4,0,0,1-.955.675c.2.114.376.2.541.313a2.5,2.5,0,0,1,1.074,2.779,2.807,2.807,0,0,1-2.506,2.314,4.57,4.57,0,0,1-.692.056H36.932c-.235,0-.306-.056-.3-.3V35.64a.387.387,0,0,1,.083-.359c.669-.553,1.329-1.114,2.036-1.71-.04.447.237.361.462.371.637.023,1.263.015,1.907-.018a3.2,3.2,0,0,0,.48-.058.988.988,0,0,0,.917-1.026,1.05,1.05,0,0,0-.867-1.175A5.639,5.639,0,0,0,41.09,31.568Zm-.841,4.375h-1.24c-.182,0-.273.028-.268.253.015.664,0,1.331,0,2,0,.174.056.222.225.222h2.45a1.194,1.194,0,0,0,1.263-1.195,1.164,1.164,0,0,0-1.213-1.263C41.065,35.926,40.661,35.943,40.249,35.943Z" transform="translate(-27.354 -22.397)" fill="#fdfcfd"/>
        <path id="Path_3653" data-name="Path 3653" d="M36.5,31.255V28.534c0-.1.048-.144.149-.144,1.038,0,2.074,0,3.13.068Z" transform="translate(-27.268 -21.218)" fill="#f9f6fc"/>
        <path id="Path_3654" data-name="Path 3654" d="M46.516,53.583c.4,0,.808-.018,1.21,0a1.149,1.149,0,0,1,1.213,1.263,1.18,1.18,0,0,1-1.263,1.195c-.816.015-1.634,0-2.45,0-.169,0-.227-.048-.225-.222,0-.664.013-1.331,0-2,0-.217.086-.253.268-.253h1.24Z" transform="translate(-33.621 -40.037)" fill="#7520cd"/>
      </g>
    </g>
  </g>
</svg>
