<svg xmlns="http://www.w3.org/2000/svg" width="88" height="68" viewBox="0 0 88 68">
  <g id="browntape" transform="translate(-6343 -19391)">
    <rect id="Rectangle_17687" data-name="Rectangle 17687" width="88" height="68" rx="5" transform="translate(6343 19391)" fill="#fff" opacity="0"/>
    <g id="Layer_2" data-name="Layer 2" transform="translate(6368 19396)">
      <g id="Layer_1" data-name="Layer 1" transform="translate(0 0)">
        <path id="Path_3655" data-name="Path 3655" d="M30.328,62.35l.157,2.272c1.741-.753,3.238-.662,4.414.788.37.457.718.675,1.28.344a2.215,2.215,0,0,1,.8-.3c.723-.1,1.793-.266,2.037.34,1.106,2.72,5.019.527,5.9,3.521a7.3,7.3,0,0,1-.3,4.679,7.339,7.339,0,0,0-.2,4.039,17.141,17.141,0,0,1-.958,9.176,7.661,7.661,0,0,1-6.616,5.223,37.072,37.072,0,0,1-7.809.157,5.94,5.94,0,0,1-5.371-3.756,31.442,31.442,0,0,1-2.707-17.355c.383-2.868.81-5.733,1.214-8.6l1.741.035c-.361,3.569-1.349,7.073-1.367,10.516,5.572-.979,7.065-4.492,6.181-9.489a10.507,10.507,0,0,1-.065-1.5ZM42.781,78.808c-.435.479-.618.679-.8.871-2.3,2.707-2.529,2.734-5.833,1.162-.718-.344-1.28-.2-1.11.871a17.886,17.886,0,0,1,.231,2.8c0,.544-.03,1.306-.818,1.306s-.77-.723-.727-1.306a4.753,4.753,0,0,0-.4-2.546c-.614-1.21-1-2.842-2.882-2.577-.531.074-.984.3-1.306-.235s.083-.962.348-1.38c1.345-2.085,3.443-3.225,5.528-4.414.688-.392,2.05-.435,1.741-1.506s-1.571-.792-2.468-.736c-3.961.235-7.326,2.033-10.616,4.065a2.42,2.42,0,0,0-1.249,2.681,38.979,38.979,0,0,0,1.4,6.786c1.676,5.685,2.7,6.455,8.571,6.433,1.223,0,2.446-.2,3.674-.274,3.482-.2,5.345-2.268,6.242-5.4A15.235,15.235,0,0,0,42.781,78.808Zm.67-7.33c-.087-1.005.174-2.146-.949-2.32-.918-.139-1.2.905-1.5,1.615a11.026,11.026,0,0,0-.575,2.085A17.555,17.555,0,0,1,38.354,78.3c-.344.583-1.11,1.306-.318,1.889s1.489-.17,2.015-.788A15.742,15.742,0,0,0,43.451,71.478Zm-4.836,1.9-2.564,1.358a15,15,0,0,0-1.519.827,2.761,2.761,0,0,0-1.071,2.464,1.045,1.045,0,0,0,.905,1.071,2.478,2.478,0,0,0,2.176-1.206A11.777,11.777,0,0,0,38.615,73.376Zm-8.3-4.814c.144.575-.2,1.554.9,1.258s2.868.3,2.873-1.7c0-.975-.231-2.176-1.545-2.176C30.911,65.941,30.545,67.256,30.315,68.561Zm8.658,2.969a6.79,6.79,0,0,0,0-3.452,1.306,1.306,0,0,0-1.5-.945,2.261,2.261,0,0,0-1.65,1.55c-.387.905.553.871.975,1.019A6.064,6.064,0,0,1,38.972,71.53Z" transform="translate(-11.677 -35.208)" fill="#ee4c4d"/>
        <path id="Path_3656" data-name="Path 3656" d="M16.9,31.923l-1.741-.035c-2.39-.083-3.517-1.332-3.978-3.687A110.143,110.143,0,0,0,8.55,17.489c-.6-2.024.183-3.178,1.741-4.131,4.4-2.655,9.293-3.918,14.247-4.988a34.387,34.387,0,0,1,8.623-.892c2.081.083,3.482.644,3.944,3.077.723,3.822,1.741,7.6,2.834,11.317.6,2.037-.231,3.147-1.793,4.092-3.83,2.324-8.074,3.5-12.349,4.592a5.651,5.651,0,0,0-2.429.8l-1.663.087Zm-.109-16.105a17.416,17.416,0,0,0,4.479-.923A25.425,25.425,0,0,0,34.662,9.724c-5.437-.927-10.551.435-15.67,1.85-3.1.966-6.181,1.972-8.649,4.235a11.6,11.6,0,0,0,6.46.009Zm.274,14.3a16.135,16.135,0,0,0,4.3-.457A48.172,48.172,0,0,0,36.982,24.7a2.041,2.041,0,0,0,1.21-2.764c-.871-2.895-1.563-5.859-2.211-8.819-.283-1.306-.7-1.227-1.741-.7a47.8,47.8,0,0,1-21.829,5.506c-1.741,0-1.867.588-1.449,2.02.662,2.285,1.162,4.623,1.741,6.93.84,3.269.844,3.265,4.379,3.243Z" transform="translate(-4.716 -4.216)" fill="#ad8e6d"/>
        <path id="Path_3657" data-name="Path 3657" d="M76.036,1.347c-.139,1.445.409,2.533-.435,3.33a1.058,1.058,0,0,1-.74.283c-.357-.035-.435-.383-.274-.657,1.093-1.854-.292-1.833-1.476-2-.435-.057-.975-.118-.892-.675s.644-.435,1.058-.5C74.1.946,75.7,2.609,75.636.141c0-.3.622-.061.927.091a3.677,3.677,0,0,1,.679,5.889c-.309.257-.675.718-1.1.357s-.083-.77.235-1.084C77.612,4.176,77.7,2.974,76.036,1.347Z" transform="translate(-40.779 0.005)" fill="#ad8e6d"/>
        <path id="Path_3658" data-name="Path 3658" d="M5.189,65.306c-1.389-.257-2.734-.078-3.9-.753C.366,64.013-.33,63.3.166,62.111c.17-.4.818-.792.892-.218.357,2.729,2.481,1.989,4.1,2.268.518.091,1.423-.261,1.436.483C6.608,65.6,5.594,65.066,5.189,65.306Z" transform="translate(-0.001 -34.786)" fill="#ad8e6d"/>
        <path id="Path_3659" data-name="Path 3659" d="M9.458,59.076c-1.85.518-3.13.64-4.322-.257a1.371,1.371,0,0,1-.366-1.767c.435-.91,1.084-1.663,2.255-1.471C7.5,56.8,4.778,56.8,6.154,58.1,6.833,58.75,8.117,58.084,9.458,59.076Z" transform="translate(-2.594 -31.369)" fill="#aa8c6a"/>
        <path id="Path_3660" data-name="Path 3660" d="M45,90.1a15.235,15.235,0,0,1-.479,6.6c-.9,3.13-2.768,5.223-6.242,5.4-1.227.07-2.451.27-3.674.274-5.868.026-6.895-.744-8.571-6.433a38.979,38.979,0,0,1-1.4-6.782,2.423,2.423,0,0,1,1.249-2.681c3.291-2.033,6.655-3.83,10.616-4.066.9-.052,2.176-.326,2.485.736s-1.071,1.119-1.741,1.506c-2.1,1.188-4.2,2.329-5.545,4.44-.27.435-.675.844-.348,1.38s.779.3,1.306.235c1.88-.261,2.268,1.367,2.882,2.577a4.753,4.753,0,0,1,.4,2.546c-.048.566-.118,1.306.727,1.306s.818-.762.818-1.306a17.886,17.886,0,0,0-.231-2.8c-.17-1.058.392-1.2,1.11-.871,3.3,1.571,3.534,1.545,5.833-1.162C44.368,90.775,44.573,90.575,45,90.1Z" transform="translate(-13.899 -46.496)" fill="#fefafa"/>
        <path id="Path_3661" data-name="Path 3661" d="M26.238,63.034l4.788-.474a10.547,10.547,0,0,0,.065,1.5c.871,4.984-.609,8.5-6.211,9.485C24.9,70.108,25.885,66.6,26.238,63.034Z" transform="translate(-14.051 -35.327)" fill="#fefafa"/>
        <path id="Path_3662" data-name="Path 3662" d="M65.512,80.291A16.016,16.016,0,0,1,62.1,88.208c-.522.618-1.241,1.336-2.015.788s-.026-1.306.318-1.889a17.555,17.555,0,0,0,2.094-5.441,11.025,11.025,0,0,1,.575-2.085c.3-.705.583-1.741,1.5-1.615C65.7,78.145,65.443,79.281,65.512,80.291Z" transform="translate(-33.738 -44.021)" fill="#fdf5f5"/>
        <path id="Path_3663" data-name="Path 3663" d="M55.2,87.68a11.526,11.526,0,0,1-2.072,4.492,2.489,2.489,0,0,1-2.176,1.206,1.045,1.045,0,0,1-.905-1.071,2.771,2.771,0,0,1,1.071-2.464,15,15,0,0,1,1.519-.805Z" transform="translate(-28.264 -49.513)" fill="#fdf5f5"/>
        <path id="Path_3664" data-name="Path 3664" d="M42.82,73.232c.231-1.306.6-2.612,2.224-2.612,1.306,0,1.545,1.21,1.545,2.176,0,2-1.785,1.406-2.873,1.7S42.964,73.806,42.82,73.232Z" transform="translate(-24.182 -39.878)" fill="#fdf5f5"/>
        <path id="Path_3665" data-name="Path 3665" d="M58.5,77.707a6.02,6.02,0,0,0-2.176-1.828c-.435-.148-1.362-.113-.975-1.019A2.254,2.254,0,0,1,57,73.311a1.306,1.306,0,0,1,1.5.945A6.791,6.791,0,0,1,58.5,77.707Z" transform="translate(-31.206 -41.385)" fill="#fdf5f5"/>
        <path id="Path_3666" data-name="Path 3666" d="M20.23,36.084c-3.53.026-3.539.026-4.353-3.243-.588-2.307-1.088-4.644-1.741-6.93-.435-1.432-.309-2.011,1.449-2.02A47.8,47.8,0,0,0,37.41,18.385c1.032-.531,1.449-.6,1.741.7.644,2.96,1.306,5.924,2.211,8.819a2.045,2.045,0,0,1-1.21,2.764,48.205,48.205,0,0,1-15.613,4.962A16.755,16.755,0,0,1,20.23,36.084Z" transform="translate(-7.864 -10.178)" fill="#fdfdfc"/>
        <path id="Path_3667" data-name="Path 3667" d="M32.85,14.1c5.106-1.428,10.22-2.773,15.67-1.85a25.461,25.461,0,0,1-13.389,5.171,3.714,3.714,0,0,0-2.272-2.694Z" transform="translate(-18.552 -6.742)" fill="#fcfaf9"/>
        <path id="Path_3668" data-name="Path 3668" d="M21.635,16.89v.627c-2.115.366-2.224,1.954-2.207,3.622a11.6,11.6,0,0,1-6.438,0C15.458,18.862,18.535,17.856,21.635,16.89Z" transform="translate(-7.336 -9.536)" fill="#fdf5f5"/>
        <path id="Path_3669" data-name="Path 3669" d="M27.77,21.952c0-1.667.091-3.256,2.207-3.622a3.7,3.7,0,0,1,2.272,2.694C30.834,21.7,29.272,21.669,27.77,21.952Z" transform="translate(-15.683 -10.349)" fill="#ee4c4d"/>
      </g>
    </g>
  </g>
</svg>
