<svg xmlns="http://www.w3.org/2000/svg" width="88" height="68" viewBox="0 0 88 68">
  <g id="clickpost" transform="translate(-6180 -19391)">
    <rect id="Rectangle_17688" data-name="Rectangle 17688" width="88" height="68" rx="5" transform="translate(6180 19391)" fill="#fff" opacity="0"/>
    <g id="Layer_2" data-name="Layer 2" transform="translate(6186 19420)">
      <g id="Layer_1" data-name="Layer 1" transform="translate(0 0)">
        <path id="Path_3670" data-name="Path 3670" d="M708.92,5.257a6.658,6.658,0,0,1,.564-2.735A4.284,4.284,0,0,1,713.315.048a6.7,6.7,0,0,1,2.514.21,4.141,4.141,0,0,1,2.93,3.12,8.208,8.208,0,0,1-.041,4.329,4.348,4.348,0,0,1-4,3.177,6.384,6.384,0,0,1-2.937-.334,4.359,4.359,0,0,1-2.71-3.453A10.254,10.254,0,0,1,708.92,5.257Zm2.4-.036a6.633,6.633,0,0,0,.221,1.967,2.53,2.53,0,0,0,4.7.392,5.794,5.794,0,0,0,0-4.25,2.149,2.149,0,0,0-2.054-1.4A2.339,2.339,0,0,0,711.8,3.138a4.715,4.715,0,0,0-.475,2.083Z" transform="translate(-660.208 -0.017)" fill="#495776"/>
        <path id="Path_3671" data-name="Path 3671" d="M580.636,7.463c0-1.649.006-3.3-.006-4.947,0-.268.069-.354.344-.349,1.224.023,2.449.012,3.674.038a4.18,4.18,0,0,1,1.657.386,2.921,2.921,0,0,1,1.679,3.037,3.074,3.074,0,0,1-1.591,2.848,4.543,4.543,0,0,1-2.142.53c-.355.006-.71.014-1.064,0-.216-.01-.269.069-.268.275.009,1.065,0,2.13.01,3.194,0,.236-.052.314-.3.306-.561-.019-1.123-.023-1.683,0-.275.012-.315-.1-.314-.335C580.64,10.784,580.636,9.124,580.636,7.463ZM582.923,5.6V6.9c0,.144.015.24.2.234a8.3,8.3,0,0,0,1.3-.069,1.446,1.446,0,0,0,1.244-1.558A1.3,1.3,0,0,0,584.377,4.1c-.4-.06-.8-.03-1.2-.055-.228-.014-.264.081-.258.275C582.93,4.749,582.923,5.173,582.923,5.6Z" transform="translate(-540.732 -2.02)" fill="#485675"/>
        <path id="Path_3672" data-name="Path 3672" d="M877.277,9.343c0-.263.011-.527,0-.789-.013-.245.045-.3.286-.192a8.5,8.5,0,0,0,2.211.71,2.844,2.844,0,0,0,1.554-.087.967.967,0,0,0,.353-1.6,3.469,3.469,0,0,0-.991-.667A16.14,16.14,0,0,1,878.7,5.64a3.049,3.049,0,0,1-.754-4.228,3.249,3.249,0,0,1,2.566-1.25A7.233,7.233,0,0,1,883.948.8c.173.074.225.142.143.327q-.293.657-.55,1.33c-.076.2-.165.223-.359.142a6.414,6.414,0,0,0-2.045-.53,1.831,1.831,0,0,0-.842.109.974.974,0,0,0-.271,1.677,5.1,5.1,0,0,0,1.152.673,13.511,13.511,0,0,1,1.855,1.04,2.844,2.844,0,0,1,1.156,2.865,2.667,2.667,0,0,1-1.761,2.229,6.364,6.364,0,0,1-3.841.185,5.7,5.7,0,0,1-1.073-.348.322.322,0,0,1-.233-.36C877.287,9.87,877.277,9.606,877.277,9.343Z" transform="translate(-816.995 -0.133)" fill="#4a5776"/>
        <path id="Path_3673" data-name="Path 3673" d="M995.451,8.483c0,1.34-.006,2.68.005,4.019,0,.254-.065.335-.326.325-.55-.021-1.1-.023-1.649,0-.279.012-.344-.079-.34-.344.01-2.645,0-5.291.015-7.935,0-.344-.1-.412-.416-.4-.709.025-1.419,0-2.13.012-.228,0-.33-.046-.319-.3.019-.458.011-.916,0-1.374,0-.181.036-.267.244-.267q3.762.009,7.523,0c.191,0,.264.06.26.256-.01.469-.012.939,0,1.409.005.211-.069.275-.275.275-.721-.01-1.443.013-2.164-.012-.33-.011-.446.055-.438.42C995.468,5.872,995.451,7.178,995.451,8.483Z" transform="translate(-922.245 -2.069)" fill="#495775"/>
        <path id="Path_3674" data-name="Path 3674" d="M452.213,7.227c1.019-1.116,1.967-2.154,2.916-3.191.55-.6,1.1-1.2,1.644-1.8a.5.5,0,0,1,.412-.185c.4.011.795,0,1.29,0-.461.5-.857.935-1.256,1.367-.929,1.007-1.858,2.019-2.8,3.018-.164.174-.183.282-.034.481,1.313,1.761,2.611,3.531,3.916,5.3.092.124.179.253.307.437h-1.4c-.159,0-.206-.125-.28-.222-1.156-1.529-2.316-3.064-3.463-4.607-.155-.206-.227-.2-.441-.055a1.783,1.783,0,0,0-.832,1.817c.075.921.012,1.855.021,2.78,0,.216-.046.314-.283.294a4,4,0,0,0-.72,0c-.256.025-.293-.085-.293-.311q.01-5,0-9.992c0-.233.052-.333.3-.311a4.271,4.271,0,0,0,.687,0c.24-.018.312.069.311.311-.01,1.488,0,2.976,0,4.466C452.213,6.925,452.213,7.026,452.213,7.227Z" transform="translate(-419.934 -1.907)" fill="#4b5977"/>
        <path id="Path_3675" data-name="Path 3675" d="M312.317,11.134a4.846,4.846,0,0,1-3.835-1.385,5.176,5.176,0,0,1-1.253-2.985,7.814,7.814,0,0,1,.216-3.092A4.645,4.645,0,0,1,311.733.255a7.234,7.234,0,0,1,3.229.481c.206.089.261.167.142.369-.15.256-.213.618-.429.763s-.518-.131-.784-.214a4.9,4.9,0,0,0-2.5-.177,3.268,3.268,0,0,0-2.53,2.267,5.994,5.994,0,0,0,.051,4.1,3.351,3.351,0,0,0,3.483,2.14,10.043,10.043,0,0,0,2.092-.334c.219-.06.3-.041.3.216.008.9.017.9-.861,1.1a3.662,3.662,0,0,1-.438.077C313.055,11.079,312.622,11.11,312.317,11.134Z" transform="translate(-286.055 -0.228)" fill="#4b5877"/>
        <path id="Path_3676" data-name="Path 3676" d="M4.925,11.189A4.7,4.7,0,0,1,1.3,9.844,5.131,5.131,0,0,1,.015,6.871a7.793,7.793,0,0,1,.2-3.092A4.65,4.65,0,0,1,4.7.3,7.255,7.255,0,0,1,7.763.8c.2.083.241.159.129.347-.157.265-.225.649-.45.785s-.538-.149-.818-.235a4.872,4.872,0,0,0-2.436-.167A3.3,3.3,0,0,0,1.61,3.881,6.082,6.082,0,0,0,1.6,7.66a3.358,3.358,0,0,0,3.557,2.382,9.316,9.316,0,0,0,2.093-.334c.285-.082.321.006.319.262-.007.851,0,.851-.842,1.042A10.706,10.706,0,0,1,4.925,11.189Z" transform="translate(0.057 -0.282)" fill="#4a5877"/>
        <path id="Path_3677" data-name="Path 3677" d="M143.8,7.353c0-1.672,0-3.343-.006-5.016,0-.236.054-.331.3-.308a3.3,3.3,0,0,0,.652,0c.285-.03.344.093.344.353-.008,2.9,0,5.794-.013,8.691,0,.324.069.42.405.412,1.316-.022,2.634,0,3.95-.014.241,0,.307.069.308.305,0,.862.011.862-.843.862-1.569,0-3.137-.008-4.706.007-.3,0-.4-.052-.4-.381C143.812,10.629,143.8,8.991,143.8,7.353Z" transform="translate(-133.914 -1.887)" fill="#4c5a78"/>
        <path id="Path_3678" data-name="Path 3678" d="M254.945,7.462c0-1.659.007-3.319-.006-4.979,0-.275.08-.344.344-.344.934.012.934,0,.934.923,0,3.092,0,6.184.007,9.271,0,.316-.054.469-.4.416-.28-.042-.652.12-.824-.063s-.049-.546-.049-.83C254.943,10.393,254.945,8.928,254.945,7.462Z" transform="translate(-237.387 -1.994)" fill="#485675"/>
      </g>
    </g>
  </g>
</svg>
