<svg width="1303" height="348" viewBox="0 0 1303 348" fill="none" xmlns="http://www.w3.org/2000/svg">
<g clip-path="url(#clip0_3286_27036)">
<rect width="1303" height="348" rx="12" fill="#0D267E"/>
<ellipse cx="1251" cy="179.5" rx="73" ry="74.5" fill="#263F97"/>
<g opacity="0.4" clip-path="url(#clip1_3286_27036)">
<path d="M1114 275.757V249.243H1298V275.757C1298 288.597 1256.81 299 1205.99 299C1155.17 299 1114 288.597 1114 275.757Z" fill="#7E8FCC"/>
<path d="M1127.5 287.865V253.319H1123.37V286.033C1124.63 286.622 1126.02 287.26 1127.5 287.865Z" fill="#263F97"/>
<path d="M1139.9 291.902V253.316H1135.77V290.757C1137.14 291.149 1138.46 291.542 1139.9 291.902Z" fill="#263F97"/>
<path d="M1152.29 294.699V253.316H1148.16V293.816C1149.5 294.094 1150.89 294.355 1152.29 294.699Z" fill="#263F97"/>
<path d="M1164.69 296.514V253.316H1160.56V295.958L1164.69 296.514Z" fill="#263F97"/>
<path d="M1177.08 297.807V253.316H1172.95V297.48C1174.31 297.578 1175.68 297.692 1177.08 297.807Z" fill="#263F97"/>
<path d="M1189.48 298.608V253.316H1185.35V298.395L1189.48 298.608Z" fill="#263F97"/>
<path d="M1201.88 298.952V253.316H1197.75V298.886C1199.12 298.919 1200.49 298.952 1201.88 298.952Z" fill="#263F97"/>
<path d="M1210.14 298.952C1211.53 298.952 1212.9 298.952 1214.27 298.952V253.316H1210.14V298.952Z" fill="#263F97"/>
<path d="M1222.54 298.608L1226.67 298.395V253.316H1222.54V298.608Z" fill="#263F97"/>
<path d="M1234.93 297.806C1236.34 297.691 1237.71 297.577 1239.06 297.43V253.267H1234.93V297.806Z" fill="#263F97"/>
<path d="M1247.33 296.514L1251.46 295.958V253.316H1247.33V296.514Z" fill="#263F97"/>
<path d="M1259.72 294.699C1261.13 294.437 1262.52 294.175 1263.85 293.897V253.316H1259.72V294.699Z" fill="#263F97"/>
<path d="M1272.12 291.902C1273.56 291.542 1274.93 291.149 1276.25 290.757V253.316H1272.12V291.902Z" fill="#263F97"/>
<path d="M1284.51 287.861C1286 287.256 1287.39 286.618 1288.65 285.963V253.25H1284.51V287.861Z" fill="#263F97"/>
<path style="mix-blend-mode:multiply" d="M1114 275.757V249.243H1298V275.757C1298 288.597 1256.81 299 1205.99 299C1155.17 299 1114 288.597 1114 275.757Z" fill="url(#paint0_linear_3286_27036)"/>
<path d="M1206.01 272.486C1256.82 272.486 1298.02 262.08 1298.02 249.243C1298.02 236.406 1256.82 226 1206.01 226C1155.19 226 1114 236.406 1114 249.243C1114 262.08 1155.19 272.486 1206.01 272.486Z" fill="#C5CDE3"/>
<path d="M1206.01 266.63C1252.35 266.63 1289.92 259 1289.92 249.587C1289.92 240.174 1252.35 232.543 1206.01 232.543C1159.67 232.543 1122.1 240.174 1122.1 249.587C1122.1 259 1159.67 266.63 1206.01 266.63Z" fill="#7E8FCC"/>
<path style="mix-blend-mode:multiply" d="M1206.01 266.63C1252.35 266.63 1289.92 259 1289.92 249.587C1289.92 240.174 1252.35 232.543 1206.01 232.543C1159.67 232.543 1122.1 240.174 1122.1 249.587C1122.1 259 1159.67 266.63 1206.01 266.63Z" fill="url(#paint1_linear_3286_27036)"/>
<path d="M1209.66 245.382C1209.66 243.747 1204.7 243.141 1195.53 243.141H1180.11V240.263H1237.96V243.158H1223.79C1225.4 243.471 1226.88 244.251 1228.04 245.399H1237.96V248.294H1228.04C1226.68 251.565 1214.09 253.413 1199.79 253.397L1238.96 262.41V264.045H1219.13L1180.11 253.364V250.535H1195.58C1204.83 250.535 1209.71 249.995 1209.71 248.31H1180.11V245.382H1209.66Z" fill="#EDF0F9"/>
<path d="M1209.66 243.73C1209.66 242.094 1204.7 241.489 1195.53 241.489H1180.11V238.61H1237.96V241.489H1223.79C1225.4 241.802 1226.88 242.582 1228.04 243.73H1237.96V246.625H1228.04C1226.68 249.896 1214.09 251.745 1199.79 251.728L1238.96 262.393H1219.13L1180.11 251.712V248.899H1195.58C1204.83 248.899 1209.71 248.359 1209.71 246.674H1180.11V243.714L1209.66 243.73Z" fill="#C5CDE3"/>
<path style="mix-blend-mode:multiply" d="M1206.01 235.814C1162.36 235.814 1126.51 242.553 1122.48 251.206C1122.22 250.696 1122.09 250.138 1122.08 249.57C1122.1 240.165 1159.66 232.543 1206.01 232.543C1252.35 232.543 1289.92 240.165 1289.92 249.587C1289.91 250.154 1289.77 250.713 1289.52 251.222C1285.49 242.553 1249.64 235.814 1206.01 235.814Z" fill="url(#paint2_radial_3286_27036)"/>
</g>
<ellipse cx="22" cy="74.5" rx="140" ry="125.5" fill="#263F97" fill-opacity="0.5"/>
</g>
<defs>
<linearGradient id="paint0_linear_3286_27036" x1="1206.47" y1="264.439" x2="1290.44" y2="348.19" gradientUnits="userSpaceOnUse">
<stop offset="0.02" stop-color="white" stop-opacity="0"/>
<stop offset="1" stop-color="#F9A825"/>
</linearGradient>
<linearGradient id="paint1_linear_3286_27036" x1="1511.92" y1="-40720.1" x2="5736.72" y2="-40720.1" gradientUnits="userSpaceOnUse">
<stop offset="0.02" stop-color="white" stop-opacity="0"/>
<stop offset="1" stop-color="#F9A825"/>
</linearGradient>
<radialGradient id="paint2_radial_3286_27036" cx="0" cy="0" r="1" gradientUnits="userSpaceOnUse" gradientTransform="translate(2384.41 -41506.6) rotate(90) scale(4135.95 996.339)">
<stop offset="0.02" stop-color="white" stop-opacity="0"/>
<stop offset="1" stop-color="#F9A825"/>
</radialGradient>
<clipPath id="clip0_3286_27036">
<rect width="1303" height="348" fill="white"/>
</clipPath>
<clipPath id="clip1_3286_27036">
<rect width="184" height="73" fill="white" transform="translate(1114 226)"/>
</clipPath>
</defs>
</svg>
