<svg xmlns="http://www.w3.org/2000/svg" width="88" height="68" viewBox="0 0 88 68">
  <g id="easyecom" transform="translate(-6505 -19391)">
    <rect id="Rectangle_17689" data-name="Rectangle 17689" width="88" height="68" rx="5" transform="translate(6505 19391)" fill="#fff" opacity="0"/>
    <g id="Layer_2" data-name="Layer 2" transform="translate(6529 19406)">
      <g id="Layer_1" data-name="Layer 1" transform="translate(0)">
        <path id="Path_3679" data-name="Path 3679" d="M85.36,0a49.8,49.8,0,0,1,5.371,2.975c4.671,2.669,9.306,5.378,13.956,8.07a.435.435,0,0,0,.38.449q.021,10.9.051,21.81a1.007,1.007,0,0,1-.617.978c-2.3,1.3-4.6,2.6-6.846,3.965-.6.366-.98.14-1.447-.127Q90.791,35,85.372,31.9v-9.2c.421-.028.69.274,1.022.46,3.279,1.875,6.549,3.767,9.828,5.642.23.138.46.433.743.29.4-1.362-.173-2.071-1.353-2.72-3.452-1.875-6.827-3.891-10.233-5.852v-9.2c3.021,1.48,5.84,3.316,8.774,4.947.92.515,1.841,1.045,2.784,1.579a2.028,2.028,0,0,0-1.194-2.727c-3.5-1.9-6.9-3.942-10.355-5.93Z" transform="translate(-65.718)" fill="#02837e"/>
        <path id="Path_3680" data-name="Path 3680" d="M19.642,22.693v9.2c-3.569,2.057-7.147,4.094-10.693,6.188a1.539,1.539,0,0,1-1.841-.014C4.871,36.691,2.591,35.393.327,34.061L.078,33.8C.053,32.878,0,31.974,0,31.06Q0,21.9,0,12.741c0-.419.037-.835.058-1.254l.23-.373C6.705,7.35,13.116,3.569,19.642,0V9.186L9.11,15.282c-1.233.713-1.342,1.022-.838,2.492l1.8-1.024,9.573-5.435v9.2c-3.452,1.99-6.85,4.048-10.355,5.935a2.138,2.138,0,0,0-1.151,2.761c1.351-.778,2.621-1.533,3.912-2.248C14.594,25.542,17.028,23.959,19.642,22.693Z" transform="translate(0)" fill="#209e46"/>
        <path id="Path_3681" data-name="Path 3681" d="M169.729,48.449a.435.435,0,0,1-.38-.449C169.588,48.053,169.77,48.156,169.729,48.449Z" transform="translate(-130.38 -36.955)" fill="#2b918e"/>
        <path id="Path_3682" data-name="Path 3682" d="M.466,48.3l-.23.373a.315.315,0,0,1,.23-.373Z" transform="translate(-0.176 -37.186)" fill="#14963c"/>
        <path id="Path_3683" data-name="Path 3683" d="M.337,146.88l.246.258C.434,147.117.326,147.055.337,146.88Z" transform="translate(-0.259 -113.081)" fill="#14963c"/>
        <path id="Path_3684" data-name="Path 3684" d="M46.509,91.321c-2.616,1.266-5.049,2.86-7.594,4.266C37.622,96.3,36.352,97.06,35,97.836a2.141,2.141,0,0,1,1.151-2.761c3.5-1.885,6.9-3.944,10.355-5.935,3.406,1.961,6.781,3.979,10.233,5.852,1.18.642,1.753,1.358,1.353,2.72-.29.143-.5-.152-.743-.29-3.272-1.871-6.554-3.767-9.821-5.645C47.208,91.593,46.93,91.294,46.509,91.321Z" transform="translate(-26.867 -68.628)" fill="#f5faf8"/>
        <path id="Path_3685" data-name="Path 3685" d="M46.416,42.041l-9.573,5.438L35.055,48.5c-.5-1.47-.4-1.779.838-2.492l10.537-6.1c3.452,1.986,6.866,4.029,10.355,5.93a2.029,2.029,0,0,1,1.194,2.727c-.941-.534-1.859-1.065-2.784-1.579C52.256,45.357,49.437,43.52,46.416,42.041Z" transform="translate(-26.771 -30.726)" fill="#f4f9f7"/>
      </g>
    </g>
  </g>
</svg>
