<svg xmlns="http://www.w3.org/2000/svg" width="88" height="68" viewBox="0 0 88 68">
  <g id="easyops" transform="translate(-6646.976 -19391)">
    <rect id="Rectangle_17690" data-name="Rectangle 17690" width="88" height="68" rx="5" transform="translate(6646.976 19391)" fill="#fff" opacity="0"/>
    <g id="Layer_2" data-name="Layer 2" transform="translate(6674.446 19407.1)">
      <g id="Layer_1" data-name="Layer 1" transform="translate(0 0)">
        <path id="Path_3686" data-name="Path 3686" d="M12.136,19.626H4.542c-.774,0-.883.233-.724.924,1.374,5.929,4.938,9.868,10.875,11.225s10.934-.633,14.739-5.438c1.066-1.349,1.932-1.665,2.881-1s1.033,1.815-.083,3.206c-4.888,6.1-11.208,8.535-18.778,6.6C6.049,33.241,1.536,28.2.262,20.684A17.77,17.77,0,0,1,17.574,0,17.729,17.729,0,0,1,32.48,7.494a2.082,2.082,0,0,1,.591,1.665,1.724,1.724,0,0,1-1.291,1.5,1.749,1.749,0,0,1-1.99-.783A15.072,15.072,0,0,0,25.068,5.47,14.356,14.356,0,0,0,3.8,15.2c-.158.833.167.833.833.833H20.055a1.924,1.924,0,0,1,1.882,1.832A1.849,1.849,0,0,1,19.981,19.6C17.324,19.635,14.726,19.626,12.136,19.626Z" transform="translate(-0.021 0.006)" fill="#07aaf3"/>
        <path id="Path_3688" data-name="Path 3688" d="M19.383,8.23a10.909,10.909,0,0,1,1.266,21.742,10.709,10.709,0,0,1-10.043-4.33c-.5-.625-.833-1.3-.058-1.907s1.332-.058,1.815.558a8.694,8.694,0,1,0,.092-10.426,5.438,5.438,0,0,1-.483.633,1,1,0,0,1-1.366.117.983.983,0,0,1-.358-1.391,8.627,8.627,0,0,1,1.024-1.349A10.659,10.659,0,0,1,19.383,8.23Z" transform="translate(-1.705 -1.371)" fill="#c2cb39"/>
      </g>
    </g>
  </g>
</svg>
