<svg xmlns="http://www.w3.org/2000/svg" width="88" height="68" viewBox="0 0 88 68">
  <g id="ecywid" transform="translate(-6181 -19649)">
    <rect id="Rectangle_17696" data-name="Rectangle 17696" width="88" height="68" rx="5" transform="translate(6181 19649)" fill="#fff" opacity="0"/>
    <g id="Layer_2" data-name="Layer 2" transform="translate(6186.247 19673.313)">
      <g id="Layer_1" data-name="Layer 1" transform="translate(0 0)">
        <path id="Path_3695" data-name="Path 3695" d="M-.025,9.723c0-1.574,0-3.149,0-4.723A4.85,4.85,0,0,1,4.265.027a4.415,4.415,0,0,1,.656-.033c3.2,0,6.4-.01,9.607,0a4.842,4.842,0,0,1,4.851,4.01,5.032,5.032,0,0,1,.087.978q0,4.772,0,9.544a4.869,4.869,0,0,1-4.168,4.92,4.511,4.511,0,0,1-.752.048c-3.225,0-6.45.016-9.675,0A4.829,4.829,0,0,1,.1,15.714a5.273,5.273,0,0,1-.12-1.236Zm11.59,3.693a6.938,6.938,0,0,0,.949-.007,3.081,3.081,0,0,0,2.629-2.373c.515-1.656.959-3.332,1.381-5.013.136-.539.262-1.081.369-1.627.066-.332-.071-.475-.371-.459a1.99,1.99,0,0,0-1.64,1.32c-.136.517-.262,1.036-.394,1.553-.3,1.139-.586,2.281-.9,3.416a1.645,1.645,0,0,1-1.827,1.389c-.174,0-.35,0-.525-.009-.3-.021-.59-.077-.7-.424a.266.266,0,0,0-.287-.173c-.328,0-.656,0-.984,0a.256.256,0,0,0-.291.2.528.528,0,0,1-.543.39c-.218.016-.437.015-.656.012A1.5,1.5,0,0,1,6.1,10.369q-.506-1.692-.99-3.391A1.3,1.3,0,0,0,3.994,5.92c-.924-.113-1.012-.058-.756.816.459,1.57.941,3.132,1.413,4.7a2.536,2.536,0,0,0,1.862,1.807,8.49,8.49,0,0,0,2.8.088.88.88,0,0,0,.394-.152c.077-.047.161-.088.245-.03a2.491,2.491,0,0,0,1.616.267ZM3.8,16.656A1.477,1.477,0,0,0,5.24,15.242a1.462,1.462,0,0,0-1.416-1.436,1.434,1.434,0,0,0-1.436,1.408A1.464,1.464,0,0,0,3.8,16.656Zm11.886-2.849A1.439,1.439,0,0,0,14.24,15.2a1.426,1.426,0,1,0,2.852.035,1.439,1.439,0,0,0-1.408-1.429ZM7.465,8.779a.708.708,0,1,0,0,1.415.726.726,0,0,0,.714-.706.71.71,0,0,0-.71-.708Zm5.4.71a.7.7,0,1,0-.35.624.7.7,0,0,0,.35-.624Zm-2.367,0a.7.7,0,0,0-.7-.714.71.71,0,0,0-.722.695.722.722,0,0,0,.7.722.7.7,0,0,0,.716-.7Zm1.658-3.28a.7.7,0,1,0,.71.7.687.687,0,0,0-.71-.689Zm-2.369.007a.7.7,0,1,0,.707.7A.7.7,0,0,0,9.782,6.221Zm-2.309,0a.7.7,0,1,0,.692.713.7.7,0,0,0-.692-.713Z" transform="translate(0.027 0.011)" fill="#0187cc"/>
        <path id="Path_3696" data-name="Path 3696" d="M1054.991,29.218c0-1.914,0-3.739,0-5.562,0-.192-.1-.447.165-.547a.677.677,0,0,1,.668.169,1.144,1.144,0,0,1,.411.794,4.14,4.14,0,0,1,.022.525V35.355a2.338,2.338,0,0,1-.247,1.236.88.88,0,0,1-.656.494c-.225.027-.385-.037-.372-.316s0-.561,0-.931a3.786,3.786,0,0,1-2.316,1.536,4.919,4.919,0,1,1-1.8-9.666,4.34,4.34,0,0,1,3.4.746A3.883,3.883,0,0,1,1054.991,29.218Zm0,3.3a4.214,4.214,0,0,0-.165-1.4,3.386,3.386,0,0,0-4.291-2.022,3.718,3.718,0,0,0-1.931,5.368,3.36,3.36,0,0,0,4.548,1.353,3.275,3.275,0,0,0,1.836-3.3Z" transform="translate(-978.03 -21.56)" fill="#0287cd"/>
        <path id="Path_3697" data-name="Path 3697" d="M387.954,98.264c-1.257,0-2.514.009-3.77-.007-.312,0-.328.1-.259.358a3.646,3.646,0,0,0,4.251,2.629,2.909,2.909,0,0,0,2.161-1.261,1.146,1.146,0,0,1,1.1-.18.316.316,0,0,1,.14.279,1.04,1.04,0,0,1-.183.585,3.98,3.98,0,0,1-2.586,1.753,5.109,5.109,0,0,1-6.216-3.35,4.97,4.97,0,0,1,3.828-6.257,5.045,5.045,0,0,1,5.965,4.115.3.3,0,0,0,.007.032c.069.813.181,1.369-1.092,1.312C390.186,98.225,389.069,98.264,387.954,98.264Zm-.546-1.269c1.092,0,2.184-.009,3.28.006.287,0,.328-.08.262-.338a3.646,3.646,0,0,0-7.029.019c-.066.244-.016.322.251.319C385.244,96.986,386.325,96.995,387.408,96.995Z" transform="translate(-357.298 -86.637)" fill="#0288cd"/>
        <path id="Path_3698" data-name="Path 3698" d="M739.607,104.646c.192-.463.354-.853.512-1.24q.795-1.955,1.588-3.91a1.886,1.886,0,0,1,.25-.495.794.794,0,0,1,1.292.03,2.381,2.381,0,0,1,.231.468q.978,2.392,1.952,4.788c.035.087.075.172.12.272a.891.891,0,0,0,.216-.451c.664-1.951,1.321-3.9,1.989-5.853a.8.8,0,0,1,.953-.6c.425.035.579.251.459.648-.818,2.659-1.692,5.3-2.724,7.882-.028.071-.055.142-.083.213a.662.662,0,0,1-.656.5.682.682,0,0,1-.607-.516q-1.067-2.674-2.145-5.343a.257.257,0,0,0-.01-.031c-.073-.127-.066-.343-.247-.352s-.2.205-.254.338q-1.06,2.624-2.109,5.252c-.028.071-.052.144-.083.213a.644.644,0,0,1-.595.441.615.615,0,0,1-.6-.428c-.276-.688-.556-1.378-.814-2.07q-1.111-2.991-2.01-6.053c-.059-.2-.215-.44-.012-.61a.741.741,0,0,1,.721-.02.8.8,0,0,1,.508.59C738.12,100.4,738.825,102.487,739.607,104.646Z" transform="translate(-687.829 -91.225)" fill="#0388cd"/>
        <path id="Path_3699" data-name="Path 3699" d="M574.41,101.432a4.229,4.229,0,0,0,1.592-.274,2.389,2.389,0,0,0,1.181-.943,1.088,1.088,0,0,1,1.151-.294c.2.111.233.594.053.908a3.092,3.092,0,0,1-1.031,1.082,5.008,5.008,0,0,1-7.652-3.083,4.918,4.918,0,0,1,5.056-5.964,4.33,4.33,0,0,1,3.375,1.537,1.269,1.269,0,0,1,.367.853.31.31,0,0,1-.311.347,1.139,1.139,0,0,1-1.125-.41,3.086,3.086,0,0,0-2.829-1.045,3.53,3.53,0,0,0-3.261,3.315,3.5,3.5,0,0,0,3.435,3.971Z" transform="translate(-532.22 -86.768)" fill="#0388cd"/>
        <path id="Path_3700" data-name="Path 3700" d="M979.376,101.73V97.766c0-.5.186-.693.653-.7s.672.2.672.684v7.959c0,.459-.167.609-.649.609s-.674-.169-.675-.628Q979.374,103.711,979.376,101.73Z" transform="translate(-915.13 -90.701)" fill="#0288cd"/>
        <path id="Path_3701" data-name="Path 3701" d="M976.173,40a.948.948,0,0,1,.946.93.981.981,0,0,1-.959.964.952.952,0,0,1-.935-.976.927.927,0,0,1,.948-.918Z" transform="translate(-911.253 -37.372)" fill="#0489cd"/>
        <path id="Path_3702" data-name="Path 3702" d="M56.319,69.665A2.509,2.509,0,0,1,54.7,69.4c-.084-.058-.167-.017-.245.03a.88.88,0,0,1-.394.152,8.474,8.474,0,0,1-2.8-.088A2.541,2.541,0,0,1,49.4,67.684c-.472-1.566-.954-3.129-1.413-4.7-.255-.874-.167-.929.757-.815a1.3,1.3,0,0,1,1.115,1.058q.486,1.7.991,3.391a1.505,1.505,0,0,0,1.675,1.246c.218,0,.438,0,.656-.012a.527.527,0,0,0,.543-.39.256.256,0,0,1,.291-.2H55a.267.267,0,0,1,.287.173c.115.347.4.4.7.424.174.012.35.011.525.009a1.646,1.646,0,0,0,1.828-1.389c.314-1.135.6-2.277.9-3.416.134-.517.262-1.036.394-1.553a1.99,1.99,0,0,1,1.64-1.32c.3-.014.435.131.371.459-.106.546-.234,1.088-.369,1.627-.422,1.681-.867,3.357-1.381,5.013a3.078,3.078,0,0,1-2.629,2.373A7.157,7.157,0,0,1,56.319,69.665Z" transform="translate(-44.726 -56.238)" fill="#fcfdfe"/>
        <path id="Path_3703" data-name="Path 3703" d="M38.188,213.471a1.465,1.465,0,0,1-1.409-1.443,1.434,1.434,0,0,1,1.433-1.408,1.425,1.425,0,1,1-.024,2.851Zm.529-1.414a.548.548,0,1,0-.49.558.572.572,0,0,0,.491-.558Z" transform="translate(-34.365 -196.803)" fill="#fafcfd"/>
        <path id="Path_3704" data-name="Path 3704" d="M218.9,210.64a1.439,1.439,0,0,1,1.408,1.429,1.426,1.426,0,1,1-2.852-.035A1.439,1.439,0,0,1,218.9,210.64Zm.506,1.485a.536.536,0,0,0-.51-.534.525.525,0,0,0-.027,1.04A.544.544,0,0,0,219.4,212.125Z" transform="translate(-203.189 -196.822)" fill="#fafcfd"/>
        <path id="Path_3705" data-name="Path 3705" d="M103.723,134a.71.71,0,0,1,.71.708.726.726,0,0,1-.717.708.708.708,0,1,1,0-1.415Z" transform="translate(-96.231 -125.209)" fill="#f9fbfd"/>
        <path id="Path_3706" data-name="Path 3706" d="M176.4,134.763a.7.7,0,1,1-.7-.708A.7.7,0,0,1,176.4,134.763Z" transform="translate(-163.512 -125.261)" fill="#f9fcfd"/>
        <path id="Path_3707" data-name="Path 3707" d="M140.119,134.7a.7.7,0,0,1-.717.7.722.722,0,0,1-.7-.722.71.71,0,0,1,.722-.695.7.7,0,0,1,.7.718Z" transform="translate(-129.6 -125.189)" fill="#f9fcfd"/>
        <path id="Path_3708" data-name="Path 3708" d="M175.693,95a.7.7,0,1,1-.7.707.691.691,0,0,1,.7-.707Z" transform="translate(-163.516 -88.767)" fill="#f9fbfd"/>
        <path id="Path_3709" data-name="Path 3709" d="M139.548,95a.7.7,0,1,1-.7.707A.7.7,0,0,1,139.548,95Z" transform="translate(-129.74 -88.767)" fill="#f9fcfd"/>
        <path id="Path_3710" data-name="Path 3710" d="M104.152,95a.7.7,0,1,1-.713.692A.7.7,0,0,1,104.152,95Z" transform="translate(-96.652 -88.767)" fill="#f9fbfd"/>
        <path id="Path_3711" data-name="Path 3711" d="M50.892,225.6a.572.572,0,0,1-.49.558.522.522,0,1,1,.49-.558Z" transform="translate(-46.539 -210.344)" fill="#088ace"/>
        <path id="Path_3712" data-name="Path 3712" d="M233.021,225.627a.544.544,0,0,1-.537.506.525.525,0,0,1,.027-1.044A.536.536,0,0,1,233.021,225.627Z" transform="translate(-216.805 -210.324)" fill="#0a8bce"/>
      </g>
    </g>
  </g>
</svg>
