<svg xmlns="http://www.w3.org/2000/svg" width="238.002" height="177.34" viewBox="0 0 238.002 177.34">
  <g id="Product_iteration-rafiki" data-name="Product iteration-rafiki" transform="translate(0 -55)" opacity="0.6">
    <g id="freepik--background-complete--inject-133" transform="translate(0 55)">
      <rect id="Rectangle_17593" data-name="Rectangle 17593" width="238.002" height="0.119" transform="translate(0 155.844)" fill="#ebebeb"/>
      <rect id="Rectangle_17594" data-name="Rectangle 17594" width="15.765" height="0.119" transform="translate(62.58 163.184)" fill="#ebebeb"/>
      <rect id="Rectangle_17595" data-name="Rectangle 17595" width="4.136" height="0.119" transform="translate(119.072 161.894)" fill="#ebebeb"/>
      <rect id="Rectangle_17596" data-name="Rectangle 17596" width="9.135" height="0.119" transform="translate(24.971 159.885)" fill="#ebebeb"/>
      <rect id="Rectangle_17597" data-name="Rectangle 17597" width="12.414" height="0.119" transform="translate(185.499 159.085)" fill="#ebebeb"/>
      <rect id="Rectangle_17598" data-name="Rectangle 17598" width="11.158" height="0.119" transform="translate(170.1 159.085)" fill="#ebebeb"/>
      <rect id="Rectangle_17599" data-name="Rectangle 17599" width="44.592" height="0.119" transform="translate(169.567 164.797)" fill="#ebebeb"/>
      <path id="Path_3356" data-name="Path 3356" d="M132.835,189.614H40.923A2.718,2.718,0,0,1,38.21,186.9V57.694A2.718,2.718,0,0,1,40.923,55h91.912a2.718,2.718,0,0,1,2.718,2.718V186.9A2.718,2.718,0,0,1,132.835,189.614ZM40.923,55.1a2.6,2.6,0,0,0-2.594,2.6V186.9a2.6,2.6,0,0,0,2.594,2.6h91.912a2.6,2.6,0,0,0,2.6-2.6V57.694a2.6,2.6,0,0,0-2.6-2.6Z" transform="translate(-20.022 -55)" fill="#ebebeb"/>
      <path id="Path_3357" data-name="Path 3357" d="M349.134,189.614H257.218A2.723,2.723,0,0,1,254.5,186.9V57.694A2.723,2.723,0,0,1,257.218,55h91.916a2.718,2.718,0,0,1,2.708,2.694V186.9A2.718,2.718,0,0,1,349.134,189.614ZM257.218,55.1a2.6,2.6,0,0,0-2.6,2.6V186.9a2.6,2.6,0,0,0,2.6,2.6h91.916a2.6,2.6,0,0,0,2.6-2.6V57.694a2.6,2.6,0,0,0-2.6-2.6Z" transform="translate(-133.357 -55)" fill="#ebebeb"/>
      <rect id="Rectangle_17600" data-name="Rectangle 17600" width="5.012" height="23.791" transform="translate(40.06 80.392)" fill="#f0f0f0"/>
      <rect id="Rectangle_17601" data-name="Rectangle 17601" width="3.399" height="16.132" transform="translate(40.865 82.225)" fill="#fafafa"/>
      <rect id="Rectangle_17602" data-name="Rectangle 17602" width="10.701" height="23.791" transform="translate(55.769 104.188) rotate(180)" fill="#e0e0e0"/>
      <rect id="Rectangle_17603" data-name="Rectangle 17603" width="5.012" height="23.791" transform="translate(46.115 80.392)" fill="#f0f0f0"/>
      <rect id="Rectangle_17604" data-name="Rectangle 17604" width="3.399" height="16.132" transform="translate(46.924 82.225)" fill="#fafafa"/>
      <rect id="Rectangle_17605" data-name="Rectangle 17605" width="10.701" height="23.791" transform="translate(61.828 104.188) rotate(180)" fill="#e0e0e0"/>
      <rect id="Rectangle_17606" data-name="Rectangle 17606" width="1.814" height="84.71" transform="translate(56.335 71.129)" fill="#ebebeb"/>
      <rect id="Rectangle_17607" data-name="Rectangle 17607" width="1.814" height="84.71" transform="translate(25.933 71.129)" fill="#ebebeb"/>
      <rect id="Rectangle_17608" data-name="Rectangle 17608" width="1.814" height="84.71" transform="translate(64.146 71.129)" fill="#ebebeb"/>
      <rect id="Rectangle_17609" data-name="Rectangle 17609" width="1.814" height="84.71" transform="translate(33.744 71.129)" fill="#ebebeb"/>
      <rect id="Rectangle_17610" data-name="Rectangle 17610" width="5.012" height="23.791" transform="translate(31.678 115.807)" fill="#f0f0f0"/>
      <rect id="Rectangle_17611" data-name="Rectangle 17611" width="3.399" height="16.132" transform="translate(32.487 117.64)" fill="#fafafa"/>
      <rect id="Rectangle_17612" data-name="Rectangle 17612" width="10.701" height="23.791" transform="translate(47.391 139.602) rotate(180)" fill="#e0e0e0"/>
      <rect id="Rectangle_17613" data-name="Rectangle 17613" width="5.012" height="23.791" transform="translate(37.738 115.807)" fill="#f0f0f0"/>
      <rect id="Rectangle_17614" data-name="Rectangle 17614" width="3.399" height="16.132" transform="translate(38.542 117.64)" fill="#fafafa"/>
      <rect id="Rectangle_17615" data-name="Rectangle 17615" width="10.701" height="23.791" transform="translate(53.446 139.602) rotate(180)" fill="#e0e0e0"/>
      <rect id="Rectangle_17616" data-name="Rectangle 17616" width="40.989" height="2.361" transform="translate(24.971 68.773)" fill="#f0f0f0"/>
      <rect id="Rectangle_17617" data-name="Rectangle 17617" width="40.989" height="2.361" transform="translate(24.971 104.188)" fill="#f0f0f0"/>
      <rect id="Rectangle_17618" data-name="Rectangle 17618" width="40.989" height="2.361" transform="translate(24.971 139.602)" fill="#f0f0f0"/>
      <rect id="Rectangle_17619" data-name="Rectangle 17619" width="28.013" height="35.21" transform="translate(66.555 50.49) rotate(180)" fill="#f0f0f0"/>
      <rect id="Rectangle_17620" data-name="Rectangle 17620" width="33.125" height="35.21" transform="translate(65.479 50.49) rotate(180)" fill="#f5f5f5"/>
      <rect id="Rectangle_17621" data-name="Rectangle 17621" width="29.66" height="27.575" transform="translate(35.134 47.715) rotate(-90)" fill="#fff"/>
      <circle id="Ellipse_453" data-name="Ellipse 453" cx="6.226" cy="6.226" r="6.226" transform="translate(42.693 26.656)" fill="#f0f0f0"/>
      <rect id="Rectangle_17622" data-name="Rectangle 17622" width="106.039" height="61.7" transform="translate(209.17 71.724) rotate(180)" fill="#f0f0f0"/>
      <rect id="Rectangle_17623" data-name="Rectangle 17623" width="118.458" height="61.7" transform="translate(206.229 71.724) rotate(180)" fill="#f5f5f5"/>
      <rect id="Rectangle_17624" data-name="Rectangle 17624" width="51.975" height="104.673" transform="translate(94.663 66.864) rotate(-90)" fill="#fff"/>
      <rect id="Rectangle_17625" data-name="Rectangle 17625" width="16.574" height="104.673" transform="translate(94.663 31.464) rotate(-90)" fill="#fafafa"/>
      <rect id="Rectangle_17626" data-name="Rectangle 17626" width="21.92" height="104.673" transform="translate(94.663 66.864) rotate(-90)" fill="#f0f0f0"/>
      <rect id="Rectangle_17627" data-name="Rectangle 17627" width="3.127" height="47.153" transform="translate(205.439 108.686)" fill="#e6e6e6"/>
      <rect id="Rectangle_17628" data-name="Rectangle 17628" width="2.171" height="47.153" transform="translate(207.381 108.686)" fill="#f0f0f0"/>
      <rect id="Rectangle_17629" data-name="Rectangle 17629" width="82.515" height="5.317" transform="translate(210.222 114.008) rotate(180)" fill="#f0f0f0"/>
      <rect id="Rectangle_17630" data-name="Rectangle 17630" width="3.127" height="41.836" transform="translate(123.18 114.003)" fill="#e6e6e6"/>
      <rect id="Rectangle_17631" data-name="Rectangle 17631" width="2.171" height="41.836" transform="translate(125.122 114.003)" fill="#f0f0f0"/>
      <rect id="Rectangle_17632" data-name="Rectangle 17632" width="3.127" height="41.836" transform="translate(103.398 114.003)" fill="#e6e6e6"/>
      <rect id="Rectangle_17633" data-name="Rectangle 17633" width="2.171" height="41.836" transform="translate(105.34 114.003)" fill="#e6e6e6"/>
      <rect id="Rectangle_17634" data-name="Rectangle 17634" width="3.127" height="41.836" transform="translate(185.656 114.003)" fill="#e6e6e6"/>
      <rect id="Rectangle_17635" data-name="Rectangle 17635" width="2.171" height="41.836" transform="translate(187.598 114.003)" fill="#e6e6e6"/>
      <rect id="Rectangle_17636" data-name="Rectangle 17636" width="24.31" height="5.317" transform="translate(103.398 108.686)" fill="#e6e6e6"/>
      <path id="Path_3358" data-name="Path 3358" d="M382.021,243.706c-2.661,2.975-12.2,6.074-15.018-3.275-2.052-6.793,9.415-11.819,16.279-12.11,7.392-.309,11.762,2.294,11.762,2.294a163.348,163.348,0,0,0-13.023,13.09Z" transform="translate(-192.182 -145.807)" fill="#e6e6e6"/>
      <path id="Path_3359" data-name="Path 3359" d="M349.072,243.137c3.746.4,10.115-2.461,7.592-10.325s-7.673-8.6-11.081-9.254c-4.346-.838-13.033,2.713-13.033,2.713S345.331,242.742,349.072,243.137Z" transform="translate(-174.255 -143.257)" fill="#e6e6e6"/>
      <path id="Path_3360" data-name="Path 3360" d="M380.055,217.586c-4.717,2.142-8.673,2.856-6.44-3.808s4.95-9.877,9.382-11.234c5.645-1.733,12.348,1.99,12.348,1.99S384.768,215.444,380.055,217.586Z" transform="translate(-195.437 -132.071)" fill="#e6e6e6"/>
      <path id="Path_3361" data-name="Path 3361" d="M358.685,217.466c3.6,1.066,6.436.843,3.751-5.588s-4.474-7.235-7.554-8.468c-5.712-2.28-10.472,1.814-10.472,1.814S355.082,216.4,358.685,217.466Z" transform="translate(-180.47 -132.404)" fill="#e6e6e6"/>
      <path id="Path_3362" data-name="Path 3362" d="M382.758,197.16c-3.913,3.427-7.516,5.6-7.354.271s2.927-10.106,7.14-12.252c2.9-1.48,9.306-.814,9.306-.814S386.671,193.733,382.758,197.16Z" transform="translate(-196.708 -122.709)" fill="#e6e6e6"/>
      <path id="Path_3363" data-name="Path 3363" d="M361.695,199.118c2.561,2.042,4.76,3.118,3.975-1.214s-2.237-5.493-4.684-7.021a8.935,8.935,0,0,0-6.536-1S359.134,197.076,361.695,199.118Z" transform="translate(-185.73 -125.556)" fill="#e6e6e6"/>
      <path id="Path_3364" data-name="Path 3364" d="M378.394,260.45H352.68l3.384,10.891h18.945Z" transform="translate(-184.803 -162.655)" fill="#f0f0f0"/>
    </g>
    <g id="freepik--Shadow--inject-133" transform="translate(26.709 221.563)">
      <ellipse id="freepik--path--inject-133" cx="92.292" cy="5.388" rx="92.292" ry="5.388" fill="#f5f5f5"/>
    </g>
    <g id="freepik--character-2--inject-133" transform="translate(107.255 87.707)">
      <path id="Path_3365" data-name="Path 3365" d="M259.846,178.478l-.586.776c-.19.248-.39.476-.585.719-.386.476-.8.952-1.209,1.39a36.533,36.533,0,0,1-2.661,2.628c-.476.424-.952.838-1.48,1.242s-1.066.79-1.647,1.171a13.2,13.2,0,0,1-4.284,1.9l-.167.038a2.423,2.423,0,0,1-.476.062,5.565,5.565,0,0,1-2.271-.4,7.032,7.032,0,0,1-1.428-.766,12.513,12.513,0,0,1-1.9-1.652,24.5,24.5,0,0,1-2.647-3.365,39.734,39.734,0,0,1-2.037-3.47,37.955,37.955,0,0,1-1.676-3.618,1.9,1.9,0,0,1,3.2-1.971l.043.048,2.451,2.77c.823.914,1.647,1.814,2.485,2.656a24.936,24.936,0,0,0,2.485,2.247,5.841,5.841,0,0,0,1.081.681.557.557,0,0,0,.257.067.669.669,0,0,0-.4-.09l-.652.1a9.712,9.712,0,0,0,1.8-1.18,28.47,28.47,0,0,0,2.147-1.966c.709-.728,1.428-1.49,2.128-2.28l1.038-1.195.99-1.166.119-.138a3.808,3.808,0,0,1,5.936,4.76Z" transform="translate(-230.207 -149.237)" fill="#263238"/>
      <path id="Path_3366" data-name="Path 3366" d="M230.63,166.669c-1.837.286-3.584-2.694-3.584-2.694l-1.376-1.637a1.485,1.485,0,0,1,0-1.9l1.185-1.38a1.485,1.485,0,0,1,2.113-.138l1.576,1.428a2.651,2.651,0,0,1,.657.909l.614,1.428a3.413,3.413,0,0,1-.562,3.6l-.114.133A.909.909,0,0,1,230.63,166.669Z" transform="translate(-225.325 -141.96)" fill="#ffc3bd"/>
      <path id="Path_3367" data-name="Path 3367" d="M309.216,278.922c-2.328-17.241-3.246-27.47-4.76-36.043l-14.666-.219s6.583,27.494,9.715,38.718,20.849,39.1,20.849,39.1l3.894-2.313S313.4,291.979,309.216,278.922Z" transform="translate(-259.104 -186.04)" fill="#263238"/>
      <path id="Path_3368" data-name="Path 3368" d="M348.456,407.862s2.932-3.584,2.885-4.8l3.227-1.9,1.776,3.546-1.557.952-.476-.148-.338.628a25.122,25.122,0,0,1-5.4,2.632A.952.952,0,0,1,348.456,407.862Z" transform="translate(-289.81 -269.093)" fill="#263238"/>
      <path id="Path_3369" data-name="Path 3369" d="M294.026,169.723a68.519,68.519,0,0,0-17.565.276,6.017,6.017,0,0,0-4.879,5.06c-1.047,7.5-.148,20.616.524,33.8,11.343,3.884,23.324-.052,23.324-.052.414-2.666-.514-11.391-1.142-16.046.952-4.812,2.923-10.32,4.236-16.708a5.236,5.236,0,0,0-4.5-6.326Z" transform="translate(-249.313 -147.595)" fill="#263238"/>
      <path id="Path_3370" data-name="Path 3370" d="M289.583,169.049a5.326,5.326,0,0,0-1.261,2.88c-.533,3.046.071,7.745,1.676,13.128a83.914,83.914,0,0,1,6.883-13.409c.952-1.58,1.633-2.623,1.695-2.718h0A18.712,18.712,0,0,0,289.583,169.049Z" transform="translate(-258.236 -147.149)" fill="#263f97"/>
      <path id="Path_3371" data-name="Path 3371" d="M299.148,149.39l-5.9,4.841c.762,2.033,1,4.146-2.332,4.96-.833,1.1.638,2.38,2.018,2.942,2.228-.276,5.365-1.019,6.721-2.856A30.237,30.237,0,0,1,299.148,149.39Z" transform="translate(-259.566 -137.167)" fill="#ffc3bd"/>
      <path id="Path_3372" data-name="Path 3372" d="M292.46,172.615a4.451,4.451,0,0,0,1.223,1.847,5.045,5.045,0,0,0,2.218-1.014s-.509-1.428-1.223-1.718A4.871,4.871,0,0,0,292.46,172.615Z" transform="translate(-260.503 -148.873)" fill="#fff"/>
      <path id="Path_3373" data-name="Path 3373" d="M292.756,175.866a1.318,1.318,0,0,0-.995-.252c-1.18,1.68-1.933,4.284-2.661,7.292a50.04,50.04,0,0,0,1.4,5.9,47.416,47.416,0,0,1,2.294-5.236,31.231,31.231,0,0,1-.043-7.706Z" transform="translate(-258.743 -150.9)" fill="#fff"/>
      <path id="Path_3374" data-name="Path 3374" d="M299.522,153.63l-3.441,2.818a7.555,7.555,0,0,1,.414,1.457c1.333.1,3.189-1.252,3.275-2.47a5.007,5.007,0,0,0-.248-1.8Z" transform="translate(-262.4 -139.389)" opacity="0.2"/>
      <path id="Path_3375" data-name="Path 3375" d="M288.565,132.56c-1.9,1.1-.919,2.2-.919,2.2s-.814,2.19.267,3.7C292.978,132.4,288.565,132.56,288.565,132.56Z" transform="translate(-257.827 -128.348)" fill="#263238"/>
      <path id="Path_3376" data-name="Path 3376" d="M298.231,135.892c-.538,3.7-.666,5.9-2.7,7.64-3.075,2.613-7.53.476-8.092-3.332-.524-3.418.443-8.9,4.217-10.048a5.16,5.16,0,0,1,6.578,5.741Z" transform="translate(-257.801 -126.972)" fill="#ffc3bd"/>
      <path id="Path_3377" data-name="Path 3377" d="M294.507,134.944c-2.38.248-1.937-3.67-1.123-4.441-2.323.043-1.875-1.509-1.59-2.08-3.87.814-6.607.985-8.354-.952-1.295-1.428-2.67.171-3.08-1.323.952.509,2.67-2.037,3.832-.981s2.318-2.637,4.075-1.057c2.38,2.118,8.625-3.651,8.054,2.708,3.261,2.747-1.123,4.484-.838,7.4C294.588,135.558,294.507,134.944,294.507,134.944Z" transform="translate(-254.163 -123.711)" fill="#263238"/>
      <path id="Path_3378" data-name="Path 3378" d="M311,128.1a.243.243,0,0,1-.238-.2.238.238,0,0,1,.2-.267,3.394,3.394,0,0,0,1.9-1.323,1.585,1.585,0,0,0,.233-1.352.243.243,0,0,1,.167-.3.233.233,0,0,1,.29.162,2.085,2.085,0,0,1-.29,1.742,3.808,3.808,0,0,1-2.247,1.538Z" transform="translate(-270.09 -124.203)" fill="#263238"/>
      <path id="Path_3379" data-name="Path 3379" d="M309.225,146.135a3.246,3.246,0,0,1-1.8,1.7c-1.066.4-1.709-.533-1.5-1.595.19-.952.952-2.3,2.085-2.247a1.471,1.471,0,0,1,1.214,2.137Z" transform="translate(-267.539 -134.341)" fill="#ffc3bd"/>
      <path id="Path_3380" data-name="Path 3380" d="M297.795,142.089c-.029.3-.209.538-.4.519s-.343-.281-.314-.585.2-.533.4-.514S297.819,141.79,297.795,142.089Z" transform="translate(-262.92 -133.037)" fill="#263238"/>
      <path id="Path_3381" data-name="Path 3381" d="M290.2,141.9c-.029.3-.209.533-.4.514s-.343-.276-.314-.581.2-.533.4-.519S290.2,141.6,290.2,141.9Z" transform="translate(-258.943 -132.938)" fill="#263238"/>
      <path id="Path_3382" data-name="Path 3382" d="M291.426,143.4a10.6,10.6,0,0,1-1.666,2.461,1.766,1.766,0,0,0,1.428.409Z" transform="translate(-259.089 -134.028)" fill="#ed847e"/>
      <path id="Path_3383" data-name="Path 3383" d="M299.834,139.343a.19.19,0,0,0,.09,0,.181.181,0,0,0,.1-.233,1.8,1.8,0,0,0-1.209-1.1.176.176,0,0,0-.209.138.181.181,0,0,0,.138.214h0a1.428,1.428,0,0,1,.952.885.186.186,0,0,0,.138.1Z" transform="translate(-263.722 -131.2)" fill="#263238"/>
      <path id="Path_3384" data-name="Path 3384" d="M288.037,139.361a.181.181,0,0,0,.167-.029,1.4,1.4,0,0,1,1.261-.247.176.176,0,0,0,.229-.109.181.181,0,0,0-.1-.228,1.771,1.771,0,0,0-1.6.3.181.181,0,0,0-.038.252.219.219,0,0,0,.086.062Z" transform="translate(-258.122 -131.551)" fill="#263238"/>
      <path id="Path_3385" data-name="Path 3385" d="M303.3,169.46h0c-.062.1-.738,1.138-1.695,2.718a7.526,7.526,0,0,1-3.451,1.809,5.6,5.6,0,0,0-1.009-3.451A16.88,16.88,0,0,0,303.3,169.46Z" transform="translate(-262.961 -147.684)" fill="#263f97"/>
      <path id="Path_3386" data-name="Path 3386" d="M303.3,169.46h0c-.062.1-.738,1.138-1.695,2.718a7.526,7.526,0,0,1-3.451,1.809,5.6,5.6,0,0,0-1.009-3.451A16.88,16.88,0,0,0,303.3,169.46Z" transform="translate(-262.961 -147.684)" fill="#fff" opacity="0.3"/>
      <path id="Path_3387" data-name="Path 3387" d="M292.619,170.677a5.493,5.493,0,0,0-2.966,3.156,2.033,2.033,0,0,1-1.123-1.233,5.327,5.327,0,0,1,1.261-2.88A4.015,4.015,0,0,0,292.619,170.677Z" transform="translate(-258.444 -147.82)" fill="#263f97"/>
      <path id="Path_3388" data-name="Path 3388" d="M292.619,170.677a5.493,5.493,0,0,0-2.966,3.156,2.033,2.033,0,0,1-1.123-1.233,5.327,5.327,0,0,1,1.261-2.88A4.015,4.015,0,0,0,292.619,170.677Z" transform="translate(-258.444 -147.82)" fill="#fff" opacity="0.3"/>
      <path id="Path_3389" data-name="Path 3389" d="M319.394,173.32c.952,1.085,1.766,2.128,2.594,3.237s1.609,2.228,2.351,3.413a37.038,37.038,0,0,1,2.123,3.737,22.426,22.426,0,0,1,.928,2.123,13.244,13.244,0,0,1,.709,2.632l.038.233a2.856,2.856,0,0,1-.138,1.428,13.928,13.928,0,0,1-2.3,3.96,17.858,17.858,0,0,1-1.376,1.533c-.476.476-.952.952-1.428,1.357a30.545,30.545,0,0,1-3.08,2.309,27.472,27.472,0,0,1-3.332,1.9,1.9,1.9,0,0,1-2.252-3.037l.086-.09c.738-.8,1.552-1.661,2.285-2.5s1.466-1.7,2.118-2.566a21.838,21.838,0,0,0,1.733-2.58,8.634,8.634,0,0,0,.952-2.347l-.1,1.642a8.956,8.956,0,0,0-.476-1.119,15.581,15.581,0,0,0-.79-1.428c-.314-.476-.614-.985-.952-1.48s-.676-1-1.033-1.5c-.719-.995-1.461-2-2.228-3l-2.285-2.946-.048-.062a3.808,3.808,0,1,1,5.874-4.846Z" transform="translate(-271.067 -148.983)" fill="#263238"/>
      <path id="Path_3390" data-name="Path 3390" d="M310.572,229.1a.866.866,0,0,0-.176-.571l-1.038-1.428a.885.885,0,0,0-.885-.352l-1.476.276a10.163,10.163,0,0,0-3.975,1.69l-.39.276a1.48,1.48,0,0,0-.333,2.09l1.08,1.461a1.48,1.48,0,0,0,1.866.438l1.9-.981S310.463,230.96,310.572,229.1Z" transform="translate(-265.506 -177.696)" fill="#ffc3bd"/>
      <path id="Path_3391" data-name="Path 3391" d="M315.93,225.665a6.911,6.911,0,0,0-2.08.043c-.424,1.09,1.376,4.37,2.3,4.941a8.212,8.212,0,0,0,1.933-1.29C317.292,228.307,316.473,226.47,315.93,225.665Z" transform="translate(-271.678 -177.104)" fill="#263f97"/>
      <path id="Path_3392" data-name="Path 3392" d="M236.357,171.7a6.845,6.845,0,0,0-.271-2.061c-1.128-.3-4.189,1.847-4.655,2.827a8.172,8.172,0,0,0,1.495,1.78C233.886,173.342,235.619,172.323,236.357,171.7Z" transform="translate(-228.524 -147.762)" fill="#263f97"/>
      <path id="Path_3393" data-name="Path 3393" d="M351.995,400.964l4.4-2.451-1-2.723L350.5,399.1Z" transform="translate(-290.916 -266.28)" fill="#263f97"/>
      <path id="Path_3394" data-name="Path 3394" d="M286.648,280.463c1.047-17.393,3.056-29.036,2.218-37.6l-14.647-.219s1.485,27.608,2.38,39.089,5.845,39.87,5.845,39.87h4.532S288.238,293.925,286.648,280.463Z" transform="translate(-250.946 -186.03)" fill="#263238"/>
      <path id="Path_3395" data-name="Path 3395" d="M275.741,410.656s7.364-1.59,7.83-2.656h3.756l.119,3.96h-3.061l-.371-.362-.571.362c-1.871,0-6.778-.071-7.968-.476a.838.838,0,0,1,.267-.828Z" transform="translate(-251.591 -272.678)" fill="#263238"/>
      <path id="Path_3396" data-name="Path 3396" d="M290.386,405.818l5.046.138.233-2.856-5.855.352Z" transform="translate(-259.115 -270.11)" fill="#263f97"/>
      <path id="Path_3397" data-name="Path 3397" d="M294.973,150.576a3.511,3.511,0,0,1-.581-.029.1.1,0,0,1-.076-.119.1.1,0,0,1,.119-.086,2.946,2.946,0,0,0,2.423-.757.1.1,0,1,1,.143.133A3.075,3.075,0,0,1,294.973,150.576Z" transform="translate(-261.474 -137.244)" fill="#263238"/>
    </g>
    <g id="freepik--Graphic--inject-133" transform="translate(49.028 59.602)">
      <rect id="Rectangle_17637" data-name="Rectangle 17637" width="3.941" height="0.476" transform="translate(116.84 117.146)" fill="#263f97"/>
      <rect id="Rectangle_17638" data-name="Rectangle 17638" width="8.854" height="0.476" transform="translate(123.699 117.146)" fill="#263f97"/>
      <path id="Path_3398" data-name="Path 3398" d="M316.794,270.25H261.577l-8.9,16.446a1.095,1.095,0,0,0,.952,1.614h63.166l4.512-9.044Z" transform="translate(-181.361 -172.392)" fill="#263f97"/>
      <path id="Path_3399" data-name="Path 3399" d="M252.408,82.9a39.984,39.984,0,0,1,36.262,37.571,1.09,1.09,0,0,0,1.58.923l6.707-3.332a1.756,1.756,0,0,1,1.614,0l6.583,3.289a1.095,1.095,0,0,0,1.585-1.028A58.039,58.039,0,0,0,252.27,64.79l-4.46,8.92Z" transform="translate(-178.88 -64.732)" fill="#263f97"/>
      <path id="Path_3400" data-name="Path 3400" d="M252.408,82.9a39.984,39.984,0,0,1,36.262,37.571,1.09,1.09,0,0,0,1.58.923l6.707-3.332a1.756,1.756,0,0,1,1.614,0l6.583,3.289a1.095,1.095,0,0,0,1.585-1.028A58.039,58.039,0,0,0,252.27,64.79l-4.46,8.92Z" transform="translate(-178.88 -64.732)" fill="#fff" opacity="0.6"/>
      <path id="Path_3401" data-name="Path 3401" d="M146.407,119a39.984,39.984,0,0,1,37.576-36.262,1.095,1.095,0,0,0,.919-1.58l-3.356-6.707a1.823,1.823,0,0,1,0-1.618l3.294-6.578a1.1,1.1,0,0,0-1.033-1.585,58.072,58.072,0,0,0-55.516,54.46l8.906,4.46Z" transform="translate(-116.252 -64.668)" fill="#263f97"/>
      <path id="Path_3402" data-name="Path 3402" d="M146.407,119a39.984,39.984,0,0,1,37.576-36.262,1.095,1.095,0,0,0,.919-1.58l-3.356-6.707a1.823,1.823,0,0,1,0-1.618l3.294-6.578a1.1,1.1,0,0,0-1.033-1.585,58.072,58.072,0,0,0-55.516,54.46l8.906,4.46Z" transform="translate(-116.252 -64.668)" fill="#fff" opacity="0.4"/>
      <path id="Path_3403" data-name="Path 3403" d="M169.317,227.423h0a39.984,39.984,0,0,1-36.267-37.566,1.09,1.09,0,0,0-1.576-.923l-6.7,3.332a1.813,1.813,0,0,1-.814.2,1.79,1.79,0,0,1-.8-.2l-6.588-3.289A1.1,1.1,0,0,0,114.981,190,57.782,57.782,0,0,0,130.9,227.566H103l4.57,9.144-4.408,8.839H169.45l4.474-8.935Z" transform="translate(-103 -129.723)" fill="#263f97"/>
      <path id="Path_3404" data-name="Path 3404" d="M169.317,227.423h0a39.984,39.984,0,0,1-36.267-37.566,1.09,1.09,0,0,0-1.576-.923l-6.7,3.332a1.813,1.813,0,0,1-.814.2,1.79,1.79,0,0,1-.8-.2l-6.588-3.289A1.1,1.1,0,0,0,114.981,190,57.782,57.782,0,0,0,130.9,227.566H103l4.57,9.144-4.408,8.839H169.45l4.474-8.935Z" transform="translate(-103 -129.723)" fill="#fff" opacity="0.2"/>
      <path id="Path_3405" data-name="Path 3405" d="M290.939,188.883h0a39.984,39.984,0,0,1-37.571,36.257,1.095,1.095,0,0,0-.923,1.58l3.332,6.707a1.814,1.814,0,0,1,0,1.614l-3.289,6.583a1.095,1.095,0,0,0,1.028,1.585,58.039,58.039,0,0,0,55.535-54.46l-8.92-4.46Z" transform="translate(-181.248 -127.349)" fill="#263f97"/>
      <path id="Path_3406" data-name="Path 3406" d="M290.939,188.883h0a39.984,39.984,0,0,1-37.571,36.257,1.095,1.095,0,0,0-.923,1.58l3.332,6.707a1.814,1.814,0,0,1,0,1.614l-3.289,6.583a1.095,1.095,0,0,0,1.028,1.585,58.039,58.039,0,0,0,55.535-54.46l-8.92-4.46Z" transform="translate(-181.248 -127.349)" fill="#fff" opacity="0.8"/>
    </g>
    <g id="freepik--character-1--inject-133" transform="translate(52.857 93.442)">
      <path id="Path_3407" data-name="Path 3407" d="M199.92,163.767l-2.6-7.449-3.96.367a18.844,18.844,0,0,0-3.332-3.737l.814-3.894-7.126-3.427-2.542,3.061a18.7,18.7,0,0,0-5.008-.286l-2.175-3.332-7.449,2.6.367,3.96a18.843,18.843,0,0,0-3.737,3.332l-3.9-.814-3.427,7.112,3.065,2.542a18.7,18.7,0,0,0-.286,5.008l-3.332,2.175,2.6,7.449,3.956-.367a18.913,18.913,0,0,0,3.332,3.741l-.814,3.894,7.112,3.427,2.542-3.065a18.664,18.664,0,0,0,5,.286l2.18,3.332,7.449-2.6-.367-3.956a19.041,19.041,0,0,0,3.737-3.332l3.894.814,3.427-7.112-3.061-2.537a18.707,18.707,0,0,0,.286-5.008Zm-19.44,11.824a8.692,8.692,0,1,1,5.336-11.072A8.692,8.692,0,0,1,180.48,175.591Z" transform="translate(-134.228 -140.638)" fill="#263f97"/>
      <path id="Path_3408" data-name="Path 3408" d="M137.9,190.643c-.224.352-.476.814-.757,1.228s-.5.866-.747,1.309c-.476.881-.952,1.775-1.4,2.685a54.276,54.276,0,0,0-2.38,5.579c-.3.752,0,.3-.347-.167-.162-.2-.267-.19-.209-.157a1.028,1.028,0,0,0,.343.119,10.472,10.472,0,0,0,2.68.1c1.975-.119,4.065-.419,6.093-.747h.01a1.066,1.066,0,0,1,.571,2.042,34.275,34.275,0,0,1-6.283,1.937c-.552.1-1.119.2-1.714.252a9.236,9.236,0,0,1-1.9,0,5.169,5.169,0,0,1-1.19-.271,3.18,3.18,0,0,1-1.471-1.076,2.856,2.856,0,0,1-.476-1.047,3.232,3.232,0,0,1-.067-1,4,4,0,0,1,.143-.752l.114-.4a43.364,43.364,0,0,1,2.247-6.212c.447-1,.952-1.994,1.471-2.961q.4-.728.828-1.428a16.9,16.9,0,0,1,.952-1.428,2.142,2.142,0,0,1,3.556,2.38Z" transform="translate(-120.265 -162.806)" fill="#7f3e3b"/>
      <path id="Path_3409" data-name="Path 3409" d="M157.791,215.342l-.995.823a1.49,1.49,0,0,1-1.342.3l-2.194-.576a2.8,2.8,0,0,1-1.9-1.723l-.2-.524a9.56,9.56,0,0,1,4.317-1.942l.776-.214a1.247,1.247,0,0,1,1.571.833l.476,1.528A1.428,1.428,0,0,1,157.791,215.342Z" transform="translate(-132.064 -175.409)" fill="#7f3e3b"/>
      <path id="Path_3410" data-name="Path 3410" d="M153.65,161.07c.685,2.528,1.523,7.14-.119,8.844,0,0-1.261,2.38,6.188,1.985,5.236-.267,1.661-1.985,1.661-1.985-2.856-.676-2.951-2.766-2.6-4.727Z" transform="translate(-133.264 -149.022)" fill="#7f3e3b"/>
      <path id="Path_3411" data-name="Path 3411" d="M123.339,381.19l-4.831-1.78a84.185,84.185,0,0,1-1.937,9.43l3.389,1.428S122.215,383.461,123.339,381.19Z" transform="translate(-113.939 -263.431)" fill="#7f3e3b"/>
      <path id="Path_3412" data-name="Path 3412" d="M117.853,405c-2.585-1.9-2.38-1.8-3.808-2.913-1.214-.952-1.614-1.014-2.6-1.771-.823-.628-.267-1.428.6-2.228.328-.3.743-.633,1.214-1.066a.771.771,0,0,1,.981-.048l3.027,2.213a.885.885,0,0,1,.357.709,5.412,5.412,0,0,0,1.771,3.889C120.68,405,118.886,405.754,117.853,405Z" transform="translate(-111.043 -272.553)" fill="#263238"/>
      <path id="Path_3413" data-name="Path 3413" d="M145.631,236s-5.088,26.2-9.044,38.414c-4.141,12.852-10.2,27.1-12.943,35.453-.852.109-3.284-.9-4.474-1.9,0,0,1.814-21.9,8.021-33.225-.619-33.054,5.664-38.737,5.664-38.737Z" transform="translate(-115.301 -188.285)" fill="#263f97"/>
      <path id="Path_3414" data-name="Path 3414" d="M145.631,236s-5.088,26.2-9.044,38.414c-4.141,12.852-10.2,27.1-12.943,35.453-.852.109-3.284-.9-4.474-1.9,0,0,1.814-21.9,8.021-33.225-.619-33.054,5.664-38.737,5.664-38.737Z" transform="translate(-115.301 -188.285)" opacity="0.3"/>
      <path id="Path_3415" data-name="Path 3415" d="M154.1,256.6l5.236,10c-1.2,5.236-2.532,10.7-3.808,15.132C151.732,271.071,154.1,256.6,154.1,256.6Z" transform="translate(-133.222 -199.079)" opacity="0.2"/>
      <path id="Path_3416" data-name="Path 3416" d="M124.081,384.869a10.949,10.949,0,0,0-.343,1.742.333.333,0,0,1-.443.281,22.984,22.984,0,0,1-5.079-2.38.428.428,0,0,1-.209-.414l.214-1.676a.338.338,0,0,1,.476-.247l5.1,2.209a.433.433,0,0,1,.281.486Z" transform="translate(-114.691 -264.863)" fill="#263238"/>
      <path id="Path_3417" data-name="Path 3417" d="M178.541,387.86l-4.641.343c.762,3.7,1.557,9.549,1.557,9.549h3.684S178.484,390.4,178.541,387.86Z" transform="translate(-143.98 -267.859)" fill="#7f3e3b"/>
      <path id="Path_3418" data-name="Path 3418" d="M183.43,411.536c-3.2,0-2.975-.048-4.76-.11-1.542-.052-1.9.138-3.151.11-1.033,0-.995-1.009-.671-2.152.119-.438.3-.952.476-1.576a.833.833,0,0,1,.8-.619h3.751a.8.8,0,0,1,.681.357,4.922,4.922,0,0,0,3.57,2.09C185.834,409.87,184.71,411.536,183.43,411.536Z" transform="translate(-144.37 -277.988)" fill="#263238"/>
      <path id="Path_3419" data-name="Path 3419" d="M166.464,236s.581,22.848,1.1,37.057-.6,39.356-.6,39.356c-.1.69-3.727.414-4.341,0,0,0-6.926-20.373-4.284-38-9.273-22.848-6.6-37.852-6.6-37.852Z" transform="translate(-132.183 -188.285)" fill="#263f97"/>
      <path id="Path_3420" data-name="Path 3420" d="M166.464,236s.581,22.848,1.1,37.057-.6,39.356-.6,39.356c-.1.69-3.727.414-4.341,0,0,0-6.926-20.373-4.284-38-9.273-22.848-6.6-37.852-6.6-37.852Z" transform="translate(-132.183 -188.285)" opacity="0.3"/>
      <path id="Path_3421" data-name="Path 3421" d="M178.888,392.05c0,.476.043,1.309.086,1.9a.39.39,0,0,1-.343.409,25.8,25.8,0,0,1-4.793-.052.347.347,0,0,1-.314-.286l-.324-1.68a.39.39,0,0,1,.371-.476l4.946-.2a.352.352,0,0,1,.371.381Z" transform="translate(-143.608 -269.855)" fill="#263238"/>
      <path id="Path_3422" data-name="Path 3422" d="M149.276,227.136a33.367,33.367,0,0,1-.476,3.984h16.137l.171-4.108S152.656,226.308,149.276,227.136Z" transform="translate(-130.827 -183.429)" fill="#7f3e3b"/>
      <path id="Path_3423" data-name="Path 3423" d="M162.362,185.534a68.544,68.544,0,0,1-.114,7.445c-.133,3.237.476,4.027,0,9.33-1.771,1.033-13.419.995-19.145.252.347-4.584.771-7.673-2.332-17.988a3.823,3.823,0,0,1,3.451-4.936c.685-.062,1.428-.119,2.156-.152a58.452,58.452,0,0,1,7.859,0c.852.071,1.737.176,2.585.286A6.28,6.28,0,0,1,162.362,185.534Z" transform="translate(-126.53 -158.602)" fill="#263238"/>
      <path id="Path_3424" data-name="Path 3424" d="M228.347,215.292l-.643-1.119a1.518,1.518,0,0,0-1.161-.743l-2.256-.214a2.8,2.8,0,0,0-2.38.952l-.367.428a9.964,9.964,0,0,0,3.389,3.332l.652.476a1.252,1.252,0,0,0,1.761-.238l.952-1.28a1.428,1.428,0,0,0,.052-1.595Z" transform="translate(-168.943 -176.34)" fill="#7f3e3b"/>
      <path id="Path_3425" data-name="Path 3425" d="M184.882,193.414l.209.324c.09.138.176.281.281.424.2.286.424.566.652.847a21.835,21.835,0,0,0,1.5,1.628c.538.519,1.1,1.023,1.7,1.5s1.219.952,1.852,1.371l-.371-.171a27.564,27.564,0,0,0,2.675.819c.952.243,1.9.476,2.856.714l2.918.695c.976.238,1.956.476,2.927.709h0a1.066,1.066,0,0,1-.262,2.1c-1.033,0-2.047-.048-3.065-.1s-2.037-.138-3.061-.233-2.042-.219-3.07-.381a23.766,23.766,0,0,1-3.189-.671,1.3,1.3,0,0,1-.276-.114l-.1-.057c-.386-.224-.776-.438-1.161-.666s-.766-.476-1.133-.738a20.569,20.569,0,0,1-2.152-1.676,18.682,18.682,0,0,1-1.942-1.985c-.3-.362-.59-.733-.866-1.133-.138-.2-.276-.4-.4-.619-.067-.109-.129-.214-.2-.338s-.119-.209-.219-.419a2.133,2.133,0,0,1,3.722-2.071Z" transform="translate(-147.579 -165.325)" fill="#7f3e3b"/>
      <path id="Path_3426" data-name="Path 3426" d="M174.291,180.72c3.142.833,5.836,3.527,9.52,8.844-.514,2.171-5.236,4.679-5.236,4.679S168.741,184.447,174.291,180.72Z" transform="translate(-143.295 -159.318)" fill="#263238"/>
      <path id="Path_3427" data-name="Path 3427" d="M171.088,150.42c.114.328.386.543.6.476s.29-.376.171-.7-.386-.547-.6-.476S170.969,150.091,171.088,150.42Z" transform="translate(-142.477 -143.065)" fill="#263238"/>
      <path id="Path_3428" data-name="Path 3428" d="M171.33,149.327l.7-.447S171.849,149.608,171.33,149.327Z" transform="translate(-142.633 -142.634)" fill="#263238"/>
      <path id="Path_3429" data-name="Path 3429" d="M171.67,152.5a10.277,10.277,0,0,0,1.9,1.766,1.38,1.38,0,0,1-1.085.547Z" transform="translate(-142.811 -144.531)" fill="#630f0f"/>
      <path id="Path_3430" data-name="Path 3430" d="M167.956,144.715a.176.176,0,0,0,.119-.081.2.2,0,0,0-.076-.276,2.156,2.156,0,0,0-1.88-.214.186.186,0,0,0-.086.262.219.219,0,0,0,.276.1,1.709,1.709,0,0,1,1.485.186.219.219,0,0,0,.162.024Z" transform="translate(-139.845 -140.087)" fill="#263238"/>
      <path id="Path_3431" data-name="Path 3431" d="M146.964,146.9c1.571,3.846,2.152,5.5,4.827,6.954,4.022,2.18,8.425-.309,8.04-4.479-.343-3.751-2.856-9.406-7.245-9.887a5.322,5.322,0,0,0-5.622,7.411Z" transform="translate(-129.629 -137.687)" fill="#7f3e3b"/>
      <path id="Path_3432" data-name="Path 3432" d="M152.75,144.884c1.29,2.827,1.123,10.843-6.079,8.359s-6.7-6.393-4.76-9.52c-3.908-3.5,1.142-6.274,5.783-7.535S156.41,136.059,152.75,144.884Z" transform="translate(-126.485 -135.759)" fill="#263238"/>
      <path id="Path_3433" data-name="Path 3433" d="M144.7,151.722a3.075,3.075,0,1,1-3.627-2.38A3.075,3.075,0,0,1,144.7,151.722Z" transform="translate(-125.492 -142.844)" fill="#263f97"/>
      <path id="Path_3434" data-name="Path 3434" d="M130.733,152.92c1.428-2.856.267-6.407-1.947-8.7-4.189-4.346-10-1.49-8.378,2.808,1.9,5.127-8.13,10.4-2.28,13.433,5.712,2.975,15.232-2.271,12.557-7.435C130.7,152.977,130.719,152.977,130.733,152.92Z" transform="translate(-113.784 -139.058)" fill="#263238"/>
      <path id="Path_3435" data-name="Path 3435" d="M162.495,152.536a2.856,2.856,0,0,0,1.9,1.333c.952.152,1.266-.952.843-2.018-.386-.952-1.352-2.166-2.251-1.833A1.7,1.7,0,0,0,162.495,152.536Z" transform="translate(-137.829 -143.201)" fill="#7f3e3b"/>
      <path id="Path_3436" data-name="Path 3436" d="M140.965,180c-2.818.433-3.946,1.29-6.245,6.95,1.042,2.109,5.931,4.132,5.931,4.132S143.9,183.77,140.965,180Z" transform="translate(-123.449 -158.941)" fill="#263238"/>
      <path id="Path_3437" data-name="Path 3437" d="M163.631,236.547a77.63,77.63,0,0,1-17.369-.038.4.4,0,0,1-.3-.552c.143-.333.281-.666.419-1a.371.371,0,0,1,.376-.228,76.2,76.2,0,0,0,16.7,0,.376.376,0,0,1,.4.347c.033.348.071.69.1,1.038A.39.39,0,0,1,163.631,236.547Z" transform="translate(-129.322 -187.618)" fill="#263238"/>
    </g>
  </g>
</svg>
