<svg xmlns="http://www.w3.org/2000/svg" width="88" height="68" viewBox="0 0 88 68">
  <g id="esy" transform="translate(-6166 -19093)">
    <rect id="Rectangle_17709" data-name="Rectangle 17709" width="88" height="68" rx="5" transform="translate(6166 19093)" fill="#fff" opacity="0"/>
    <g id="Layer_2" data-name="Layer 2" transform="translate(6184.698 19104.852)">
      <g id="Layer_1" data-name="Layer 1" transform="translate(2.302 1.148)">
        <path id="Path_3609" data-name="Path 3609" d="M35.86,2.9l-.228.188c-.067,0-.087,0-.087.08l-.148.148a.228.228,0,0,0-.221.235l-.4.3c-.194.154-.362.563-.57,0-.087-.255-.456-.127-.671-.127h-18.8c-.852,0-.845-.194-.852.832V25.069c0,.557.127.751.718.744H33.634c.523,0,.671-.134.671-.671V16.1a1.288,1.288,0,0,1,.443-1.04c.946-.872,1.871-1.764,2.8-2.642.215.154.154.315.154.449V25.74a3.541,3.541,0,0,1-3.722,3.7H14.2A3.588,3.588,0,0,1,10.57,25.8V3.762A3.689,3.689,0,0,1,14.211,0C20.918.074,27.544,0,34.2,0a3.353,3.353,0,0,1,2.542,1.174c.288.309.329.557,0,.845a.751.751,0,0,0-.389.369h0l-.121.141h0l-.141.121h0a.355.355,0,0,0-.235.248Z" transform="translate(-3.466)" fill="#f6960c"/>
        <path id="Path_3610" data-name="Path 3610" d="M22.491,13.007c.215,0,.275.194.376.315,1.214,1.489,2.435,2.971,3.628,4.48.342.429.543.516,1,.074C31.37,14.134,35.287,10.432,39.2,6.7c.335-.322.53-.275.791.054Q41.216,8.339,42.443,9.9c.181.228.168.349-.047.557-2.233,2.1-4.46,4.218-6.707,6.324L27.8,24.267a11.072,11.072,0,0,0-.845.838c-.275.322-.443.235-.671-.054q-3.407-4.218-6.834-8.417c-.262-.315-.282-.516.047-.812.946-.852,1.858-1.744,2.783-2.622Z" transform="translate(-6.326 -2.135)" fill="#f6960b"/>
        <path id="Path_3611" data-name="Path 3611" d="M41.411,55.145V51.791c0-.208-.107-.5.208-.583s.791-.161.892.034c.235.463.423.181.671.074a2.488,2.488,0,0,1,3.461,1.107,3.863,3.863,0,0,1-.476,3.561,2.6,2.6,0,0,1-3.038.583c-.469-.215-.483-.04-.476.322v1.757c0,.583-.335.469-.671.49s-.577-.067-.563-.516C41.431,57.438,41.411,56.291,41.411,55.145Zm1.2-1.227a6.659,6.659,0,0,0,.067.8,1.388,1.388,0,0,0,1.133,1.127,1.3,1.3,0,0,0,1.462-.718,2.6,2.6,0,0,0,.215-2.227,1.408,1.408,0,0,0-1.207-1.026,1.677,1.677,0,0,0-1.449.932,2.548,2.548,0,0,0-.215,1.1Z" transform="translate(-13.618 -16.796)" fill="#f2a739"/>
        <path id="Path_3612" data-name="Path 3612" d="M-.007,51.843V48.489c0-.362.1-.456.456-.449H3.836c.362,0,.449.121.449.463s-.134.456-.476.443H1.676c-.322,0-.443.074-.429.416a15.291,15.291,0,0,1,0,1.569c0,.342.114.423.429.409H3.621c.342,0,.423.107.416.429s-.054.5-.443.476H1.71c-.335,0-.49.06-.469.436a15.794,15.794,0,0,1,0,1.69c0,.342.114.423.429.416H3.93c.362,0,.516.06.51.469s-.134.443-.476.436H.449c-.409,0-.483-.127-.469-.5C-.007,54.049-.007,52.949-.007,51.843Z" transform="translate(0.022 -15.821)" fill="#0e3c39"/>
        <path id="Path_3613" data-name="Path 3613" d="M18.31,55.277c.5-1.294.952-2.475,1.408-3.655a1.207,1.207,0,0,1,1.274-.349c.134.114,0,.235,0,.335-.852,2.079-1.7,4.158-2.575,6.224a2.106,2.106,0,0,1-2.22,1.375c-.5,0-.476-.315-.483-.671,0-.5.309-.262.51-.235a.832.832,0,0,0,.738-.248,2.072,2.072,0,0,0,.456-2.153c-.57-1.4-1.127-2.817-1.717-4.212-.168-.389-.067-.423.309-.463a.919.919,0,0,1,1.14.785C17.439,53.077,17.888,54.11,18.31,55.277Z" transform="translate(-5.13 -16.861)" fill="#113d3a"/>
        <path id="Path_3614" data-name="Path 3614" d="M9.323,55.875h2.649c.382,0,.49.1.5.49s-.275.369-.53.369H8.109c-.154,0-.369.094-.456-.087a.534.534,0,0,1,.154-.57l2.575-3.353c.121-.161.221-.329.4-.59H8.451c-.288,0-.557.067-.55-.416s.322-.382.583-.382h3.447c.174,0,.4-.114.516.087s-.047.389-.174.557l-2.16,2.837C9.886,55.123,9.638,55.432,9.323,55.875Z" transform="translate(-2.494 -16.896)" fill="#113d3a"/>
        <path id="Path_3615" data-name="Path 3615" d="M26.878,51.069a2.683,2.683,0,0,1,.959.047.738.738,0,0,1,.537,1.04c-.121.248-.288.094-.423.04a2.233,2.233,0,0,0-1.274-.241c-.329.067-.671.134-.724.563s.2.6.53.751c.5.215,1,.423,1.482.671a1.268,1.268,0,0,1,.671,1.308,1.281,1.281,0,0,1-.758,1.2,3.816,3.816,0,0,1-2.931.141c-.51-.161-.342-.671-.262-.966s.382-.094.59,0a2.482,2.482,0,0,0,1.395.282c.349-.06.671-.2.711-.6a.671.671,0,0,0-.51-.7c-.389-.154-.785-.3-1.16-.476a1.5,1.5,0,0,1-1.04-1.663,1.643,1.643,0,0,1,1.536-1.341A3.486,3.486,0,0,1,26.878,51.069Z" transform="translate(-8.084 -16.811)" fill="#f0a539"/>
        <path id="Path_3616" data-name="Path 3616" d="M52.8,56.751a3.353,3.353,0,0,1-1.174-.134A.483.483,0,0,1,51.2,56.1c0-.671.087-.758.711-.483a2.622,2.622,0,0,0,1.274.268.744.744,0,0,0,.744-.557c.087-.355-.168-.583-.449-.744-.51-.288-1.086-.416-1.6-.711a1.489,1.489,0,0,1,.194-2.562,4.38,4.38,0,0,1,2.274-.221c.523.067.671.342.6.812,0,.315-.161.416-.449.282a2.334,2.334,0,0,0-1.274-.241c-.322.04-.624.161-.671.516a.671.671,0,0,0,.429.758c.51.241,1.033.443,1.536.671a1.294,1.294,0,0,1,.718,1.4,1.341,1.341,0,0,1-.879,1.187,3.052,3.052,0,0,1-1.569.275Z" transform="translate(-16.846 -16.806)" fill="#f1a638"/>
        <path id="Path_3617" data-name="Path 3617" d="M37.106,53.986V51.672c0-.543.3-.476.671-.483s.624,0,.61.51v4.5c0,.53-.288.483-.671.49s-.671,0-.61-.523C37.14,55.448,37.106,54.717,37.106,53.986Z" transform="translate(-12.203 -16.858)" fill="#f3a83d"/>
        <path id="Path_3618" data-name="Path 3618" d="M33.848,51.4v3.508c0,.476-.194.557-.6.537s-.671,0-.671-.53q.04-3.534,0-7.076c0-.5.262-.483.59-.463s.671-.107.671.456V51.4Zm-1.006,0v3.441c0,.376.161.449.49.456s.275-.241.275-.449c0-2.26-.107-4.52.067-6.774,0-.255,0-.55-.409-.57s-.423.215-.423.516c.02,1.113.02,2.26.02,3.387Z" transform="translate(-10.715 -15.6)" fill="#f2b055"/>
        <path id="Path_3619" data-name="Path 3619" d="M64.73,57.676c0-.838.235-1.026,1.046-.791a.791.791,0,0,0,.523,0c.543-.181.791,0,.832.557v.818a.172.172,0,0,1-.188.194c-.127,0-.168-.087-.168-.208v-.751c0-.248-.047-.4-.3-.389a.355.355,0,0,0-.335.382v.563c0,.188.087.389-.168.4s-.168-.268-.188-.429a5.255,5.255,0,0,1,0-.563.316.316,0,0,0-.3-.349c-.2-.013-.3.154-.335.315a5.738,5.738,0,0,0-.047.671c0,.134.054.329-.161.342s-.168-.188-.181-.322S64.73,57.823,64.73,57.676Z" transform="translate(-21.303 -18.703)" fill="#25453f"/>
        <path id="Path_3620" data-name="Path 3620" d="M37.641,48.807c-.463,0-.724-.2-.731-.671s.322-.59.718-.6.758.127.765.624S38.07,48.787,37.641,48.807Z" transform="translate(-12.141 -15.656)" fill="#f3a83d"/>
        <path id="Path_3621" data-name="Path 3621" d="M63.265,57.657a.791.791,0,0,1-.912.838c-.55,0-.744-.362-.744-.865a.785.785,0,0,1,.845-.852.765.765,0,0,1,.812.879Zm-.335.047c-.047-.3-.087-.617-.463-.63s-.516.241-.516.57.121.577.49.583S62.876,57.973,62.93,57.7Z" transform="translate(-20.274 -18.698)" fill="#2a4741"/>
        <path id="Path_3622" data-name="Path 3622" d="M60.546,58.2a.671.671,0,0,1-1.113,0,.892.892,0,0,1,.067-1.241.671.671,0,0,1,1.066.121c-.463-.04-.972-.121-.966.523S60.036,58.258,60.546,58.2Z" transform="translate(-19.486 -18.689)" fill="#2a4741"/>
        <path id="Path_3623" data-name="Path 3623" d="M49.05,3.376A.751.751,0,0,1,49.439,3C49.466,3.3,49.345,3.429,49.05,3.376Z" transform="translate(-16.139 -0.988)" fill="#eaf2f0"/>
        <path id="Path_3624" data-name="Path 3624" d="M47.25,5.165a.228.228,0,0,1,.221-.235.235.235,0,0,1-.221.235Z" transform="translate(-15.546 -1.624)" fill="#eaf2f0"/>
        <path id="Path_3625" data-name="Path 3625" d="M48.28,4.192a.355.355,0,0,1,.268-.262.3.3,0,0,1-.268.262Z" transform="translate(-15.885 -1.294)" fill="#eaf2f0"/>
        <path id="Path_3626" data-name="Path 3626" d="M47.81,4.669c0-.06,0-.094.087-.08A.161.161,0,0,1,47.81,4.669Z" transform="translate(-15.731 -1.51)" fill="#eaf2f0"/>
        <path id="Path_3627" data-name="Path 3627" d="M48.67,3.881l.141-.121Z" transform="translate(-16.014 -1.238)" fill="#eaf2f0"/>
        <path id="Path_3628" data-name="Path 3628" d="M48.87,3.7l.121-.141Z" transform="translate(-16.08 -1.172)" fill="#eaf2f0"/>
        <path id="Path_3629" data-name="Path 3629" d="M33,51.489V48.136c0-.3,0-.537.423-.516s.429.322.409.57c-.168,2.26-.054,4.52-.067,6.774,0,.208.134.463-.275.449s-.5-.08-.49-.456C33,53.79,33,52.643,33,51.489Z" transform="translate(-10.853 -15.682)" fill="#f7a12a"/>
      </g>
    </g>
  </g>
</svg>
