<svg width="78" height="71" viewBox="0 0 78 71" fill="none" xmlns="http://www.w3.org/2000/svg">
<path d="M72.1302 33.7058C75.0893 44.0608 63.4975 56.4533 46.2391 61.3852C28.9807 66.3172 12.5912 61.9209 9.63201 51.5658C6.67286 41.2108 4.47809 -4.6831 36.2096 19.0099C48.5732 40.4376 69.171 23.3507 72.1302 33.7058Z" fill="#EDF0F9"/>
<g clip-path="url(#clip0_1715:22665)">
<path d="M33.1903 9.58857C33.0895 9.63263 32.9384 9.73966 32.8629 9.82779C32.7811 9.91593 31.4212 13.3343 29.5074 18.2825C26.0009 27.3417 26.1583 26.8569 26.4856 27.3165C26.7626 27.7068 26.6241 27.6942 31.4275 27.6942C35.1293 27.6942 35.8029 27.7068 35.8029 27.7823C35.8029 27.8327 35.0978 30.7223 34.229 34.21C33.3665 37.6976 32.6552 40.6628 32.6552 40.8013C32.6552 41.4308 33.2343 41.8589 33.845 41.6763C33.9709 41.6386 34.1409 41.5441 34.2101 41.4686C34.399 41.2671 47.5061 20.8511 47.6194 20.5804C47.8019 20.1523 47.5816 19.5857 47.1598 19.4094C46.9898 19.3402 46.2533 19.3213 43.1685 19.3213C41.091 19.3213 39.3913 19.3024 39.3913 19.2835C39.3913 19.2646 40.2411 17.3193 41.2799 14.9649C42.7719 11.5779 43.1685 10.621 43.1685 10.4133C43.1685 10.0922 42.9733 9.77743 42.6649 9.62004C42.4571 9.50673 42.2053 9.50043 37.9118 9.50043C34.2731 9.50673 33.3414 9.51932 33.1903 9.58857Z" fill="#00D849"/>
</g>
<g clip-path="url(#clip1_1715:22665)">
<path d="M16 49.1442V43.1133H58V49.1442C58 52.0648 48.5988 54.4311 36.9981 54.4311C25.3975 54.4311 16 52.0648 16 49.1442Z" fill="#FBC02D"/>
<path d="M19.0818 51.8978V44.04H18.1387V51.4811C18.4254 51.615 18.7423 51.7601 19.0818 51.8978Z" fill="#F9A825"/>
<path d="M21.9119 52.8158V44.0391H20.9688V52.5553C21.2819 52.6446 21.5837 52.7339 21.9119 52.8158Z" fill="#F9A825"/>
<path d="M24.74 53.452V44.0391H23.7969V53.2511C24.1025 53.3143 24.4193 53.3738 24.74 53.452Z" fill="#F9A825"/>
<path d="M27.5701 53.8649V44.0391H26.627V53.7384L27.5701 53.8649Z" fill="#F9A825"/>
<path d="M30.4002 54.1589V44.0391H29.457V54.0844C29.7664 54.1068 30.0795 54.1328 30.4002 54.1589Z" fill="#F9A825"/>
<path d="M33.2283 54.3412V44.0391H32.2852V54.2928L33.2283 54.3412Z" fill="#F9A825"/>
<path d="M36.0584 54.4193V44.0391H35.1152V54.4044C35.4284 54.4119 35.7415 54.4193 36.0584 54.4193Z" fill="#F9A825"/>
<path d="M37.9453 54.4193C38.2622 54.4193 38.5753 54.4193 38.8885 54.4193V44.0391H37.9453V54.4193Z" fill="#F9A825"/>
<path d="M40.7734 54.3412L41.7166 54.2928V44.0391H40.7734V54.3412Z" fill="#F9A825"/>
<path d="M43.6035 54.1593C43.9242 54.1332 44.2373 54.1072 44.5467 54.0737V44.0283H43.6035V54.1593Z" fill="#F9A825"/>
<path d="M46.4336 53.8649L47.3767 53.7384V44.0391H46.4336V53.8649Z" fill="#F9A825"/>
<path d="M49.2617 53.452C49.5824 53.3924 49.8993 53.3329 50.2049 53.2697V44.0391H49.2617V53.452Z" fill="#F9A825"/>
<path d="M52.0918 52.8158C52.42 52.7339 52.7331 52.6446 53.0349 52.5553V44.0391H52.0918V52.8158Z" fill="#F9A825"/>
<path d="M54.9219 51.897C55.2614 51.7594 55.5783 51.6143 55.865 51.4654V44.0244H54.9219V51.897Z" fill="#F9A825"/>
<path style="mix-blend-mode:multiply" d="M16 49.1442V43.1133H58V49.1442C58 52.0648 48.5988 54.4311 36.9981 54.4311C25.3975 54.4311 16 52.0648 16 49.1442Z" fill="url(#paint0_linear_1715:22665)"/>
<path d="M37.0019 48.3999C48.6009 48.3999 58.0038 46.0329 58.0038 43.113C58.0038 40.1932 48.6009 37.8262 37.0019 37.8262C25.4029 37.8262 16 40.1932 16 43.113C16 46.0329 25.4029 48.3999 37.0019 48.3999Z" fill="#FDD835"/>
<path d="M37.001 47.068C47.5791 47.068 56.1543 45.3323 56.1543 43.1912C56.1543 41.0501 47.5791 39.3145 37.001 39.3145C26.4229 39.3145 17.8477 41.0501 17.8477 43.1912C17.8477 45.3323 26.4229 47.068 37.001 47.068Z" fill="#FBC02D"/>
<path style="mix-blend-mode:multiply" d="M37.001 47.068C47.5791 47.068 56.1543 45.3323 56.1543 43.1912C56.1543 41.0501 47.5791 39.3145 37.001 39.3145C26.4229 39.3145 17.8477 41.0501 17.8477 43.1912C17.8477 45.3323 26.4229 47.068 37.001 47.068Z" fill="url(#paint1_linear_1715:22665)"/>
<path d="M37.8352 42.2348C37.8352 41.8628 36.7034 41.7251 34.6097 41.7251H31.0898V41.0703H44.2938V41.7288H41.0607C41.4281 41.8001 41.7656 41.9775 42.0303 42.2386H44.2938V42.8971H42.0303C41.7209 43.6412 38.8462 44.0616 35.583 44.0579L44.524 46.1079V46.4799H39.9969L31.0898 44.0504V43.4068H34.621C36.7336 43.4068 37.8465 43.284 37.8465 42.9008H31.0898V42.2348H37.8352Z" fill="#EA8F0C"/>
<path d="M37.8352 41.8589C37.8352 41.4868 36.7034 41.3491 34.6097 41.3491H31.0898V40.6943H44.2938V41.3491H41.0607C41.4281 41.4204 41.7656 41.5978 42.0303 41.8589H44.2938V42.5174H42.0303C41.7209 43.2615 38.8462 43.6819 35.583 43.6782L44.524 46.104H39.9969L31.0898 43.6745V43.0345H34.621C36.7336 43.0345 37.8465 42.9118 37.8465 42.5285H31.0898V41.8551L37.8352 41.8589Z" fill="#FDD835"/>
<path style="mix-blend-mode:multiply" d="M37.0009 40.0586C27.0375 40.0586 18.8548 41.5914 17.9343 43.5596C17.8767 43.4436 17.8458 43.3166 17.8438 43.1875C17.8475 41.0482 26.4226 39.3145 37.0009 39.3145C47.5791 39.3145 56.1542 41.0482 56.1542 43.1912C56.1521 43.3203 56.1212 43.4473 56.0636 43.5633C55.1431 41.5914 46.9604 40.0586 37.0009 40.0586Z" fill="url(#paint2_radial_1715:22665)"/>
</g>
<defs>
<linearGradient id="paint0_linear_1715:22665" x1="37.1075" y1="46.5696" x2="56.2065" y2="65.6868" gradientUnits="userSpaceOnUse">
<stop offset="0.02" stop-color="white" stop-opacity="0"/>
<stop offset="1" stop-color="#F9A825"/>
</linearGradient>
<linearGradient id="paint1_linear_1715:22665" x1="106.829" y1="-9275.82" x2="1071.19" y2="-9275.82" gradientUnits="userSpaceOnUse">
<stop offset="0.02" stop-color="white" stop-opacity="0"/>
<stop offset="1" stop-color="#F9A825"/>
</linearGradient>
<radialGradient id="paint2_radial_1715:22665" cx="0" cy="0" r="1" gradientUnits="userSpaceOnUse" gradientTransform="translate(305.985 -9454.71) rotate(90) scale(940.767 227.425)">
<stop offset="0.02" stop-color="white" stop-opacity="0"/>
<stop offset="1" stop-color="#F9A825"/>
</radialGradient>
<clipPath id="clip0_1715:22665">
<rect width="32.2326" height="32.2326" fill="white" transform="translate(20.8828 9.5)"/>
</clipPath>
<clipPath id="clip1_1715:22665">
<rect width="42" height="16.6047" fill="white" transform="translate(16 37.8262)"/>
</clipPath>
</defs>
</svg>
