<svg xmlns="http://www.w3.org/2000/svg" width="88" height="68" viewBox="0 0 88 68">
  <g id="hippo" transform="translate(-6177 -19539)">
    <rect id="Rectangle_17695" data-name="Rectangle 17695" width="88" height="68" rx="5" transform="translate(6177 19539)" fill="#fff" opacity="0"/>
    <g id="Layer_2" data-name="Layer 2" transform="translate(6189 19549)">
      <g id="Layer_1" data-name="Layer 1" transform="translate(0 0)">
        <path id="Path_3713" data-name="Path 3713" d="M243.205,142.3l.4-.046c1.241.211,1.238.211,1.273,1.559a5.633,5.633,0,0,0,.093.661l-.041,2.278c-.061.119-.17.236-.17.359a36.315,36.315,0,0,1-.17,3.674c-.048.33-.031.7.442.758l.022.014a5.788,5.788,0,0,1,1.579,2.519v.5a1.166,1.166,0,0,0-.311,1.11c-.029.267-.236.416-.394.6-1.663.318-3.245,1.008-4.971,1.044a.984.984,0,0,0-.821.34l-.411.039c-.68-.088-1.385-.275-1.969.3l-.41.043a3.5,3.5,0,0,0-2.48.3,6.908,6.908,0,0,1-2.178,0,1.4,1.4,0,0,0-1.29-.33.071.071,0,0,1-.093-.056l.194-.559.34-.049a2.522,2.522,0,0,0,2.21-.294l.5-.056c.712.122,1.436.34,2.05-.277l.5-.058a2.356,2.356,0,0,0,2.21-.3l.34-.041c.716.129,1.443.34,2.048-.292l.34-.042c.665.143,1.331.306,1.87-.3l.331-.048c.447.238.716.073.85-.379.039-.182.408-.262.17-.53l-.017-1.02a.265.265,0,0,0-.218-.393.988.988,0,0,0-.8-.486c-.17-.214-.34-.219-.51,0l-.8.087a2.62,2.62,0,0,0-1.919.3l-.457.048a2.4,2.4,0,0,0-1.923.287l-.624.059a2.55,2.55,0,0,0-1.928.292l-.456.044a2.993,2.993,0,0,0-2.094.3l-.79.053a2.071,2.071,0,0,0-1.589.284l-.51.014a.313.313,0,0,0-.34-.2l-.082-.277a9.9,9.9,0,0,0-1.311-3.344l-.085-.3c.17-.3-.02-.44-.258-.552l-.075-.3a9.585,9.585,0,0,0-.949-2.732,16.719,16.719,0,0,0-1.586-3.759l-.365-.255a.464.464,0,0,0-.726-.145c-.35.267.1.627-.019.945h-.45c-.025-.85-.668-.425-1.062-.51a.921.921,0,0,0-.694-.323,4.949,4.949,0,0,0-1.538-.2c-.435-.054-.292-.379-.3-.634h.323c.212.209.3.046.376-.129.51-.092.651-.466.68-.918a1.713,1.713,0,0,0-1.433-1.87c.537-.542.957.182,1.448.133l.309.34c.056.372.046.814.646.617l.331.044c.454.476,1.205.425,1.64.933h.042v.042c.122.348.311.553.7.321l.668.051a8.9,8.9,0,0,1,.993,2.276c.143.369.265.969.906.476l.415-.048a2.867,2.867,0,0,0,2.139-.308l.246-.025a2.916,2.916,0,0,0,2.132-.306l.408-.049a2.8,2.8,0,0,0,2.144-.306l.241-.027a2.568,2.568,0,0,0,2.139-.3l.4-.048a2.489,2.489,0,0,0,2.147-.3l.238-.027A2.5,2.5,0,0,0,243.205,142.3Zm-2.184,4.144-.2.126-.17.029c-.085-.182-.359-.233-.34-.488a2.926,2.926,0,0,1,.5-.09c.484,0,.7-.279.6-.707-.109-.456.432-1.243-.59-1.28a.467.467,0,0,0-.724.083l-.656.243c-.362.036-.241.328-.286.532h-.313c-.032-.479-.369-.525-.739-.522a.922.922,0,0,0-1.2.238c-.391.491.041,1.028-.085,1.53-.284.62.529.5.6.881l-.318.085c-.279-.012-.532.01-.534.384-.605-.5-1.231-.066-1.848-.044h-.17c-.17.02-.321.065-.34.272a.088.088,0,0,0,0,.134.906.906,0,0,0-.68-.267c-.141-.17-.25-.143-.34.049-.831.019-1.035.454-.792,1.19h-.427c-.116-.537-.308-.988-.994-.881a.545.545,0,0,0-.85.133l-.51.053c-.592.192-.19.549-.141.85,0,.2.056.34.284.355.253.364.212.974.85,1.02l.012.5c-.078,1.178.51,2.115,1.385,2.21.148.243.262.17.359-.041l.34-.083c.212.17.291.042.32-.153s-.027-.457.226-.583l.09.3c-.1.286-.017.5.291.542.384.058.768.061.984-.364.593-.2.18-.626.216-.952l.493-.048c.148.267,0,.77.471.767.44,0,1,.158,1.28-.328.216-.374.34-.228.546-.043.139.128.255.3.478.3.23.034.488.141.573-.214,1.095-.112.51-.925.609-1.453h.495c.194,1.375.522,1.521,1.717.751a.4.4,0,0,1,.433-.063c1.265.461,1.635.192,1.659-1.153.022-1.18-.014-1.19-1.146-1.032a.6.6,0,0,0-.53.437c-.129.308-.313.26-.427-.046v-.86c.078-.2.19-.51.415-.25.272.314.558.075.818.17.267.23.51.286.692-.1.454-.466.08-1.076.279-1.586.3-.3.41-.559-.141-.68h-.488c-.08-.18-.35-.224-.34-.474a1.3,1.3,0,0,0,.921-1.836.391.391,0,0,0-.393-.236c-.932-.068-1.317.277-1.324,1.19,0,.252-.012.51-.019.756-.17.575.581.274.617.653-.263.1-.529.1-.656.51-.17.524-.36.17-.484-.1C241.373,146.472,241.184,146.476,241.021,146.448Zm-5.666-1.664-1.078.26-.658.058-.454-.042c-.17-.185-.272-.124-.34.082l-.226.051a.288.288,0,0,0-.471.087.5.5,0,0,0-.445.775c.2.384-.133,1.02.542,1.168,1.19.252,1.787-.352,1.53-1.542a.469.469,0,0,1,0-.083l.469-.17a6.157,6.157,0,0,1,.17.906c.024.51.19.711.709.467a1.263,1.263,0,0,1,.578-.082c.614.031.816-.233.663-.821a4.445,4.445,0,0,1-.073-.67.32.32,0,0,0-.054-.549c-.294-.168-.619-.252-.864.105Zm-5.068,2.7c1.2-.323,1.205-.323.911-1.474-.034-.134-.071-.269-.107-.4-.51-.649-1.02-.122-1.54.01-.326.17-.915-.219-1.006.464-.17.228-.031.311.17.359.236.437.156,1.112.886,1.18.294.279.5.117.685-.138Z" transform="translate(-183.206 -115.295)" fill="#1e330d"/>
        <path id="Path_3714" data-name="Path 3714" d="M10.038,206.836a1.25,1.25,0,0,1,1.28.58,1.682,1.682,0,0,0,1.112.83h.262a1.1,1.1,0,0,0,1.161.593,1.958,1.958,0,0,1,.381.9,6.65,6.65,0,0,0,3.092,4.437c.583.4.583.605-.037,1.006a20.618,20.618,0,0,1-2.842,1.493c-.185.083-.384.114-.4.367a7.276,7.276,0,0,1-5.474-2.014c-.6-.518-1.085-.807-1.856-.326-.558.34-.923.044-.8-.636a9.1,9.1,0,0,1,.49-1.612,15.64,15.64,0,0,1,3.629-5.62Z" transform="translate(-4.891 -171.657)" fill="#7eb33c"/>
        <path id="Path_3715" data-name="Path 3715" d="M6.121,190.315a15.64,15.64,0,0,0-3.629,5.62,9.1,9.1,0,0,0-.486,1.613c-.126.68.24.984.8.636.772-.481,1.26-.192,1.856.326a7.228,7.228,0,0,0,5.474,2.014,6.993,6.993,0,0,0,3.813-.552c1.36-.644,2.565-1.464,2.686-3.174a.5.5,0,0,0,.478-.369l.619-.022c.235.06.461.1.592-.182l1-.087c.124.158.236.141.34-.024a7.5,7.5,0,0,0,3.06-1.19l.212.381c-.241.379-.617.68-.7,1.153a12.248,12.248,0,0,0-1.7,4.52,1.4,1.4,0,0,0,1.166,1.756,5.74,5.74,0,0,0,2.71-.34l1-.216a.279.279,0,0,0,.359-.112,13.012,13.012,0,0,0,3.74-1.53c.872-.641,1.093-1.4.51-2.164a1.51,1.51,0,0,1-.269-1.336.359.359,0,0,0,.245-.418l1.88-5.44c.252-.19.185-.444.139-.692q.019-.68.039-1.346c.592-.308,1.348,0,1.885-.51a3.876,3.876,0,0,0,2.04-1.268c.34-.388.542-.4.945-.092a1.351,1.351,0,0,0,2.139-.311l.316-.049a.326.326,0,0,0,.325.2l.19.153-.014.365c-.3.027-.694-.211-.85.277a.094.094,0,0,1-.124.065l-1.7.223L37,188.059c0-.114-.046-.213-.17-.221s-.17.083-.189.2a.1.1,0,0,1-.112.1c-.26-.026-.388.085-.36.352h0c-.8.18-1.36.85-2.167,1.03-.393.088-.908.114-1.1.62l-.151,1.042a1.848,1.848,0,0,0-.248,1.36l-.061.265c-.065.049-.17.087-.19.151-.585,1.481-1.161,2.965-1.744,4.445a.4.4,0,0,0,.039.469c.632.617.532,1.431.61,2.2a3.69,3.69,0,0,1-1.292,1.508.34.34,0,0,0-.413.245l-.241.151c-1.246.393-2.509.741-3.74,1.2-.542.2-1.2,0-1.642.5l-.45.046a.753.753,0,0,0-.571-.075c-1.36.129-2.54-.058-3.028-1.584v-2.04a14.054,14.054,0,0,0,.84-2.405l.153-.243c.252-.209.617-.484.435-.78-.211-.34-.583.014-.882.082-.066.015-.116.105-.17.161l-.294.061a2.553,2.553,0,0,0-1.578.272l-.719.1c-.369.17-.267.44-.17.716l-.037.284c-.216.2-.51.367-.425.741-1.714,2.324-4.19,2.853-6.842,2.752a8.659,8.659,0,0,1-6.157-2.618c-.3-.311-.615-.2-.94-.1-1.428.4-1.945.024-1.79-1.452a11.259,11.259,0,0,1,3.978-7.347C5.516,189.961,5.839,189.9,6.121,190.315Z" transform="translate(-0.974 -155.136)" fill="#253b11"/>
        <path id="Path_3716" data-name="Path 3716" d="M15.129,29.517l.269.076a.432.432,0,0,0,.522.308c.243.082.4.352.7.306.51-.189.666-.651.826-1.1a.994.994,0,0,1,.379-.537,8.448,8.448,0,0,0,1.958-2.781.116.116,0,0,1,.09-.105,6.324,6.324,0,0,0,1.652-2.361l.015-.017a.3.3,0,0,0,.275-.406.107.107,0,0,1,.087-.107c.236-.034.291-.185.258-.394a.129.129,0,0,1,.1-.11.776.776,0,0,0,.592-.738c0-.411-.413-.439-.68-.529-.365-.124-.653-.457-1.079-.411a.971.971,0,0,1-.478-.51,4.794,4.794,0,0,1-.032-2.009.068.068,0,0,1,.042-.1l.595.012a1.739,1.739,0,0,0,0,1.848c.384.807,1.219.867,1.919,1.144.241.1.586.02.614.422l-3.466,4.906A.306.306,0,0,0,20,26.7a.547.547,0,0,1-.048.136c-.738.427-1,1.249-1.53,1.846-.68.763-.986,1.812-1.855,2.433a4.94,4.94,0,0,0-3.58-.971,6,6,0,0,0-4.7,3.944c-.109.258-.143.626-.546.444a1.988,1.988,0,0,0-2.079.229,1.593,1.593,0,0,0-.622,1.931l-.022.34c-.564.34-1.3.408-1.654,1.071A.637.637,0,0,1,3,37.752a1.256,1.256,0,0,1,.814-.721.28.28,0,0,0,.391-.24.056.056,0,0,1,.08-.048c.486-.495.143-1.085.189-1.63a.626.626,0,0,1,.311-.6.263.263,0,0,0,.255-.265.428.428,0,0,1,.32-.258.775.775,0,0,0,.67-.311,2.162,2.162,0,0,1,1.382.039c.879-.022.449-.75.622-1.153a3.883,3.883,0,0,1,1.416-1.8.286.286,0,0,0,.35-.241l.144-.105a26.9,26.9,0,0,1,3.23-1.19l.85.009A1.51,1.51,0,0,0,15.129,29.517Z" transform="translate(-2.489 -14.931)" fill="#1e330d"/>
        <path id="Path_3717" data-name="Path 3717" d="M184.074,46.868c.17.051.352.07.449.245.041.127.043.3.128.377,1.125,1.04.942,2.179.3,3.379-.178.34-.469.644-.415,1.076a.105.105,0,0,1-.083.105,1.1,1.1,0,0,0-.6,1.079.105.105,0,0,1-.085.109,1.4,1.4,0,0,0-.622,1.035l-.68,1.7c-.076.034-.2.048-.221.1a14.072,14.072,0,0,1-2.006,3.594l-.024.019a4.765,4.765,0,0,1-3.974-.17c-.787-.408-1.222-.258-1.5.542-.036.105-.075.209-.112.313l-.17.321-.014.014a.311.311,0,0,0-.326.325l-.036.391a1.346,1.346,0,0,0,.3,1.224l.046.306a2.858,2.858,0,0,0,.037,1.324c-.075.34.263.464.376.705-.17.049-.19.182-.19.328l-.144.061-.357-.024a.315.315,0,0,0-.357-.182l-.221-2.2c.066-.2.09-.388-.114-.527a12.241,12.241,0,0,0-.359-1.9l.7-.49c.287-.017.369-.17.3-.435l.092-.231c.408-.136.415-.313.056-.529l-.947-.651a.212.212,0,0,0-.255-.133h-.056l-.02-.053a.252.252,0,0,0,.014-.148l.371-.058a.391.391,0,0,1,.134.039l.209.119a11.487,11.487,0,0,0,2.3,1c.182.233.355.491.707.253l.478.082c.049.51.357.243.592.2a3.716,3.716,0,0,0,1.591-.185c.24.07.376-.019.408-.267a3.764,3.764,0,0,0,.869-1.02.3.3,0,0,0,.279-.393l.075-.282a.609.609,0,0,0,.4-.76l.96-2.3a.3.3,0,0,0,.26-.4c.041-.386.439-.641.388-1.061.694-.532.767-1.36,1.03-2.108a1.544,1.544,0,0,0,.656-.872l.1-.311c.348-.314.376-.617-.037-.9a1.723,1.723,0,0,0-2.059-1.062c-.529-.182-.722.6-1.246.43l-.151-.029c-.119-.206-.26-.369-.532-.277l-1.34-.51c-.144-.287-.428-.316-.7-.4-1.487-.45-2.97-.916-4.454-1.377.107-.51.422-.3.712-.214,1.71.524,3.427,1.066,5.147,1.566.581.17,1.19.68,1.741.439A12.5,12.5,0,0,1,184.074,46.868Z" transform="translate(-143.557 -37.43)" fill="#1e330d"/>
        <path id="Path_3718" data-name="Path 3718" d="M46.709,143.219a1.1,1.1,0,0,1-1.161-.593c-.075-1.436.122-2.875-.032-4.309l.182-1.836c.308-.245.235-.563.17-.879a2.861,2.861,0,0,1,.17-1.11.269.269,0,0,0,.153-.428l.17-.813a.563.563,0,0,0,.206-.787c-.17-.354-.51-.184-.806-.134l-.28-.085.054-.4.379-.024a1.014,1.014,0,0,0,1.307-1,10.575,10.575,0,0,0,.061-1.348c.027-1.341.68-1.9,1.943-1.68a9.939,9.939,0,0,0,1.01.076c.088.2.258.365.229.609l-.476.06a1.029,1.029,0,0,0-1.476.86,11.844,11.844,0,0,0-.632,2.149c-.2.17-.136.41-.151.627a.36.36,0,0,0-.291.4l-.187,1.02a23.088,23.088,0,0,0-1.006,5.907A15.679,15.679,0,0,0,46.709,143.219Z" transform="translate(-37.748 -106.03)" fill="#1e330d"/>
        <path id="Path_3719" data-name="Path 3719" d="M112.48,1.8c1.375-1.289,2.5-1.147,3.6.411.117.17.148.644.585.365l.241.185a.765.765,0,0,0,0-.733l-.236.182c-.129-1.887.986-2.652,2.87-1.958a5.767,5.767,0,0,1,.614.272c1.737.821,1.936,1.569.916,3.2a3.691,3.691,0,0,0-.836,1.53c-.071.207-.265.212-.432.262l-.17-.16-.061-.294c.131-.755.748-1.248,1.04-1.923a1.312,1.312,0,0,0-.7-1.982,7.029,7.029,0,0,0-.879-.3c-.915-.279-1.5.044-1.663.977a13.2,13.2,0,0,0-.085,1.6c-.267.015-.585-.428-.79.042a.592.592,0,0,0,.265.738c.428.229.331-.328.549-.442.291.393.158.68-.241.867-.481.235-.573-.17-.712-.461-.223-.45-.374-.94-.636-1.36-.84-1.36-1.36-1.521-2.745-.9Z" transform="translate(-93.358 0.003)" fill="#3c5129"/>
        <path id="Path_3720" data-name="Path 3720" d="M278.023,257.056a1.683,1.683,0,0,1,1.736,1.7,1.829,1.829,0,0,1-1.69,1.788,1.767,1.767,0,0,1-1.724-1.731,1.7,1.7,0,0,1,1.678-1.758Z" transform="translate(-229.366 -213.357)" fill="#253b11"/>
        <path id="Path_3721" data-name="Path 3721" d="M354.865,250.316c-.046.318-.294.461-.53.614-.593,0-1.19.323-1.775-.129-.753-.583-.831-1-.326-2.467h0c.818-.294,1.63-.68,2.356.211C355.037,249.1,354.77,249.728,354.865,250.316Z" transform="translate(-292.089 -205.834)" fill="#253b11"/>
        <path id="Path_3722" data-name="Path 3722" d="M182.85,155.923c0-.146.025-.277.19-.328l.292-.01c.252.014.51.08.722-.133l1.17-.2c.5.27.9-.223,1.36-.17.51.43.8-.083,1-.34.456-.583.85-.639,1.36-.11a1.109,1.109,0,0,0,.379.16c0,.257-.136.58.3.634.581.877,1.146.949,1.538.2a.921.921,0,0,1,.694.323,2.067,2.067,0,0,1-.9.609c-.34.109-.593.282-.433.654a.734.734,0,0,0,.85.51c.355-.073.666-.323,1.054-.262.35.01.466.212.44.532-.527-.434-.943.182-1.406.148-.833-.061-1.039.34-.974,1.061a6.9,6.9,0,0,1-.022.85.326.326,0,0,1-.325-.2l-.032-.51a10.962,10.962,0,0,0-.014-2.167.55.55,0,0,0-.275-.716c-.245-.306-.486-.617-.738-.918-.575-.68-.933-.714-1.515-.044a.873.873,0,0,1-1,.236,2.483,2.483,0,0,0-1.156-.01A8.41,8.41,0,0,1,182.85,155.923Z" transform="translate(-151.765 -128.043)" fill="#3e6019"/>
        <path id="Path_3724" data-name="Path 3724" d="M19.1,150.251c-1.02.938-2,.77-2.742-.428-.138-.223-.046-.7-.537-.626a.287.287,0,0,0-.316.219l-.34.087a.572.572,0,0,0-.619-.042.818.818,0,0,1-.751-.539l.036-.921h.292a.865.865,0,0,0,.45.748c.882.457,1.238-.59,1.984-.68a1.846,1.846,0,0,0,1.011,2.04,1.227,1.227,0,0,0,1.5-.772l.233.032Z" transform="translate(-11.445 -122.84)" fill="#3c5129"/>
        <path id="Path_3725" data-name="Path 3725" d="M340.72,244.662c-.1-.588.17-1.221-.279-1.768-.726-.884-1.538-.51-2.356-.211.257-.42.219-.6-.34-.5a9.291,9.291,0,0,1-2.875.377.984.984,0,0,1,.821-.34c1.725-.037,3.308-.726,4.971-1.044-.085.4-.423.386-.721.447-.158.032-.371.015-.406.224-.046.265.2.284.365.372C341.044,242.814,341.343,243.713,340.72,244.662Zm-1.9-2.55c-.109-.063-.17-.136-.236-.129-.1.012-.25.046-.286.117-.068.138.063.17.17.153a2.264,2.264,0,0,0,.354-.143Z" transform="translate(-277.943 -200.18)" fill="#506143"/>
        <path id="Path_3726" data-name="Path 3726" d="M198.22,140.458c-.469-.048-.87.445-1.36.17a2,2,0,0,0,1.156-1.5,3.373,3.373,0,0,1,2.47-2.416,1.774,1.774,0,0,1,1.87.668c-.491.051-.913-.68-1.448-.133l-1.095.17a.23.23,0,0,0-.216.213,4.983,4.983,0,0,0-1.147,1.654c-.17.025-.178.09-.046.189l-.014.3c-.23.037-.42.093-.17.357Z" transform="translate(-163.394 -113.419)" fill="#506143"/>
        <path id="Path_3727" data-name="Path 3727" d="M182.77,129.757c.037-.1.076-.209.112-.313.277-.8.712-.949,1.5-.542a4.727,4.727,0,0,0,3.974.17c-.85.952-1.926.609-2.955.474a2.04,2.04,0,0,1-.79-.262c-.755-.466-1.326-.394-1.69.476A1.048,1.048,0,0,0,182.77,129.757Z" transform="translate(-151.699 -106.807)" fill="#506143"/>
        <path id="Path_3728" data-name="Path 3728" d="M251.33,163.89a16.8,16.8,0,0,1,1.586,3.759,9.6,9.6,0,0,1,.949,2.732,10.056,10.056,0,0,1-1.19-2.815A20.51,20.51,0,0,1,251.33,163.89Z" transform="translate(-208.604 -136.029)" fill="#788769"/>
        <path id="Path_3729" data-name="Path 3729" d="M241.005,61.8c-.054-.432.236-.739.415-1.076.639-1.2.823-2.339-.3-3.379-.085-.08-.087-.25-.127-.377a2.248,2.248,0,0,1,1.125,2.812,5.618,5.618,0,0,1-1.11,2.021Z" transform="translate(-200.022 -47.285)" fill="#506143"/>
        <path id="Path_3730" data-name="Path 3730" d="M361.415,189.85c-.473-.061-.49-.428-.442-.758a34.907,34.907,0,0,0,.17-3.674c0-.121.114-.238.17-.359.161,1.232-.017,2.467.025,3.7C361.36,189.13,361.391,189.488,361.415,189.85Z" transform="translate(-299.593 -153.6)" fill="#506143"/>
        <path id="Path_3731" data-name="Path 3731" d="M3.961,138.714H3.677c-.243-.262-.474-.267-.694.031a.646.646,0,0,1-.524.032.571.571,0,0,0-.641-.413.417.417,0,0,1-.255-.417,2.424,2.424,0,0,0,0-1.147h.01c.243.029.314.145.252.391-.056.219-.039.445.255.51l.092.27c.218.34.456.586.831.17.476-.17.758-.6,1.168-.865l.185.255C4.236,137.93,3.946,138.272,3.961,138.714Z" transform="translate(-1.296 -113.544)" fill="#1e330d"/>
        <path id="Path_3732" data-name="Path 3732" d="M351.026,250c-.51,1.464-.428,1.882.326,2.467.583.452,1.19.122,1.775.129a1.477,1.477,0,0,1-2.273-.272A1.655,1.655,0,0,1,351.026,250Z" transform="translate(-290.879 -207.501)" fill="#506143"/>
        <path id="Path_3733" data-name="Path 3733" d="M215.76,112.806a14.072,14.072,0,0,0,2.006-3.594c.02-.054.144-.07.221-.1a9.122,9.122,0,0,1-1.52,3.155C216.3,112.5,216.12,112.789,215.76,112.806Z" transform="translate(-179.081 -90.561)" fill="#506143"/>
        <path id="Path_3734" data-name="Path 3734" d="M168.1,28.351c.046.323.088.648.136.971.039.267-.112.25-.289.2-.34-1.64-1.078-2.29-2.351-2.059l-.107-.376.022-.014a.16.16,0,0,0,.226-.07c.824-.25,1.375.359,2.026.649l.075.16C167.741,28.084,167.931,28.213,168.1,28.351Z" transform="translate(-137.356 -22.363)" fill="#3c5129"/>
        <path id="Path_3735" data-name="Path 3735" d="M356.677,159.474a5.633,5.633,0,0,1-.093-.661c-.037-1.348-.032-1.348-1.273-1.559.257-.216.588-.17.882-.25.382-.1.644.082.624.464A5.815,5.815,0,0,1,356.677,159.474Z" transform="translate(-294.908 -130.291)" fill="#506143"/>
        <path id="Path_3736" data-name="Path 3736" d="M157.265,27.8l.107.376c-.212.374-.729.473-.821.976-.046.255-.281.231-.444.058s-.352-.415-.527-.622c.17-.051.36-.054.432-.262.377.117.573-.17.816-.362.083,0,.146-.012.148-.112Z" transform="translate(-129.131 -23.074)" fill="#3c5129"/>
        <path id="Path_3737" data-name="Path 3737" d="M223.87,188.076c.153-.488.542-.25.85-.277a1.879,1.879,0,0,0,2.239-.68l.34-.019a2.138,2.138,0,0,1-2.343,1.042A3.526,3.526,0,0,0,223.87,188.076Z" transform="translate(-185.812 -155.293)" fill="#3c5129"/>
        <path id="Path_3738" data-name="Path 3738" d="M256.659,157.5c-.641.495-.763-.105-.906-.476a9.017,9.017,0,0,0-.993-2.276c.422-.078.51.236.617.525a14.628,14.628,0,0,1,.629,1.722C256.1,157.4,256.378,157.413,256.659,157.5Z" transform="translate(-211.451 -128.433)" fill="#506143"/>
        <path id="Path_3739" data-name="Path 3739" d="M187.88,197.941c.192-.51.709-.534,1.1-.62.813-.182,1.37-.85,2.167-1.03A6.757,6.757,0,0,1,187.88,197.941Z" transform="translate(-155.94 -162.921)" fill="#3c5129"/>
        <path id="Path_3740" data-name="Path 3740" d="M47.13,84.058a26.9,26.9,0,0,0-3.23,1.19A4.445,4.445,0,0,1,47.13,84.058Z" transform="translate(-36.436 -69.761)" fill="#506143"/>
        <path id="Path_3741" data-name="Path 3741" d="M268.69,208.83A10.065,10.065,0,0,1,270,212.174,11.032,11.032,0,0,1,268.69,208.83Z" transform="translate(-223.013 -173.329)" fill="#788769"/>
        <path id="Path_3742" data-name="Path 3742" d="M92.168,63.84a8.531,8.531,0,0,1-1.958,2.781A12.846,12.846,0,0,1,92.168,63.84Z" transform="translate(-74.874 -52.987)" fill="#506143"/>
        <path id="Path_3743" data-name="Path 3743" d="M243.9,161.913c.114-.318-.331-.68.019-.945a.464.464,0,0,1,.726.145c-.19.085-.451.07-.474.381-.044.605-.105,1.209-.158,1.814C243.46,162.885,243.847,162.386,243.9,161.913Z" transform="translate(-202.288 -133.506)" fill="#788769"/>
        <path id="Path_3744" data-name="Path 3744" d="M365.359,215.849a5.762,5.762,0,0,0-1.579-2.519A2.48,2.48,0,0,1,365.359,215.849Z" transform="translate(-301.938 -177.064)" fill="#506143"/>
        <path id="Path_3745" data-name="Path 3745" d="M240.268,167.1c-.056.473-.444.971.112,1.394a.578.578,0,0,1,.08.478h-.51l-.17-.34c.025-.32-.092-.524-.44-.532.138-.34.459-.595.478-.994Z" transform="translate(-198.652 -138.693)" fill="#253b11"/>
        <path id="Path_3746" data-name="Path 3746" d="M288.21,245.626a2.519,2.519,0,0,1-2.21.294A3.966,3.966,0,0,1,288.21,245.626Z" transform="translate(-237.38 -203.844)" fill="#506143"/>
        <path id="Path_3747" data-name="Path 3747" d="M103.9,49.33a6.324,6.324,0,0,1-1.659,2.361A8.685,8.685,0,0,1,103.9,49.33Z" transform="translate(-84.859 -40.944)" fill="#506143"/>
        <path id="Path_3748" data-name="Path 3748" d="M303.86,251.415a3.492,3.492,0,0,1,2.48-.3A6.108,6.108,0,0,1,303.86,251.415Z" transform="translate(-252.204 -208.35)" fill="#506143"/>
        <path id="Path_3749" data-name="Path 3749" d="M109.51,33.359c.427-.046.714.286,1.079.411.263.09.68.116.68.529a.776.776,0,0,1-.592.738c.386-.583.379-1-.425-1.178A.991.991,0,0,1,109.51,33.359Z" transform="translate(-90.893 -27.684)" fill="#506143"/>
        <path id="Path_3750" data-name="Path 3750" d="M319.21,241.6a2.381,2.381,0,0,1-2.21.3A6.455,6.455,0,0,1,319.21,241.6Z" transform="translate(-263.111 -200.51)" fill="#506143"/>
        <path id="Path_3751" data-name="Path 3751" d="M45,155.4l.2-.872.17-.238c.287-.051.632-.221.806.134a.563.563,0,0,1-.206.787c-.17-.155.061-.51-.218-.558s-.34.229-.42.425C45.258,155.233,45.194,155.382,45,155.4Z" transform="translate(-37.349 -127.992)" fill="#1e330d"/>
        <path id="Path_3752" data-name="Path 3752" d="M303.99,243.66c-.614.614-1.338.4-2.05.277A3.91,3.91,0,0,1,303.99,243.66Z" transform="translate(-250.611 -202.21)" fill="#506143"/>
        <path id="Path_3753" data-name="Path 3753" d="M270.5,168.7a2.867,2.867,0,0,1-2.139.308A3.382,3.382,0,0,1,270.5,168.7Z" transform="translate(-222.739 -139.987)" fill="#506143"/>
        <path id="Path_3754" data-name="Path 3754" d="M299.474,164.686a2.809,2.809,0,0,1-2.144.306A3.5,3.5,0,0,1,299.474,164.686Z" transform="translate(-246.784 -136.66)" fill="#506143"/>
        <path id="Path_3755" data-name="Path 3755" d="M284.522,166.717a2.924,2.924,0,0,1-2.132.306A3.351,3.351,0,0,1,284.522,166.717Z" transform="translate(-234.384 -138.337)" fill="#506143"/>
        <path id="Path_3756" data-name="Path 3756" d="M342.49,158.771a2.54,2.54,0,0,1-2.14.3A4.539,4.539,0,0,1,342.49,158.771Z" transform="translate(-282.491 -131.762)" fill="#506143"/>
        <path id="Path_3757" data-name="Path 3757" d="M328.467,160.727a2.5,2.5,0,0,1-2.147.3A4.631,4.631,0,0,1,328.467,160.727Z" transform="translate(-270.846 -133.386)" fill="#506143"/>
        <path id="Path_3759" data-name="Path 3759" d="M334,239.646c-.605.637-1.333.422-2.048.292A6,6,0,0,1,334,239.646Z" transform="translate(-275.519 -198.891)" fill="#506143"/>
        <path id="Path_3760" data-name="Path 3760" d="M313.5,162.783a2.567,2.567,0,0,1-2.139.3A4.454,4.454,0,0,1,313.5,162.783Z" transform="translate(-258.429 -135.091)" fill="#506143"/>
        <path id="Path_3761" data-name="Path 3761" d="M295.89,227.431a2.994,2.994,0,0,1,2.094-.3A3.337,3.337,0,0,1,295.89,227.431Z" transform="translate(-245.589 -188.463)" fill="#788769"/>
        <path id="Path_3762" data-name="Path 3762" d="M347.87,237.693c-.547.6-1.214.439-1.87.3A5.7,5.7,0,0,1,347.87,237.693Z" transform="translate(-287.181 -197.276)" fill="#506143"/>
        <path id="Path_3763" data-name="Path 3763" d="M325.9,223.372a2.4,2.4,0,0,1,1.923-.287A3.1,3.1,0,0,1,325.9,223.372Z" transform="translate(-270.498 -185.095)" fill="#788769"/>
        <path id="Path_3764" data-name="Path 3764" d="M320.86,249.364c.585-.573,1.285-.386,1.969-.3A4.935,4.935,0,0,1,320.86,249.364Z" transform="translate(-266.314 -206.642)" fill="#506143"/>
        <path id="Path_3765" data-name="Path 3765" d="M339.89,221.412a2.62,2.62,0,0,1,1.919-.3A2.927,2.927,0,0,1,339.89,221.412Z" transform="translate(-282.109 -183.471)" fill="#788769"/>
        <path id="Path_3766" data-name="Path 3766" d="M310.89,225.45a2.55,2.55,0,0,1,1.928-.292A3.074,3.074,0,0,1,310.89,225.45Z" transform="translate(-258.039 -186.82)" fill="#788769"/>
        <path id="Path_3767" data-name="Path 3767" d="M238.4,147.726c-.435-.51-1.19-.457-1.64-.933A1.4,1.4,0,0,1,238.4,147.726Z" transform="translate(-196.511 -121.833)" fill="#506143"/>
        <path id="Path_3768" data-name="Path 3768" d="M241.728,178.11h.51l.066.284a.425.425,0,0,0,0,.454.558.558,0,0,1-.134.449l-.68.015A2.839,2.839,0,0,0,241.728,178.11Z" transform="translate(-200.437 -147.832)" fill="#1e330d"/>
        <path id="Path_3769" data-name="Path 3769" d="M104.566,18.6a4.8,4.8,0,0,0,.032,2.009A1.425,1.425,0,0,1,104.566,18.6Z" transform="translate(-86.458 -15.438)" fill="#506143"/>
        <path id="Path_3770" data-name="Path 3770" d="M281.89,229.518a2.091,2.091,0,0,1,1.589-.284A1.78,1.78,0,0,1,281.89,229.518Z" transform="translate(-233.969 -190.213)" fill="#788769"/>
        <path id="Path_3771" data-name="Path 3771" d="M10.4,118.78c-.046.546.3,1.136-.189,1.63C10.264,119.866,9.9,119.273,10.4,118.78Z" transform="translate(-8.409 -98.588)" fill="#506143"/>
        <path id="Path_3772" data-name="Path 3772" d="M110.031,10.58l.484.105c-.229.3-.359.68-.705.881-.192-.1-.226-.3-.28-.484C109.656,10.874,109.77,10.651,110.031,10.58Z" transform="translate(-90.909 -8.781)" fill="#1e330d"/>
        <path id="Path_3773" data-name="Path 3773" d="M213.17,193.453l1.7-.223A1.312,1.312,0,0,1,213.17,193.453Z" transform="translate(-176.931 -160.381)" fill="#3c5129"/>
        <path id="Path_3774" data-name="Path 3774" d="M283.46,251.227a1.4,1.4,0,0,1,1.29.33A1.419,1.419,0,0,1,283.46,251.227Z" transform="translate(-235.272 -208.485)" fill="#506143"/>
        <path id="Path_3775" data-name="Path 3775" d="M179.616,142.384a1.346,1.346,0,0,1-.3-1.224C179.753,141.486,179.7,141.932,179.616,142.384Z" transform="translate(-148.8 -117.163)" fill="#788769"/>
        <path id="Path_3776" data-name="Path 3776" d="M9.88,147.124c.219-.3.45-.292.694-.031l-.034.913C10.208,147.8,10.41,147.187,9.88,147.124Z" transform="translate(-8.199 -121.927)" fill="#506143"/>
        <path id="Path_3777" data-name="Path 3777" d="M83.966,83.36c-.16.454-.309.918-.826,1.1A2.317,2.317,0,0,1,83.966,83.36Z" transform="translate(-69.006 -69.189)" fill="#506143"/>
        <path id="Path_3778" data-name="Path 3778" d="M2.035,135.6c-.294-.065-.311-.291-.255-.51.063-.246-.008-.364-.252-.391-.048-.214,0-.379.231-.447a.636.636,0,0,0,.371.357Z" transform="translate(-1.254 -111.428)" fill="#3c5129"/>
        <path id="Path_3779" data-name="Path 3779" d="M181.216,151.484a2.77,2.77,0,0,1-.037-1.324C181.34,150.6,181.685,151.029,181.216,151.484Z" transform="translate(-150.315 -124.633)" fill="#788769"/>
        <path id="Path_3780" data-name="Path 3780" d="M237.015,87.1a1.091,1.091,0,0,1,.6-1.079A1.692,1.692,0,0,1,237.015,87.1Z" transform="translate(-196.715 -71.397)" fill="#506143"/>
        <path id="Path_3781" data-name="Path 3781" d="M29.622,103.75c-.17.4.255,1.13-.622,1.153C29.371,104.607,29.3,104.075,29.622,103.75Z" transform="translate(-24.069 -86.113)" fill="#506143"/>
        <path id="Path_3782" data-name="Path 3782" d="M.256,136.83a2.424,2.424,0,0,1,0,1.147A.758.758,0,0,1,.256,136.83Z" transform="translate(0.007 -113.569)" fill="#506143"/>
        <path id="Path_3783" data-name="Path 3783" d="M371.092,232.18a1.166,1.166,0,0,1,.311-1.11A.979.979,0,0,1,371.092,232.18Z" transform="translate(-307.978 -191.789)" fill="#506143"/>
        <path id="Path_3784" data-name="Path 3784" d="M69,84.14a1.51,1.51,0,0,1-1.095-.281A.938.938,0,0,1,69,84.14Z" transform="translate(-56.365 -69.554)" fill="#506143"/>
        <path id="Path_3785" data-name="Path 3785" d="M232.89,94.045a1.4,1.4,0,0,1,.622-1.035A1.36,1.36,0,0,1,232.89,94.045Z" transform="translate(-193.299 -77.198)" fill="#506143"/>
        <path id="Path_3786" data-name="Path 3786" d="M107.237,13.54c.053.185.088.381.28.484l-.156.292-.595-.012C106.749,13.943,107,13.744,107.237,13.54Z" transform="translate(-88.614 -11.238)" fill="#3e6019"/>
        <path id="Path_3787" data-name="Path 3787" d="M359.85,235.182c-.141.452-.41.617-.85.379l.68-.391Z" transform="translate(-297.971 -195.192)" fill="#506143"/>
        <path id="Path_3788" data-name="Path 3788" d="M46.35,174c.068.316.141.634-.17.879A.607.607,0,0,1,46.35,174Z" transform="translate(-38.233 -144.42)" fill="#1e330d"/>
        <path id="Path_3789" data-name="Path 3789" d="M281.747,247.6l-.194.559a.3.3,0,0,1-.231-.439C281.4,247.537,281.577,247.521,281.747,247.6Z" transform="translate(-233.468 -205.471)" fill="#506143"/>
        <path id="Path_3790" data-name="Path 3790" d="M231.646,143.547c-.6.2-.59-.243-.646-.617Z" transform="translate(-191.73 -118.632)" fill="#506143"/>
        <path id="Path_3791" data-name="Path 3791" d="M247.4,152.921c-.389.233-.578.027-.7-.321A1.377,1.377,0,0,1,247.4,152.921Z" transform="translate(-204.761 -126.658)" fill="#506143"/>
        <path id="Path_3792" data-name="Path 3792" d="M3.07,145.968a.571.571,0,0,1,.634.406C3.344,146.478,3.169,146.285,3.07,145.968Z" transform="translate(-2.547 -121.149)" fill="#506143"/>
        <path id="Path_3793" data-name="Path 3793" d="M137.112,12.17l.24-.17a.765.765,0,0,1,0,.733l-.241-.185Z" transform="translate(-113.801 -9.96)" fill="#1e330d"/>
        <path id="Path_3794" data-name="Path 3794" d="M17.59,110.088a.775.775,0,0,1-.67.311C17.066,110.129,17.262,109.966,17.59,110.088Z" transform="translate(-14.043 -91.339)" fill="#506143"/>
        <path id="Path_3795" data-name="Path 3795" d="M266.5,203.83c.238.112.43.248.258.552C266.576,204.243,266.387,204.107,266.5,203.83Z" transform="translate(-221.168 -169.179)" fill="#788769"/>
        <path id="Path_3796" data-name="Path 3796" d="M363.17,232.684l-.17-.014c.029-.226.075-.44.34-.51C363.583,232.423,363.214,232.5,363.17,232.684Z" transform="translate(-301.291 -192.694)" fill="#788769"/>
        <path id="Path_3797" data-name="Path 3797" d="M76.46,86.391a.432.432,0,0,1-.52-.309C76.244,85.96,76.328,86.211,76.46,86.391Z" transform="translate(-63.029 -71.421)" fill="#506143"/>
        <path id="Path_3799" data-name="Path 3799" d="M241.55,185.115l.68-.015c.022.2-.129.27-.267.34l-.34.019-.043-.292Z" transform="translate(-200.487 -153.633)" fill="#253b11"/>
        <path id="Path_3800" data-name="Path 3800" d="M355.92,220.161c.17-.212.34-.207.51,0a.34.34,0,0,1-.51,0Z" transform="translate(-295.414 -182.604)" fill="#788769"/>
        <path id="Path_3801" data-name="Path 3801" d="M18.17,156.248a.572.572,0,0,1,.619.042A.466.466,0,0,1,18.17,156.248Z" transform="translate(-15.08 -129.628)" fill="#506143"/>
        <path id="Path_3802" data-name="Path 3802" d="M209.84,192.656c.01-.116.063-.207.189-.2s.17.107.17.221Z" transform="translate(-174.167 -159.74)" fill="#3c5129"/>
        <path id="Path_3803" data-name="Path 3803" d="M179.728,137.273a.311.311,0,0,1,.326-.325C180.062,137.172,179.932,137.259,179.728,137.273Z" transform="translate(-149.174 -113.667)" fill="#788769"/>
        <path id="Path_3804" data-name="Path 3804" d="M181.907,134.987a1.051,1.051,0,0,1,.15,0,.282.282,0,0,1-.326.316Z" transform="translate(-150.836 -112.037)" fill="#788769"/>
        <path id="Path_3805" data-name="Path 3805" d="M207.042,194.572c-.027-.269.1-.379.36-.352A.529.529,0,0,1,207.042,194.572Z" transform="translate(-171.842 -161.2)" fill="#3c5129"/>
        <path id="Path_3806" data-name="Path 3806" d="M8.181,128.571a.281.281,0,0,1-.391.231C7.858,128.632,7.968,128.515,8.181,128.571Z" transform="translate(-6.465 -106.702)" fill="#506143"/>
        <path id="Path_3807" data-name="Path 3807" d="M13.719,113.649a.263.263,0,0,1-.26.275C13.44,113.725,13.537,113.644,13.719,113.649Z" transform="translate(-11.168 -94.328)" fill="#506143"/>
        <path id="Path_3808" data-name="Path 3808" d="M41.34,91.7a.286.286,0,0,1-.34.241C41.02,91.726,41.158,91.675,41.34,91.7Z" transform="translate(-34.029 -76.107)" fill="#506143"/>
        <path id="Path_3809" data-name="Path 3809" d="M167.59,273.483a.34.34,0,0,1,.413-.245.292.292,0,0,1-.413.245Z" transform="translate(-139.099 -226.78)" fill="#9da695"/>
        <path id="Path_3810" data-name="Path 3810" d="M246.009,180.234a.425.425,0,0,1,0-.454C246.213,179.931,246.215,180.083,246.009,180.234Z" transform="translate(-204.133 -149.218)" fill="#788769"/>
        <path id="Path_3811" data-name="Path 3811" d="M363.439,223.83a.265.265,0,1,1,0,.256A.265.265,0,0,1,363.439,223.83Z" transform="translate(-301.628 -185.78)" fill="#788769"/>
        <path id="Path_3812" data-name="Path 3812" d="M114.469,43.89c.031.209-.024.36-.258.394A.34.34,0,0,1,114.469,43.89Z" transform="translate(-94.79 -36.428)" fill="#506143"/>
        <path id="Path_3813" data-name="Path 3813" d="M276.88,230.112a.313.313,0,0,1,.34.2C277,230.445,276.876,230.387,276.88,230.112Z" transform="translate(-229.81 -190.99)" fill="#788769"/>
        <path id="Path_3814" data-name="Path 3814" d="M48.612,164.91a.269.269,0,0,1-.153.428C48.326,165.129,48.4,165,48.612,164.91Z" transform="translate(-40.166 -136.876)" fill="#1e330d"/>
        <path id="Path_3815" data-name="Path 3815" d="M112.385,46.84a.3.3,0,0,1-.275.406C112.129,47.061,112.168,46.889,112.385,46.84Z" transform="translate(-93.051 -38.877)" fill="#506143"/>
        <path id="Path_3816" data-name="Path 3816" d="M23.83,155.214a.287.287,0,0,1,.318-.226C24.1,155.158,24.029,155.269,23.83,155.214Z" transform="translate(-19.778 -128.639)" fill="#506143"/>
        <path id="Path_3817" data-name="Path 3817" d="M186.412,161.067c-.209.213-.471.146-.722.133C185.884,160.9,186.168,161.093,186.412,161.067Z" transform="translate(-154.123 -133.655)" fill="#506143"/>
        <path id="Path_3819" data-name="Path 3819" d="M163.058,28.09c0,.1-.065.119-.148.112Z" transform="translate(-135.215 -23.314)" fill="#e8e9e6"/>
        <path id="Path_3820" data-name="Path 3820" d="M205.045,142.7l.014-.306.046-.189a5,5,0,0,1,1.149-1.654l.216-.212,1.095-.17A1.715,1.715,0,0,1,209,142.04c-.025.452-.161.826-.68.916-.161-.059-.3-.044-.374.131h-.323a1.109,1.109,0,0,1-.379-.16c-.51-.529-.909-.474-1.36.111-.206.265-.484.779-1,.34v-.321a.372.372,0,0,0,.165-.355Z" transform="translate(-170.05 -116.341)" fill="#619229"/>
        <path id="Path_3821" data-name="Path 3821" d="M309.416,203.517c-.1.529.486,1.343-.609,1.453-.275-.156-.464-.078-.573.214-.223,0-.34-.17-.478-.3-.2-.185-.33-.34-.546.042-.28.484-.84.325-1.28.328-.473,0-.323-.5-.471-.767a.444.444,0,0,0-.117-.483c-.226-.779.133-1.091.875-1.093.313.019.643-.02.889.245.02.306.034.612.066.916.015.143.088.275.267.24s.17-.187.17-.325c-.075-1.248-.077-1.248.994-1.4C309.4,202.433,309.261,203.106,309.416,203.517Z" transform="translate(-253.379 -168.132)" fill="#e8e9e6"/>
        <path id="Path_3822" data-name="Path 3822" d="M334.257,199.4c.112.306.3.354.427.046a.6.6,0,0,1,.53-.437c1.132-.17,1.166-.148,1.146,1.032-.024,1.346-.394,1.615-1.659,1.153a.4.4,0,0,0-.434.063c-1.19.77-1.53.624-1.717-.751.063-1.234.124-1.289,1.384-1.19A1.774,1.774,0,0,1,334.257,199.4Z" transform="translate(-276.017 -165.111)" fill="#e8e9e6"/>
        <path id="Path_3823" data-name="Path 3823" d="M332.258,182.452l.17-.029.17.046a.318.318,0,0,0,.372.1c.124.262.318.622.484.1.127-.4.393-.4.656-.51a.467.467,0,0,0,.53-.056h.488l.141.68c-.2.51.17,1.122-.279,1.586a.745.745,0,0,0-.692.1c-.26-.087-.546.153-.818-.17-.224-.26-.34.053-.415.25-1.935.393-1.935.393-1.967-1.571,0-.112,0-.223.01-.34h0C331.482,182.544,331.9,182.659,332.258,182.452Z" transform="translate(-274.814 -151.143)" fill="#e8e9e6"/>
        <path id="Path_3824" data-name="Path 3824" d="M272.548,192.087l.51-.053a1.021,1.021,0,0,0,.85-.133c.68-.107.879.34.995.881l.022.34c-.034.153-.01.28.158.34.153,1.083-.785.478-1.158.748-.155-.053-.3-.073-.393.105-.639-.042-.6-.653-.85-1.02a.306.306,0,0,0-.109-.355C272.558,192.655,272.42,192.376,272.548,192.087Z" transform="translate(-226.171 -159.266)" fill="#e8e9e6"/>
        <path id="Path_3825" data-name="Path 3825" d="M269.27,178.068c.036.134.073.267.107.4.294,1.149.294,1.149-.911,1.474a.649.649,0,0,0-.68.139c-.729-.068-.649-.743-.886-1.18a.275.275,0,0,0-.17-.359c.092-.68.68-.291,1.006-.464C268.245,178.329,268.755,177.857,269.27,178.068Z" transform="translate(-221.386 -147.75)" fill="#e8e9e6"/>
        <path id="Path_3826" data-name="Path 3826" d="M285.608,175.183l.226-.051c.148.112.258.063.34-.082l.454.042c.024.17-.024.355.124.493a.474.474,0,0,0,0,.083c.26,1.19-.34,1.793-1.53,1.542-.68-.143-.34-.784-.542-1.168a.5.5,0,0,1,.445-.775.34.34,0,0,0,.483-.085Z" transform="translate(-236.221 -145.292)" fill="#e8e9e6"/>
        <path id="Path_3827" data-name="Path 3827" d="M316.6,185.8l.318-.085a.478.478,0,0,0,.522-.1l.748-.092a2.288,2.288,0,0,1,.372,2c-.077.578-.779.209-1.154.4a.679.679,0,0,0-.124.109h-.362l-.27-.308-.027-.4a.236.236,0,0,0-.022-.35l-.071-.668Z" transform="translate(-262.72 -153.982)" fill="#e8e9e6"/>
        <path id="Path_3828" data-name="Path 3828" d="M302.88,188.185c.617-.02,1.244-.452,1.848.044l-.022.08.066.048c.1,1.7.1,1.7-1.19,1.986l-.439-.189-.022-.014-.252-1.108Z" transform="translate(-251.383 -156.033)" fill="#e8e9e6"/>
        <path id="Path_3829" data-name="Path 3829" d="M321,187.732a.679.679,0,0,1,.124-.109c.376-.2,1.078.17,1.154-.4a2.3,2.3,0,0,0-.372-2,1.7,1.7,0,0,1,.824-.02c0,.112-.012.224-.01.34.032,1.963.032,1.963,1.967,1.571q0,.43-.008.86a1.786,1.786,0,0,0-.326-.088c-1.258-.1-1.319-.042-1.384,1.19h-.495c-.155-.411-.012-1.085-.814-.925C321.614,187.714,321.138,187.992,321,187.732Z" transform="translate(-266.431 -153.682)" fill="#1e330d"/>
        <path id="Path_3830" data-name="Path 3830" d="M331.978,169.08c1.02.036.481.824.59,1.28.1.428-.112.7-.6.707a2.927,2.927,0,0,0-.5.09l-.821.063-.092-.913.031-.9.661-.241A.609.609,0,0,0,331.978,169.08Z" transform="translate(-274.365 -140.337)" fill="#e8e9e6"/>
        <path id="Path_3831" data-name="Path 3831" d="M280.79,210.367l-.34.083a.258.258,0,0,0-.359.041c-.874-.088-1.464-1.02-1.385-2.21.35-.056.728.08,1.052-.151l.62.024A5.792,5.792,0,0,1,280.79,210.367Z" transform="translate(-231.321 -172.748)" fill="#e8e9e6"/>
        <path id="Path_3832" data-name="Path 3832" d="M289.927,189.926a.906.906,0,0,1,.68.267.5.5,0,0,0,.063.451l-.022.67c-.048.291.087.619-.187.86l-.85.071-.52-.078-.17-.34a.233.233,0,0,0,.01-.34l-.122-.325c-.245-.734-.039-1.17.792-1.19C289.725,190.108,289.837,190.088,289.927,189.926Z" transform="translate(-239.632 -157.639)" fill="#f1f4ed"/>
        <path id="Path_3833" data-name="Path 3833" d="M316.135,171c.372,0,.709.044.74.522v.651l-.063.705-.85.187c-.388-.048-.85.17-1.122-.292.124-.51-.308-1.044.085-1.53A1.946,1.946,0,0,0,316.135,171Z" transform="translate(-261.248 -141.93)" fill="#e8e9e6"/>
        <path id="Path_3834" data-name="Path 3834" d="M300.121,173.753l1.076-.252a.82.82,0,0,1,.909.442,4.439,4.439,0,0,0,.073.67c.153.588-.049.85-.663.821a1.263,1.263,0,0,0-.578.082c-.518.241-.68.048-.709-.467a6.156,6.156,0,0,0-.17-.906Z" transform="translate(-249.05 -144.004)" fill="#e8e9e6"/>
        <path id="Path_3835" data-name="Path 3835" d="M345.15,169.092c0-.252.017-.51.019-.756,0-.916.394-1.261,1.324-1.19a.391.391,0,0,1,.393.236,1.3,1.3,0,0,1-.921,1.836C345.7,169.121,345.391,169.337,345.15,169.092Z" transform="translate(-286.475 -138.724)" fill="#e8e9e6"/>
        <path id="Path_3836" data-name="Path 3836" d="M294.483,207.688c-.036.326.377.753-.216.952-.411-.161-.9.216-1.275-.178l-.09-.3c.022-.568-.4-1.081-.207-1.671l.959-.134.59.1.134.362A1.1,1.1,0,0,0,294.483,207.688Z" transform="translate(-242.895 -171.279)" fill="#e8e9e6"/>
        <path id="Path_3837" data-name="Path 3837" d="M230.269,164.439c-.019.4-.34.653-.478.994-.389-.061-.7.189-1.056.262a.711.711,0,0,1-.85-.51c-.16-.372.085-.547.433-.654a2.067,2.067,0,0,0,.9-.609C229.6,164.014,230.244,163.586,230.269,164.439Z" transform="translate(-189.104 -136.032)" fill="#7eb33c"/>
        <path id="Path_3838" data-name="Path 3838" d="M322.783,174.751V174.1h.313c.042.151.063.32.255.367l.092.915v.632h0a1.7,1.7,0,0,0-.824.02l-.748.092v-.49l.85-.187h.33l.071.037-.066-.041C322.966,175.215,323.126,174.885,322.783,174.751Z" transform="translate(-267.153 -144.503)" fill="#253b11"/>
        <path id="Path_3839" data-name="Path 3839" d="M289.315,207.14c-.194.59.228,1.1.207,1.671-.253.126-.2.369-.226.583s-.107.323-.32.153a5.543,5.543,0,0,0-.406-2.21Z" transform="translate(-239.514 -171.927)" fill="#1e330d"/>
        <path id="Path_3840" data-name="Path 3840" d="M224.308,161.224c-.393.753-.959.68-1.538-.2A4.945,4.945,0,0,1,224.308,161.224Z" transform="translate(-184.899 -133.652)" fill="#619229"/>
        <path id="Path_3841" data-name="Path 3841" d="M331.14,182v-.632l.821-.063c-.022.255.252.306.34.488C331.932,182,331.516,181.88,331.14,182Z" transform="translate(-274.847 -150.479)" fill="#1e330d"/>
        <path id="Path_3842" data-name="Path 3842" d="M316.164,181.752v.49a.478.478,0,0,1-.522.1c-.068-.382-.879-.26-.595-.881C315.329,181.917,315.776,181.7,316.164,181.752Z" transform="translate(-261.439 -150.612)" fill="#1e330d"/>
        <path id="Path_3843" data-name="Path 3843" d="M294.5,218.71c.377.394.865.019,1.275.178-.216.425-.6.422-.984.364C294.483,219.206,294.4,219,294.5,218.71Z" transform="translate(-244.403 -181.53)" fill="#1e330d"/>
        <path id="Path_3844" data-name="Path 3844" d="M279.724,205.8c-.325.231-.7.1-1.052.151l-.012-.5c.094-.17.238-.158.393-.105C279.092,205.772,279.605,205.5,279.724,205.8Z" transform="translate(-231.288 -170.413)" fill="#1e330d"/>
        <path id="Path_3845" data-name="Path 3845" d="M274.15,176.789c-.51-.211-1.02.263-1.54.01C273.122,176.665,273.632,176.139,274.15,176.789Z" transform="translate(-226.267 -146.471)" fill="#1e330d"/>
        <path id="Path_3846" data-name="Path 3846" d="M345.028,178.64c.241.245.551.029.814.122-.017.248.253.294.34.474a.468.468,0,0,1-.53.056C345.611,178.914,344.858,179.211,345.028,178.64Z" transform="translate(-286.353 -148.272)" fill="#1e330d"/>
        <path id="Path_3847" data-name="Path 3847" d="M307.659,172.691a.82.82,0,0,0-.909-.442c.245-.357.569-.274.85-.107a.32.32,0,0,1,.06.549Z" transform="translate(-254.603 -142.76)" fill="#1e330d"/>
        <path id="Path_3848" data-name="Path 3848" d="M317.01,170.35a1.946,1.946,0,0,1-1.2.238A.934.934,0,0,1,317.01,170.35Z" transform="translate(-262.123 -141.28)" fill="#3c5129"/>
        <path id="Path_3849" data-name="Path 3849" d="M299.722,189.967a.5.5,0,0,1-.063-.451.088.088,0,0,1,0-.134c.262.1.325-.063.34-.272h.17l-.014.85Z" transform="translate(-248.692 -156.962)" fill="#1e330d"/>
        <path id="Path_3850" data-name="Path 3850" d="M302.73,209.912a1.07,1.07,0,0,1-.105-.872l.481.34a.444.444,0,0,1,.117.483Z" transform="translate(-251.142 -173.504)" fill="#1e330d"/>
        <path id="Path_3851" data-name="Path 3851" d="M297.208,175l-.065.389-.469.17c-.148-.138-.1-.325-.124-.493Z" transform="translate(-246.137 -145.25)" fill="#1e330d"/>
        <path id="Path_3852" data-name="Path 3852" d="M329.315,171.9c-.192-.048-.213-.216-.255-.367.044-.206-.076-.5.286-.532Z" transform="translate(-273.12 -141.93)" fill="#788769"/>
        <path id="Path_3853" data-name="Path 3853" d="M276.72,191.268a1.031,1.031,0,0,1-.85.133A.544.544,0,0,1,276.72,191.268Z" transform="translate(-228.972 -158.629)" fill="#1e330d"/>
        <path id="Path_3854" data-name="Path 3854" d="M313.746,187.641l-.066-.048.022-.08c0-.374.255-.4.534-.384l-.071.51Z" transform="translate(-260.355 -155.316)" fill="#1e330d"/>
        <path id="Path_3855" data-name="Path 3855" d="M349.9,195.426a.736.736,0,0,1,.692-.1C350.408,195.714,350.167,195.657,349.9,195.426Z" transform="translate(-290.418 -162.091)" fill="#1e330d"/>
        <path id="Path_3856" data-name="Path 3856" d="M335.364,168.426a.6.6,0,0,1-.724.083A.466.466,0,0,1,335.364,168.426Z" transform="translate(-277.752 -139.683)" fill="#788769"/>
        <path id="Path_3857" data-name="Path 3857" d="M354.921,182.87l-.141-.68C355.327,182.311,355.222,182.571,354.921,182.87Z" transform="translate(-294.468 -151.218)" fill="#1e330d"/>
        <path id="Path_3858" data-name="Path 3858" d="M271.257,193.07c-.129.289.008.566.034.85h-.17C271.068,193.621,270.667,193.264,271.257,193.07Z" transform="translate(-224.88 -160.249)" fill="#1e330d"/>
        <path id="Path_3859" data-name="Path 3859" d="M272.91,189.336a.657.657,0,0,1,.68-.139C273.41,189.453,273.2,189.615,272.91,189.336Z" transform="translate(-226.516 -157.006)" fill="#1e330d"/>
        <path id="Path_3860" data-name="Path 3860" d="M322.68,216.567a.349.349,0,0,1,.573-.214C323.168,216.7,322.9,216.594,322.68,216.567Z" transform="translate(-267.825 -179.507)" fill="#506143"/>
        <path id="Path_3861" data-name="Path 3861" d="M300.24,189.11c-.024.209-.087.367-.34.272C299.917,189.176,300.068,189.13,300.24,189.11Z" transform="translate(-248.917 -156.962)" fill="#1e330d"/>
        <path id="Path_3862" data-name="Path 3862" d="M287.147,197.135l.122.325h-.527l-.022-.34Z" transform="translate(-237.978 -163.61)" fill="#1e330d"/>
        <path id="Path_3863" data-name="Path 3863" d="M272,198.06h.17a.306.306,0,0,1,.109.355C272.054,198.4,272,198.259,272,198.06Z" transform="translate(-225.76 -164.39)" fill="#3c5129"/>
        <path id="Path_3864" data-name="Path 3864" d="M266.318,181.13a.275.275,0,0,1,.17.359C266.288,181.448,266.154,181.358,266.318,181.13Z" transform="translate(-220.983 -150.338)" fill="#788769"/>
        <path id="Path_3865" data-name="Path 3865" d="M286.88,221.536a.258.258,0,0,1,.359-.041C287.14,221.716,287.028,221.782,286.88,221.536Z" transform="translate(-238.111 -183.796)" fill="#3c5129"/>
        <path id="Path_3866" data-name="Path 3866" d="M288.211,175.409a.34.34,0,0,1-.471.087A.287.287,0,0,1,288.211,175.409Z" transform="translate(-238.825 -145.519)" fill="#506143"/>
        <path id="Path_3867" data-name="Path 3867" d="M292.23,174.5c-.088.143-.2.194-.34.082C291.956,174.389,292.063,174.334,292.23,174.5Z" transform="translate(-242.269 -144.755)" fill="#506143"/>
        <path id="Path_3868" data-name="Path 3868" d="M340.252,183.54a.318.318,0,0,1-.372-.1l.036-.17C340.079,183.3,340.268,183.292,340.252,183.54Z" transform="translate(-282.101 -152.115)" fill="#788769"/>
        <path id="Path_3869" data-name="Path 3869" d="M294.2,189.363c-.09.17-.2.17-.34.049C293.95,189.22,294.054,189.184,294.2,189.363Z" transform="translate(-243.904 -157.075)" fill="#506143"/>
        <path id="Path_3870" data-name="Path 3870" d="M222.91,156.523a.261.261,0,0,1,.374-.131C223.206,156.569,223.122,156.732,222.91,156.523Z" transform="translate(-185.015 -129.781)" fill="#3e6019"/>
        <path id="Path_3871" data-name="Path 3871" d="M339.086,183.26l-.036.17-.17-.046Z" transform="translate(-281.271 -152.106)" fill="#3c5129"/>
        <path id="Path_3872" data-name="Path 3872" d="M60.361,217.72c-.122,1.712-1.326,2.53-2.688,3.174a7.027,7.027,0,0,1-3.813.552c.015-.253.214-.284.4-.367a20.618,20.618,0,0,0,2.842-1.493c.62-.4.62-.6.037-1.006a6.65,6.65,0,0,1-3.092-4.437c.372-.071.292.665.68.43.34-.2.138-.624.153-.945a2.264,2.264,0,0,1,.354-1.518,1.6,1.6,0,0,1,.236.34,9.615,9.615,0,0,0,1.95,3.466c.272.28,0,.524.02.782-.908-.15-1.5-.877-2.38-1.4a2.171,2.171,0,0,0,.937,1.28A6.139,6.139,0,0,0,60.361,217.72Z" transform="translate(-44.703 -176.052)" fill="#619229"/>
        <path id="Path_3873" data-name="Path 3873" d="M51.87,170.6a2.254,2.254,0,0,0-.354,1.518c-.015.321.18.743-.153.945-.388.235-.308-.51-.68-.43a1.957,1.957,0,0,0-.381-.9,15.984,15.984,0,0,1-.469-3.726A23.1,23.1,0,0,1,50.84,162.1c.253.2.19.722.68.68l.02.529v.491a.562.562,0,0,0-.026.85v3.91a.561.561,0,0,0,.027.85v.323c-.031.257-.037.5.311.534Z" transform="translate(-41.34 -134.543)" fill="#4b771f"/>
        <path id="Path_3874" data-name="Path 3874" d="M13.961,37.66V33.75a.6.6,0,0,0,.026-.85v-.491c.323-.051.326-.286.308-.534l.029-.994a.316.316,0,0,0,.311-.365l.027-.828a10.226,10.226,0,0,0,1.36-3.538l.479-.056c.139,0,.28.02.42.014.3-.014.719.042.726-.371.009-.488-.447-.277-.711-.306a3.384,3.384,0,0,0-.666.053,9.945,9.945,0,0,1-1.01-.076c-1.265-.219-1.916.34-1.943,1.68a10.575,10.575,0,0,1-.061,1.348,1.018,1.018,0,0,1-1.307,1c-.146-.313-.272-.311-.379.024l-.054.394-.124.291a1.225,1.225,0,0,1-1.5.772,1.835,1.835,0,0,1-1.011-2.04c-.746.082-1.1,1.13-1.984.68a.865.865,0,0,1-.45-.748c-.017-.444.274-.784.391-1.19.093-.063.15-.153.071-.25s-.17-.075-.257.015c-.41.262-.692.694-1.168.864l-.831-.17-.092-.27q.046-.5.093-.994c.354-.663,1.091-.733,1.654-1.071.107-.012.252-.019.241-.151,0-.07-.143-.129-.219-.192a1.6,1.6,0,0,1,.62-1.933,1.992,1.992,0,0,1,2.079-.229c.4.182.437-.187.546-.444A6.022,6.022,0,0,1,14.28,18.85a4.908,4.908,0,0,1,3.582.972c.653,1.285,1.63,2.353,2.38,3.57a.632.632,0,0,0,.51.581c.039,0,.131-.1.144-.17.065-.34-.134-.522-.415-.644a13.745,13.745,0,0,0-1.273-2.336.987.987,0,0,1-.063-1.283c.755-1.3,1.408-2.659,2.1-4a.532.532,0,0,0,.048-.136c.212-.034.34-.141.3-.372l3.47-4.9c.2-.031.393-.112.4-.34s-.17-.325-.379-.34a1.13,1.13,0,0,1-.79-.371l.212-.146a1.193,1.193,0,0,0,1.431-.865c.17-.51.243-1.051-.381-1.36-.269-.85-.77-1.061-1.482-.6a2.3,2.3,0,0,0-1.062,2.5l-.486-.037a1.753,1.753,0,0,1,0-1.848l.156-.292c.34-.2.476-.583.705-.881,1.379-.62,1.906-.461,2.745.9.262.425.415.915.636,1.36.141.286.231.7.712.461.4-.194.532-.474.241-.867l-.024-.34a13.193,13.193,0,0,1,.085-1.6c.16-.933.748-1.258,1.663-.977a7.03,7.03,0,0,1,.879.308,1.311,1.311,0,0,1,.7,1.982c-.292.68-.909,1.166-1.04,1.921l-.061.25a2.126,2.126,0,0,0-.988-.139c-.01-.41-.17-.7-.612-.473a2.294,2.294,0,0,0-1.418,1.654c-.059.381-.061.756.476.79a4.3,4.3,0,0,0,1.052,2.776L27.4,13.5c-.25-.24-.3-.048-.34.158l-.615.374a.919.919,0,0,0-.981.524,13.745,13.745,0,0,0-2.482,8.427c.025.314.046.571.449.547.277.634.08,1.425.649,1.962a5.152,5.152,0,0,0,1.889,2.761.473.473,0,0,0,.479-.073,5.887,5.887,0,0,1,3.488-1.09c.561-.049.527-.3.3-.658A2.247,2.247,0,0,0,28.4,25.38c.107-.427-.272-.806-.124-1.238,2.077,1.164,2.077,1.164,3.1-.792l.44.031.2.374c-.194.4-.394.8-.58,1.2a.654.654,0,0,0,.211.889,4.063,4.063,0,0,0,1.678.9,12.2,12.2,0,0,1,.359,1.9c-.24.235-.19.408.114.527l.223,2.2v.33c-.18.144-.1.371-.17.542-.241.607-.02,1.382-.67,1.838-.328,0-.483-.26-.694-.44a4.721,4.721,0,0,0-3.34-1.207A9.994,9.994,0,0,0,24.616,33.9c-.36.212-.879.236-1.049.785.139.02.262.078.352.046,1.122-.416,2.242-.831,3.4-1.136a5.823,5.823,0,0,1,4.558.275,2.537,2.537,0,0,0,1.3.539,5.985,5.985,0,0,1,1.69,3.23q-.019.68-.039,1.346c-.386.17-.34.41-.139.692l-1.88,5.44a.284.284,0,0,0-.246.418,1.492,1.492,0,0,0,.269,1.336c.59.762.367,1.53-.51,2.164a12.441,12.441,0,0,1-3.74,1.53c-.211-.25-.292-.093-.359.112l-1,.216a1.642,1.642,0,0,0-1.5-.527c-.646.105-1.044-.34-1.052-1.02a6.783,6.783,0,0,1,.257-2.428,2.26,2.26,0,0,0,.107-1.957c.082-.476.457-.773.7-1.153a.568.568,0,0,0,.467-.554h.167c.308-.017.41-.229.442-.488a.228.228,0,0,0-.148-.15c-.313-.025-.423.184-.473.447l.012.194c-.241,0-.51-.085-.68.17a7.682,7.682,0,0,1-3.06,1.19c-.124-.153-.236-.141-.34.024l-1,.087a.388.388,0,0,0-.592.182l-.619.022a16.094,16.094,0,0,1-3.4-.656c-.019-.258.252-.5-.02-.782a9.629,9.629,0,0,1-1.95-3.466,1.6,1.6,0,0,0-.236-.34l-.015-.34c.017-.248.01-.483-.311-.534V38.5A.573.573,0,0,0,13.961,37.66ZM28.094,6.021a1.413,1.413,0,0,0,1.414,1.54,1.559,1.559,0,0,0,1.29-1.44c-.015-.544-.93-1.122-1.773-1.1C28.324,5.047,28.186,5.569,28.094,6.021Zm-8.178,28.9a2.2,2.2,0,0,0-2.625,2,10.441,10.441,0,0,1,2.626-1.986Z" transform="translate(-3.784 -3.64)" fill="#7eb33c"/>
        <path id="Path_3875" data-name="Path 3875" d="M181.6,159.423a8.138,8.138,0,0,0,2.589-.224,2.506,2.506,0,0,1,1.156.01.863.863,0,0,0,1-.236c.581-.67.94-.643,1.515.044.252.3.491.612.738.918.01.27-.121.593.275.716a10.985,10.985,0,0,1,.015,2.173c-.32.073-.318.308-.282.559a1.349,1.349,0,0,1-2.139.311c-.4-.308-.612-.3-.945.092a3.876,3.876,0,0,1-2.04,1.268,3.37,3.37,0,0,1-2.026-2.487,12.675,12.675,0,0,1,0-3.077Z" transform="translate(-150.519 -131.543)" fill="#7eb33c"/>
        <path id="Path_3876" data-name="Path 3876" d="M116.606,243.15a2.253,2.253,0,0,1-.107,1.957,6.745,6.745,0,0,0-.257,2.428c0,.68.391,1.13,1.052,1.02a1.62,1.62,0,0,1,1.5.527,5.83,5.83,0,0,1-2.71.34,1.4,1.4,0,0,1-1.166-1.756A12.248,12.248,0,0,1,116.606,243.15Z" transform="translate(-95.356 -201.815)" fill="#619229"/>
        <path id="Path_3877" data-name="Path 3877" d="M174.439,164.274a12.342,12.342,0,0,0,0,3.077,3.369,3.369,0,0,0,2.026,2.487c-.537.51-1.294.2-1.885.51a6,6,0,0,0-1.69-3.23v-.34c.649-.456.428-1.231.67-1.838.07-.17-.008-.4.17-.542.138,0,.274,0,.354-.148Z" transform="translate(-143.499 -136.328)" fill="#619229"/>
        <path id="Path_3878" data-name="Path 3878" d="M230.137,176.846l.036.058a5.411,5.411,0,0,1-2.183.6l-.19-.153a6.928,6.928,0,0,0,.022-.85c-.065-.724.141-1.124.974-1.061.462.034.879-.581,1.406-.148l.17.34A3.016,3.016,0,0,1,230.137,176.846Z" transform="translate(-189.074 -145.364)" fill="#7eb33c"/>
        <path id="Path_3879" data-name="Path 3879" d="M63.317,232.266a16.052,16.052,0,0,0,3.4.656.5.5,0,0,1-.478.369,6.125,6.125,0,0,1-4.362-1.141,2.163,2.163,0,0,1-.937-1.28C61.821,231.388,62.41,232.118,63.317,232.266Z" transform="translate(-50.579 -191.623)" fill="#3e6019"/>
        <path id="Path_3880" data-name="Path 3880" d="M228.854,186.13a5.411,5.411,0,0,0,2.183-.6l.042.292a1.9,1.9,0,0,1-2.239.68Z" transform="translate(-189.937 -153.99)" fill="#1e330d"/>
        <path id="Path_3881" data-name="Path 3881" d="M128.57,233.058a.565.565,0,0,1-.467.554l-.212-.381c.17-.257.439-.17.68-.17Z" transform="translate(-106.148 -193.43)" fill="#3e6019"/>
        <path id="Path_3882" data-name="Path 3882" d="M181.013,208.712c-.209-.282-.246-.53.139-.692C181.2,208.268,181.264,208.527,181.013,208.712Z" transform="translate(-150.112 -172.657)" fill="#619229"/>
        <path id="Path_3883" data-name="Path 3883" d="M223.927,184.559c-.034-.252-.036-.486.282-.559q.015.255.032.51Z" transform="translate(-185.847 -152.72)" fill="#619229"/>
        <path id="Path_3884" data-name="Path 3884" d="M98.56,241.588a.388.388,0,0,1,.592-.182C99.021,241.687,98.793,241.648,98.56,241.588Z" transform="translate(-81.804 -200.311)" fill="#3e6019"/>
        <path id="Path_3885" data-name="Path 3885" d="M169.1,244.458a.284.284,0,0,1,.246-.418A.359.359,0,0,1,169.1,244.458Z" transform="translate(-140.321 -202.554)" fill="#619229"/>
        <path id="Path_3886" data-name="Path 3886" d="M143.79,275.621c.066-.206.15-.364.359-.112A.279.279,0,0,1,143.79,275.621Z" transform="translate(-119.345 -228.566)" fill="#619229"/>
        <path id="Path_3887" data-name="Path 3887" d="M107.92,240.592c.1-.17.214-.17.34-.024C108.156,240.733,108.044,240.75,107.92,240.592Z" transform="translate(-89.573 -199.584)" fill="#3e6019"/>
        <path id="Path_3888" data-name="Path 3888" d="M85.21,77.869c-.753-1.217-1.731-2.286-2.38-3.57.869-.62,1.176-1.668,1.855-2.433.53-.6.79-1.419,1.53-1.846-.692,1.338-1.343,2.7-2.093,4a.981.981,0,0,0,.063,1.283,13.564,13.564,0,0,1,1.273,2.336Z" transform="translate(-68.748 -58.116)" fill="#3e6019"/>
        <path id="Path_3889" data-name="Path 3889" d="M112.008,29.51a1.132,1.132,0,0,0,.79.376c.2.024.391.117.379.34s-.2.3-.4.34c-.027-.4-.372-.326-.614-.422-.7-.279-1.53-.34-1.919-1.144l.486.029c.26.17.643.131.816.459.044.17.121.141.209.034Z" transform="translate(-91.499 -24.07)" fill="#619229"/>
        <path id="Path_3890" data-name="Path 3890" d="M14.892,128c.078.065.214.122.219.192.01.133-.134.138-.241.151Z" transform="translate(-12.341 -106.24)" fill="#3c5129"/>
        <path id="Path_3891" data-name="Path 3891" d="M103.242,67c.034.231-.085.34-.3.372a.306.306,0,0,1,.3-.372Z" transform="translate(-85.437 -55.61)" fill="#3e6019"/>
        <path id="Path_3892" data-name="Path 3892" d="M152.911,61.2a3.785,3.785,0,0,1-.869,1.02.411.411,0,0,0-.408.267,3.723,3.723,0,0,1-1.591.185c-.122-.284-.34-.3-.592-.2l-.478-.082c-.194-.2-.4-.365-.707-.253a11.249,11.249,0,0,1-2.3-1l-.209-.119a.386.386,0,0,0-.134-.039c-.082-.272-.308-.313-.542-.34l-.292-.153a1.136,1.136,0,0,0-.741-.313,4.218,4.218,0,0,0-2.04-1.227,1,1,0,0,0-.979-.59c-.258-.017-.17.286-.211.459l-.68,1.037c-.393-.729-.012-1.642-.556-2.337.51-.146.442-.58.36-.906a10.489,10.489,0,0,1-.139-2.524,2.55,2.55,0,0,0-.2-1.153c-.053-.51.3-.824.59-1.129a1.239,1.239,0,0,0,.359-1.266c.51-.014,1,.369,1.53.116a1.142,1.142,0,0,0,.872-.607.683.683,0,0,1,.962-.445c.17.862.694.7,1.253.449a.077.077,0,0,0,.088-.031.51.51,0,0,0,.43-.34.25.25,0,0,0,.189-.248.77.77,0,0,0,.411-.51c1.069.289,2.135.586,3.208.862a6.3,6.3,0,0,0,2.21.576l1.34.51c.07.3.3.286.532.277l.151.029a.354.354,0,0,0,.355.323c0,.19.134.284.274.394a2.915,2.915,0,0,1,1.011,3.1,4.51,4.51,0,0,0-.083,1c.049.42-.34.68-.388,1.061-.192.065-.309.17-.26.4l-.96,2.3a.836.836,0,0,0-.406.76l-.075.282a.34.34,0,0,0-.284.4Zm-3.592-7.709c0,1.351.736,2.273,1.805,2.252a2.551,2.551,0,0,0,2.108-2.195,2.03,2.03,0,0,0-2.021-2.054C149.934,51.484,149.321,52.131,149.319,53.495Z" transform="translate(-115.851 -40.603)" fill="#7eb33c"/>
        <path id="Path_3893" data-name="Path 3893" d="M164.076,121.35a4.011,4.011,0,0,1-1.678-.9.653.653,0,0,1-.211-.889c.185-.4.386-.8.58-1.2l.3-.015a1.574,1.574,0,0,0,.867.471l.02.053h.056a.216.216,0,0,0,.255.134l.947.651-.056.529-.092.231a.646.646,0,0,0-.3.435Z" transform="translate(-134.542 -98.231)" fill="#f1f4ed"/>
        <path id="Path_3894" data-name="Path 3894" d="M226.132,68.661a4.509,4.509,0,0,1,.083-1,2.912,2.912,0,0,0-1.011-3.1c-.138-.11-.265-.2-.274-.394l.51.019a.32.32,0,0,0,.314.15,4.325,4.325,0,0,1,1.227,1.18l.17,1.045C226.9,67.295,226.822,68.129,226.132,68.661Z" transform="translate(-186.692 -53.253)" fill="#90bf59"/>
        <path id="Path_3895" data-name="Path 3895" d="M228.219,60.546a.318.318,0,0,1-.314-.15c-.022-.331.274-.51.381-.77a1.73,1.73,0,0,1,2.059,1.062,1.817,1.817,0,0,0,.037.9l-.1.311-.525-.17a1.228,1.228,0,0,0-.53-1.256C228.919,60.279,228.5,59.861,228.219,60.546Z" transform="translate(-189.16 -49.472)" fill="#7eb33c"/>
        <path id="Path_3896" data-name="Path 3896" d="M184.468,48.766a6.3,6.3,0,0,1-2.21-.576c-1.073-.275-2.139-.573-3.208-.862l.059-.309.2-.029c1.484.461,2.966.926,4.454,1.377C184.039,48.45,184.323,48.479,184.468,48.766Z" transform="translate(-148.611 -39.001)" fill="#3e6019"/>
        <path id="Path_3897" data-name="Path 3897" d="M224.066,59.6c-.107.267-.4.44-.381.77l-.51-.019a.354.354,0,0,1-.355-.323C223.344,60.2,223.531,59.413,224.066,59.6Z" transform="translate(-184.941 -49.441)" fill="#50831d"/>
        <path id="Path_3898" data-name="Path 3898" d="M237.308,72.093l.525.17a1.544,1.544,0,0,1-.663.872L237,72.09Z" transform="translate(-196.71 -59.835)" fill="#619229"/>
        <path id="Path_3899" data-name="Path 3899" d="M168.677,117.65a1.579,1.579,0,0,1-.867-.471.486.486,0,0,1,.418-.229l.292.153.17.4A.252.252,0,0,1,168.677,117.65Z" transform="translate(-139.282 -97.069)" fill="#3c5129"/>
        <path id="Path_3900" data-name="Path 3900" d="M242.094,66.881a1.817,1.817,0,0,1-.037-.9C242.471,66.264,242.444,66.566,242.094,66.881Z" transform="translate(-200.874 -54.763)" fill="#3e6019"/>
        <path id="Path_3901" data-name="Path 3901" d="M190.73,126.512c.306-.112.51.053.707.253C191.087,127,190.914,126.745,190.73,126.512Z" transform="translate(-158.306 -104.975)" fill="#3e6019"/>
        <path id="Path_3902" data-name="Path 3902" d="M220.125,113.5a.836.836,0,0,1,.406-.76A.612.612,0,0,1,220.125,113.5Z" transform="translate(-182.703 -93.574)" fill="#3e6019"/>
        <path id="Path_3903" data-name="Path 3903" d="M197.7,128.382c.253-.1.469-.083.592.2C198.057,128.625,197.751,128.887,197.7,128.382Z" transform="translate(-164.091 -106.511)" fill="#3e6019"/>
        <path id="Path_3904" data-name="Path 3904" d="M175.2,147.657c-.3-.119-.354-.292-.114-.527A.409.409,0,0,1,175.2,147.657Z" transform="translate(-145.198 -122.118)" fill="#619229"/>
        <path id="Path_3905" data-name="Path 3905" d="M180.1,126.569l.056-.529C180.513,126.254,180.506,126.433,180.1,126.569Z" transform="translate(-149.483 -104.613)" fill="#3c5129"/>
        <path id="Path_3906" data-name="Path 3906" d="M172.17,118.258l-.17-.4c.235.029.461.07.542.34Z" transform="translate(-142.76 -97.824)" fill="#3e6019"/>
        <path id="Path_3907" data-name="Path 3907" d="M219.332,60.612c-.229,0-.462.02-.532-.277C219.072,60.245,219.213,60.407,219.332,60.612Z" transform="translate(-181.604 -50.057)" fill="#619229"/>
        <path id="Path_3908" data-name="Path 3908" d="M177.81,130.945a.646.646,0,0,1,.3-.435C178.182,130.772,178.1,130.933,177.81,130.945Z" transform="translate(-147.582 -108.324)" fill="#3c5129"/>
        <path id="Path_3909" data-name="Path 3909" d="M210.54,127.434a.411.411,0,0,1,.408-.267C210.916,127.415,210.788,127.505,210.54,127.434Z" transform="translate(-174.748 -105.548)" fill="#3e6019"/>
        <path id="Path_3910" data-name="Path 3910" d="M217.976,119.263a.34.34,0,0,1,.279-.393.3.3,0,0,1-.279.393Z" transform="translate(-180.916 -98.662)" fill="#3e6019"/>
        <path id="Path_3911" data-name="Path 3911" d="M228.108,97.269a.316.316,0,0,1,.26-.4.3.3,0,0,1-.26.4Z" transform="translate(-189.321 -80.402)" fill="#3e6019"/>
        <path id="Path_3912" data-name="Path 3912" d="M178.174,163.328c-.08.139-.216.146-.354.148v-.33A.314.314,0,0,1,178.174,163.328Z" transform="translate(-147.59 -135.406)" fill="#3e6019"/>
        <path id="Path_3913" data-name="Path 3913" d="M176,120.09l.209.119Z" transform="translate(-146.08 -99.675)" fill="#3c5129"/>
        <path id="Path_3914" data-name="Path 3914" d="M173.6,121.509a.216.216,0,0,1-.255-.134A.212.212,0,0,1,173.6,121.509Z" transform="translate(-143.88 -100.735)" fill="#3c5129"/>
        <path id="Path_3915" data-name="Path 3915" d="M61.725,131.985a10.517,10.517,0,0,1-1.36,3.538c-.046-.462-.355-.552-.745-.529a11.711,11.711,0,0,1,.632-2.149A1.027,1.027,0,0,1,61.725,131.985Z" transform="translate(-49.484 -109.477)" fill="#619229"/>
        <path id="Path_3916" data-name="Path 3916" d="M56.539,150.083c.389-.024.7.066.745.529l-.027.828a.3.3,0,0,0-.311.365l-.027.994H56.59c-.495.041-.432-.479-.68-.68l.187-1.02a.292.292,0,0,0,.294-.4C56.4,150.493,56.338,150.256,56.539,150.083Z" transform="translate(-46.404 -124.566)" fill="#50831d"/>
        <path id="Path_3917" data-name="Path 3917" d="M73.47,128.13a3.385,3.385,0,0,1,.666-.053c.263.029.719-.182.711.306,0,.413-.425.357-.726.371-.139,0-.28-.009-.42-.014C73.73,128.5,73.56,128.327,73.47,128.13Z" transform="translate(-60.979 -106.286)" fill="#619229"/>
        <path id="Path_3918" data-name="Path 3918" d="M57.262,153.79c.041.236-.048.376-.294.4A.36.36,0,0,1,57.262,153.79Z" transform="translate(-47.281 -127.646)" fill="#4b771f"/>
        <path id="Path_3919" data-name="Path 3919" d="M44.77,154.5l.124-.291.28.085-.17.24Z" transform="translate(-37.158 -127.995)" fill="#506143"/>
        <path id="Path_3920" data-name="Path 3920" d="M45.81,150.62c.107-.34.233-.34.379-.024Z" transform="translate(-38.021 -124.801)" fill="#506143"/>
        <path id="Path_3921" data-name="Path 3921" d="M145.747,32.713l-.061.313a.77.77,0,0,1-.411.51l-.126-.143-.126-.326v-.891c.2-.258.015-.3-.184-.328-.782-.707-1.36-.629-1.749.229a1.588,1.588,0,0,0-.059.9c-.17.3-.462.321-.75.365a2.138,2.138,0,0,0-.2-1.137.927.927,0,0,0-1.768.133,1.46,1.46,0,0,0,.9,1.955l.263.45c-.532.253-1.02-.129-1.53-.114l-.048-.019a4.31,4.31,0,0,1-1.052-2.776,3.585,3.585,0,0,1,.68-1.493l.212-.18.66-.3a2.133,2.133,0,0,1,.988.139l.053.049h.071l.17.16c.17.209.34.425.527.622s.4.2.444-.058c.092-.51.609-.6.821-.976,1.273-.231,2.014.418,2.351,2.059A1.319,1.319,0,0,0,145.747,32.713Z" transform="translate(-115.245 -24.695)" fill="#f1f4ed"/>
        <path id="Path_3922" data-name="Path 3922" d="M136.635,19.307l.024.34c-.218.114-.119.68-.549.442a.592.592,0,0,1-.265-.738C136.052,18.879,136.368,19.321,136.635,19.307Z" transform="translate(-112.715 -15.88)" fill="#1e330d"/>
        <path id="Path_3923" data-name="Path 3923" d="M153.924,30.019h-.071l-.053-.049.061-.25C153.883,29.822,153.9,29.921,153.924,30.019Z" transform="translate(-127.654 -24.667)" fill="#788769"/>
        <path id="Path_3924" data-name="Path 3924" d="M224.2,167.756c-.4-.122-.265-.445-.275-.716A.551.551,0,0,1,224.2,167.756Z" transform="translate(-185.849 -138.644)" fill="#619229"/>
        <path id="Path_3925" data-name="Path 3925" d="M355.495,246.017a2.263,2.263,0,0,1-.35.141c-.109.022-.24-.017-.17-.153.036-.071.184-.107.286-.117C355.318,245.881,355.386,245.954,355.495,246.017Z" transform="translate(-294.613 -204.087)" fill="#fdfdfd"/>
        <path id="Path_3926" data-name="Path 3926" d="M204.444,155.06a.372.372,0,0,1-.17.357C204.024,155.154,204.214,155.1,204.444,155.06Z" transform="translate(-169.449 -128.7)" fill="#3e6019"/>
        <path id="Path_3927" data-name="Path 3927" d="M205.519,152.15l-.046.189C205.341,152.24,205.349,152.175,205.519,152.15Z" transform="translate(-170.467 -126.285)" fill="#3e6019"/>
        <path id="Path_3928" data-name="Path 3928" d="M213.166,141.17l-.216.212A.23.23,0,0,1,213.166,141.17Z" transform="translate(-176.748 -117.171)" fill="#3e6019"/>
        <path id="Path_3929" data-name="Path 3929" d="M5.13,143.77l.831.17C5.586,144.358,5.348,144.112,5.13,143.77Z" transform="translate(-4.257 -119.329)" fill="#3c5129"/>
        <path id="Path_3930" data-name="Path 3930" d="M16.89,139.34c.082-.09.18-.111.257-.015s.022.187-.071.25Z" transform="translate(-14.018 -115.588)" fill="#3c5129"/>
        <path id="Path_3931" data-name="Path 3931" d="M286.522,190.15h.418l.071.668c-.182.129-.17.245.022.35l.027.4c-.029.207-.153.5.27.308h.362c.143.258.62-.019.658.41-1.069.153-1.069.153-.995,1.4,0,.139.01.289-.17.325s-.252-.1-.267-.24c-.032-.3-.046-.61-.066-.916-.066-.605-.27-.661-.889-.245-.745,0-1.1.313-.875,1.093l-.481-.34-.134-.362c-.138-.394-.34-.367-.59-.1l-.959.134-.745.2-.62-.024c-.119-.308-.632-.025-.68-.45.372-.27,1.311.34,1.158-.748h.359l.17.34c0,.17.06.308.258.313a.255.255,0,0,0,.262-.233l.85-.071c.291.019.6.073.651-.352l.265-.073.022.014c-.07.129-.087.26.063.34a.243.243,0,0,0,.376-.151C286.619,191.857,286.619,191.857,286.522,190.15Z" transform="translate(-233.131 -157.825)" fill="#1e330d"/>
        <path id="Path_3932" data-name="Path 3932" d="M310.83,203.312c.619-.415.823-.359.889.245C311.473,203.292,311.143,203.331,310.83,203.312Z" transform="translate(-257.989 -168.528)" fill="#3c5129"/>
        <path id="Path_3933" data-name="Path 3933" d="M287.3,199.46h-.359c-.17-.059-.19-.187-.158-.34h.527a.233.233,0,0,1-.01.34Z" transform="translate(-238.023 -165.27)" fill="#1e330d"/>
        <path id="Path_3934" data-name="Path 3934" d="M316.346,194.45c-.189-.105-.2-.221-.022-.35a.236.236,0,0,1,.022.35Z" transform="translate(-262.443 -161.104)" fill="#3c5129"/>
        <path id="Path_3935" data-name="Path 3935" d="M317.319,198.828c-.423.19-.3-.1-.27-.308Z" transform="translate(-263.118 -164.772)" fill="#3c5129"/>
        <path id="Path_3936" data-name="Path 3936" d="M300.779,195.237l-.265.073c-.2-.129-.119-.51-.464-.51l.022-.67h.456Z" transform="translate(-249.042 -161.128)" fill="#1e330d"/>
        <path id="Path_3937" data-name="Path 3937" d="M304.659,200.909a.243.243,0,0,1-.376.151c-.148-.078-.133-.209-.063-.34Z" transform="translate(-252.461 -166.598)" fill="#506143"/>
        <path id="Path_3938" data-name="Path 3938" d="M299.147,198.09c.34,0,.265.379.464.51-.051.423-.36.371-.651.352C299.234,198.709,299.1,198.379,299.147,198.09Z" transform="translate(-248.137 -164.415)" fill="#1e330d"/>
        <path id="Path_3939" data-name="Path 3939" d="M291.46,203.18c-.032.139-.105.238-.262.233-.2,0-.258-.138-.258-.313Z" transform="translate(-241.481 -168.574)" fill="#3c5129"/>
        <path id="Path_3940" data-name="Path 3940" d="M326.949,177.93c.34.134.184.462.27.7h-.33Z" transform="translate(-271.319 -147.682)" fill="#788769"/>
        <path id="Path_3941" data-name="Path 3941" d="M298.59,205.359c.245-.272.451-.3.59.1Z" transform="translate(-247.83 -170.28)" fill="#788769"/>
        <path id="Path_3942" data-name="Path 3942" d="M328.815,182l.066.041L328.81,182Z" transform="translate(-272.913 -151.06)" fill="#3c5129"/>
        <path id="Path_3943" data-name="Path 3943" d="M58.995,172.11a.594.594,0,0,1-.025.85A.564.564,0,0,1,58.995,172.11Z" transform="translate(-48.794 -142.852)" fill="#619229"/>
        <path id="Path_3944" data-name="Path 3944" d="M58.974,200.12a.6.6,0,0,1,.027.85A.561.561,0,0,1,58.974,200.12Z" transform="translate(-48.797 -166.1)" fill="#619229"/>
        <path id="Path_3945" data-name="Path 3945" d="M59.91,166.11h.328c.019.248.015.483-.308.534Q59.925,166.375,59.91,166.11Z" transform="translate(-49.725 -137.872)" fill="#619229"/>
        <path id="Path_3946" data-name="Path 3946" d="M59.945,207c.321.051.328.284.311.534C59.913,207.5,59.918,207.258,59.945,207Z" transform="translate(-49.744 -171.811)" fill="#619229"/>
        <path id="Path_3947" data-name="Path 3947" d="M120.487,58.129l.048.019a1.243,1.243,0,0,1-.359,1.266c-.286.3-.643.624-.59,1.129a.857.857,0,0,0-.493.775.779.779,0,0,0-.274.869,2.992,2.992,0,0,0,0,1.334.906.906,0,0,0,.4.954l.037.248a.35.35,0,0,0,.306.382v.02c.544.694.17,1.606.556,2.336a2.074,2.074,0,0,0,.192,1.265c-.148.432.231.809.124,1.238a1.314,1.314,0,0,1-1.87,0,2.1,2.1,0,0,0-2.456.117c-.569-.537-.372-1.328-.648-1.962a14.314,14.314,0,0,1,1.124-5.926c.53-1.253,1.283-2.37,1.889-3.57l.615-.374a.3.3,0,0,0,.34-.16Z" transform="translate(-95.826 -48.214)" fill="#233e0a"/>
        <path id="Path_3948" data-name="Path 3948" d="M119.32,126.339a2.1,2.1,0,0,1,2.456-.117c.68.474,1.243.583,1.87,0a2.247,2.247,0,0,1,1.829,1.052c.229.359.263.609-.3.658a5.84,5.84,0,0,0-3.488,1.09.473.473,0,0,1-.479.073A5.128,5.128,0,0,1,119.32,126.339Z" transform="translate(-99.035 -104.477)" fill="#e8e9e6"/>
        <path id="Path_3949" data-name="Path 3949" d="M142.928,109.355a2.074,2.074,0,0,1-.192-1.265l.68-1.037c.51-.112.748.41,1.176.483l1.428,1.02C145.011,110.518,145.011,110.518,142.928,109.355Z" transform="translate(-118.448 -88.841)" fill="#f1f4ed"/>
        <path id="Path_3950" data-name="Path 3950" d="M125.95,171.085v.34a2.535,2.535,0,0,1-1.3-.539,5.838,5.838,0,0,0-4.558-.275,35.743,35.743,0,0,0-3.4,1.136c-.088.034-.212-.026-.352-.046.17-.551.688-.573,1.049-.785a9.967,9.967,0,0,1,4.529-1.472,4.721,4.721,0,0,1,3.34,1.207C125.462,170.825,125.622,171.088,125.95,171.085Z" transform="translate(-96.562 -140.635)" fill="#90bf59"/>
        <path id="Path_3951" data-name="Path 3951" d="M116.166,61.1c-.605,1.2-1.36,2.32-1.889,3.57a14.314,14.314,0,0,0-1.124,5.926c-.4.025-.425-.233-.449-.547a13.738,13.738,0,0,1,2.482-8.427A.915.915,0,0,1,116.166,61.1Z" transform="translate(-93.517 -50.695)" fill="#90bf59"/>
        <path id="Path_3952" data-name="Path 3952" d="M113.617,16.224c-.17-.328-.556-.286-.816-.459a2.3,2.3,0,0,1,1.062-2.5c.712-.459,1.214-.255,1.482.6a1.088,1.088,0,0,1-.311.663A3.217,3.217,0,0,0,114.3,16.1l-.212.146-.258.012Z" transform="translate(-93.573 -10.811)" fill="#4b771f"/>
        <path id="Path_3953" data-name="Path 3953" d="M143,9.117c.09-.459.228-.983.93-1,.85-.022,1.758.558,1.773,1.1a1.555,1.555,0,0,1-1.29,1.44A1.405,1.405,0,0,1,143,9.117Z" transform="translate(-118.69 -6.736)" fill="#4b771f"/>
        <path id="Path_3954" data-name="Path 3954" d="M121.89,20.212a3.2,3.2,0,0,1,.739-1.569,1.122,1.122,0,0,0,.311-.663c.624.316.554.86.381,1.36A1.192,1.192,0,0,1,121.89,20.212Z" transform="translate(-101.168 -14.923)" fill="#619229"/>
        <path id="Path_3955" data-name="Path 3955" d="M137.978,27.688l-.658.3a.2.2,0,0,0-.213.18,3.585,3.585,0,0,0-.68,1.493c-.537-.036-.535-.41-.476-.792a2.281,2.281,0,0,1,1.418-1.654C137.808,26.984,137.968,27.281,137.978,27.688Z" transform="translate(-112.818 -22.521)" fill="#4b771f"/>
        <path id="Path_3956" data-name="Path 3956" d="M82.085,183.814a10.441,10.441,0,0,0-2.625,2A2.2,2.2,0,0,1,82.085,183.814Z" transform="translate(-65.951 -152.519)" fill="#619229"/>
        <path id="Path_3957" data-name="Path 3957" d="M155.278,109.3l-1.428-1.02q0-.17.012-.352a4.252,4.252,0,0,1,2.04,1.227l-.18.184Z" transform="translate(-127.695 -89.582)" fill="#4b771f"/>
        <path id="Path_3958" data-name="Path 3958" d="M96.83,115.078l.241-.228c.282.122.481.3.416.644-.012.065-.105.17-.144.17A.65.65,0,0,1,96.83,115.078Z" transform="translate(-80.368 -95.326)" fill="#50831d"/>
        <path id="Path_3959" data-name="Path 3959" d="M131.83,229.808c.049-.263.161-.471.473-.447.056,0,.153.1.148.15-.032.258-.136.471-.442.488Z" transform="translate(-109.418 -190.369)" fill="#619229"/>
        <path id="Path_3960" data-name="Path 3960" d="M164.84,115.294l.18-.184a1.136,1.136,0,0,1,.741.313c-.17.026-.34.054-.416.229l-.3.015Z" transform="translate(-136.817 -95.541)" fill="#3e6019"/>
        <path id="Path_3961" data-name="Path 3961" d="M137.23,57.483a.3.3,0,0,1-.34.16C136.927,57.442,136.98,57.252,137.23,57.483Z" transform="translate(-113.618 -47.623)" fill="#619229"/>
        <path id="Path_3962" data-name="Path 3962" d="M61.961,158.442a.3.3,0,0,1,.311-.365.316.316,0,0,1-.311.365Z" transform="translate(-51.42 -131.203)" fill="#619229"/>
        <path id="Path_3963" data-name="Path 3963" d="M131.83,232l.17.19h-.167Z" transform="translate(-109.418 -192.561)" fill="#3e6019"/>
        <path id="Path_3964" data-name="Path 3964" d="M117.9,31.84l.209.034C118.021,31.981,117.944,32.012,117.9,31.84Z" transform="translate(-97.856 -26.427)" fill="#7eb33c"/>
        <path id="Path_3965" data-name="Path 3965" d="M196.87,66.093c0-1.36.615-2.008,1.9-1.994a2.03,2.03,0,0,1,2.016,2.054,2.547,2.547,0,0,1-2.108,2.195C197.606,68.366,196.868,67.444,196.87,66.093Z" transform="translate(-163.402 -53.202)" fill="#50831d"/>
        <path id="Path_3966" data-name="Path 3966" d="M136,76.2c.083.326.146.76-.36.906v-.02c.059-.258-.061-.369-.306-.382l-.037-.248c.073-.4.039-.763-.4-.954a3,3,0,0,1,0-1.334c.36-.2.51-.476.275-.869a.837.837,0,0,1,.493-.775,2.55,2.55,0,0,1,.2,1.153" transform="translate(-111.906 -60.191)" fill="#7eb33c"/>
        <path id="Path_3967" data-name="Path 3967" d="M153.043,50.486l-.263-.45c.558-.088.7-.646,1.061-.95.287-.044.585-.07.75-.365a.563.563,0,0,1,.267.7l.022.015a.684.684,0,0,0-.962.445A1.148,1.148,0,0,1,153.043,50.486Z" transform="translate(-126.807 -40.437)" fill="#f1f4ed"/>
        <path id="Path_3968" data-name="Path 3968" d="M148.128,105.007q0,.17-.012.352c-.428-.073-.68-.595-1.176-.483.037-.17-.048-.476.211-.459A1,1,0,0,1,148.128,105.007Z" transform="translate(-121.96 -86.665)" fill="#619229"/>
        <path id="Path_3969" data-name="Path 3969" d="M166.265,53.3c-.559.246-1.09.411-1.253-.449l-.022-.015c.321.223.68.017,1.008.078a.447.447,0,0,0,.267.386Z" transform="translate(-136.941 -43.857)" fill="#e8e9e6"/>
        <path id="Path_3970" data-name="Path 3970" d="M173.328,51.286a.25.25,0,0,1-.189.248l-.49-.07.229-.314h.314Z" transform="translate(-143.299 -42.454)" fill="#f1f4ed"/>
        <path id="Path_3971" data-name="Path 3971" d="M172.019,52.958l.49.07a.51.51,0,0,1-.428.34L171.89,53l.056-.048Z" transform="translate(-142.669 -43.948)" fill="#e8e9e6"/>
        <path id="Path_3972" data-name="Path 3972" d="M171.077,53.2l.189.371a.076.076,0,0,1-.088.032.447.447,0,0,1-.267-.386Z" transform="translate(-141.855 -44.156)" fill="#f1f4ed"/>
        <path id="Path_3973" data-name="Path 3973" d="M231.307,64.516H231a4.323,4.323,0,0,0-1.226-1.18c.284-.68.7-.267,1.008-.071A1.218,1.218,0,0,1,231.307,64.516Z" transform="translate(-190.709 -52.258)" fill="#50831d"/>
        <path id="Path_3974" data-name="Path 3974" d="M148.864,42.446c-.364.3-.51.862-1.061.95a1.46,1.46,0,0,1-.9-1.955.927.927,0,0,1,1.768-.133A2.028,2.028,0,0,1,148.864,42.446Z" transform="translate(-121.834 -33.796)" fill="#1e330d"/>
        <path id="Path_3975" data-name="Path 3975" d="M164.663,41.658l-.17.015c-.34-.061-.68.144-1.008-.078a.563.563,0,0,0-.263-.7,1.588,1.588,0,0,1,.059-.9c.383-.85.967-.937,1.749-.229a.323.323,0,0,0,.19.325v.877a.371.371,0,0,0-.189.34l-.24.313-.073-.012Z" transform="translate(-135.441 -32.614)" fill="#1e330d"/>
        <path id="Path_3977" data-name="Path 3977" d="M174,49.49a.371.371,0,0,1,.189-.34l.126.326Z" transform="translate(-144.418 -40.794)" fill="#e8e9e6"/>
        <path id="Path_3978" data-name="Path 3978" d="M142.88,32.336a.2.2,0,0,1,.212-.18Z" transform="translate(-118.59 -26.689)" fill="#7eb33c"/>
        <path id="Path_3979" data-name="Path 3979" d="M135.326,77.08c.233.393.085.665-.275.869a.78.78,0,0,1,.275-.869Z" transform="translate(-112.059 -63.976)" fill="#7eb33c"/>
        <path id="Path_3980" data-name="Path 3980" d="M135.228,90c.437.19.471.549.4.954A.9.9,0,0,1,135.228,90Z" transform="translate(-112.231 -74.7)" fill="#7eb33c"/>
        <path id="Path_3981" data-name="Path 3981" d="M137.821,97.11c.245.012.367.124.306.382A.348.348,0,0,1,137.821,97.11Z" transform="translate(-114.389 -80.601)" fill="#7eb33c"/>
      </g>
    </g>
  </g>
</svg>
