<svg xmlns="http://www.w3.org/2000/svg" width="88" height="68" viewBox="0 0 88 68">
  <g id="instamojo" transform="translate(-6348 -19539)">
    <rect id="Rectangle_17691" data-name="Rectangle 17691" width="88" height="68" rx="5" transform="translate(6348 19539)" fill="#fff" opacity="0"/>
    <g id="Layer_2" data-name="Layer 2" transform="translate(6356.354 19563.223)">
      <g id="Layer_1" data-name="Layer 1" transform="translate(0)">
        <path id="Path_3982" data-name="Path 3982" d="M359.667,31.917c-.264.149-.255.442-.354.676a4.513,4.513,0,0,1-6.131,1.881,4.112,4.112,0,0,1-1.593-5.762,4.2,4.2,0,0,1,4.424-1.923,3.884,3.884,0,0,1,3.481,2.817c.042.133,0,.3.177.365Zm-2.72-1.062a1.723,1.723,0,0,0-1.626-1.92,1.759,1.759,0,0,0-1.616,1.946,1.75,1.75,0,0,0,1.593,1.877A1.707,1.707,0,0,0,356.947,30.855Z" transform="translate(-288.887 -22.007)" fill="#31317f"/>
        <path id="Path_3983" data-name="Path 3983" d="M326.526,38.244c-.147-.354-.278-.708-.446-1.049-.262-.543-.616-1.005.235-1.446.481-.248.421-.929.423-1.458,0-2.263.034-4.528-.016-6.791-.016-.694.209-.823.844-.812,1.877.03,1.879,0,1.879,1.874,0,2-.053,4,.016,6a3.283,3.283,0,0,1-2.4,3.686Z" transform="translate(-268.133 -21.964)" fill="#323280"/>
        <path id="Path_3984" data-name="Path 3984" d="M3,30.79c.012,2.318.019,4.636.046,6.954a.676.676,0,0,1-.57.745A3.362,3.362,0,0,1,0,38.259v-.354c.288-.262.177-.607.177-.917V30.979A3.983,3.983,0,0,0,3,30.79Z" transform="translate(0 -25.342)" fill="#2e2e7e"/>
        <path id="Path_3985" data-name="Path 3985" d="M1.946,0c.437.366.97.662,1.035,1.313a1.461,1.461,0,0,1-.819,1.6A1.32,1.32,0,0,1,.485,2.6c-.15-.17-.322-.32-.485-.48V1.062A3.385,3.385,0,0,1,1.239,0Z" transform="translate(0)" fill="#d15d34"/>
        <path id="Path_3986" data-name="Path 3986" d="M3,27.351a3.983,3.983,0,0,1-2.822.189L0,27.388v-.531a5.008,5.008,0,0,1,2.2-.177C2.575,26.758,3.049,26.753,3,27.351Z" transform="translate(0 -21.903)" fill="#eeb937"/>
        <path id="Path_3987" data-name="Path 3987" d="M0,31l.177.152v6.009c0,.31.117.655-.177.917Z" transform="translate(0 -25.515)" fill="#393984"/>
        <path id="Path_3988" data-name="Path 3988" d="M1.239,0A3.385,3.385,0,0,0,0,1.062" transform="translate(0)" fill="#d15d34"/>
        <path id="Path_3989" data-name="Path 3989" d="M199.57,32.085a7.921,7.921,0,0,1,.329-3.059,3.9,3.9,0,0,1,5.662-1.718.822.822,0,0,0,1.062,0,3.893,3.893,0,0,1,5.984,3.072c.088,1.322.021,2.654.044,3.98,0,.4-.106.552-.541.579-2.184.134-2.184.149-2.184-2.007,0-.738.018-1.476-.011-2.212-.034-.867-.467-1.311-1.223-1.313a1.175,1.175,0,0,0-1.239,1.308q-.061,1.813,0,3.626c.012.476-.145.582-.6.6-2.077.069-2.076.083-2.079-2.026,0-.738.021-1.476-.028-2.21s-.407-1.306-1.26-1.288-1.191.561-1.209,1.334c-.027,1.178-.046,2.359-.016,3.539.012.5-.138.644-.641.655-2.035.048-2.035.067-2.035-1.987Z" transform="translate(-164.256 -21.969)" fill="#31317f"/>
        <path id="Path_3990" data-name="Path 3990" d="M152.193,34.159c-2.123,1.324-4.472.775-5.5-1.178a4.353,4.353,0,0,1,2.065-5.949,4.213,4.213,0,0,1,5.924,3.85c.016,1.148-.016,2.3.011,3.447.011.457-.124.639-.595.6a7.344,7.344,0,0,0-1.324,0C152.232,34.987,152.115,34.716,152.193,34.159Zm-.177-3.38a1.6,1.6,0,1,0-3.178-.037,1.609,1.609,0,1,0,3.19.044Z" transform="translate(-120.342 -21.949)" fill="#31317f"/>
        <path id="Path_3991" data-name="Path 3991" d="M282.283,26.77a4.057,4.057,0,0,1,4.279,4.07,4.334,4.334,0,0,1-8.662-.018A4.055,4.055,0,0,1,282.283,26.77Zm1.552,4.086a1.631,1.631,0,1,0-3.22,0,1.749,1.749,0,0,0,1.612,1.934A1.731,1.731,0,0,0,283.835,30.856Z" transform="translate(-228.725 -22.033)" fill="#31317f"/>
        <path id="Path_3992" data-name="Path 3992" d="M30.291,32.429v.885c0,1.683,0,1.639-1.7,1.7-.807.03-1.062-.195-1.005-1.007.074-1.025.03-2.06.014-3.09-.016-.95-.49-1.462-1.292-1.44-.766.021-1.177.5-1.186,1.439-.012,1.148-.027,2.3,0,3.443.016.5-.143.637-.642.648-2.093.044-2.093.062-2.092-2.01,0-.763-.016-1.527,0-2.288a3.942,3.942,0,1,1,7.883.044C30.3,31.311,30.291,31.87,30.291,32.429Z" transform="translate(-18.42 -22.033)" fill="#31317f"/>
        <path id="Path_3993" data-name="Path 3993" d="M75.361,34.853a8.658,8.658,0,0,1-2.849-.531c-.508-.189-.672-.428-.342-.9a.454.454,0,0,0,.034-.081c.5-1.17.5-1.175,1.755-.855a6.149,6.149,0,0,0,2.014.177c.244-.019.511-.11.561-.354.067-.319-.271-.354-.469-.4-.708-.177-1.44-.276-2.15-.457a2.145,2.145,0,0,1-1.862-1.946,2.329,2.329,0,0,1,1.4-2.346,6.6,6.6,0,0,1,5.24-.069c.278.094.467.241.228.58a2.534,2.534,0,0,0-.278.642c-.214.626-.457.947-1.239.575a3.35,3.35,0,0,0-2.083-.149c-.244.051-.474.113-.5.405s.249.382.462.444a5.047,5.047,0,0,0,1.035.207,5.565,5.565,0,0,1,1.539.354,2.158,2.158,0,0,1,.655,3.8A4.715,4.715,0,0,1,75.361,34.853Z" transform="translate(-59.258 -21.881)" fill="#323280"/>
        <path id="Path_3994" data-name="Path 3994" d="M117.626,23.134c0-1.09.021-2.178-.009-3.268-.012-.472.157-.635.61-.6a7.079,7.079,0,0,0,1.062,0c.656-.051,1.157-.012,1.03.885-.083.6.453.354.752.421s.849-.214.922.228a3.043,3.043,0,0,1-.064,1.814c-.143.29-.656.12-.993.1-.5-.03-.671.142-.644.646.039.734.011,1.472.011,2.207,0,.669.354,1.062.991.885s.708.147.862.591c.476,1.467.34,1.679-1.207,1.747-2.267.1-3.307-.9-3.32-3.185C117.622,24.783,117.626,23.958,117.626,23.134Z" transform="translate(-96.804 -15.842)" fill="#333381"/>
      </g>
    </g>
  </g>
</svg>
