<svg xmlns="http://www.w3.org/2000/svg" width="88" height="68" viewBox="0 0 88 68">
  <g id="megento" transform="translate(-6348 -19649)">
    <rect id="Rectangle_17697" data-name="Rectangle 17697" width="88" height="68" rx="5" transform="translate(6348 19649)" fill="#fff" opacity="0"/>
    <g id="Layer_2" data-name="Layer 2" transform="translate(6374 19662)">
      <g id="Layer_1" data-name="Layer 1" transform="translate(0 0)">
        <path id="Path_3995" data-name="Path 3995" d="M5.153,34.025v-1.24q-.012-9.434-.029-18.87a.92.92,0,0,1,.477-.953q5.953-3.4,11.88-6.855a.918.918,0,0,1,1.064.029q5.832,3.391,11.689,6.74a1.126,1.126,0,0,1,.635,1.156q-.026,9.549-.012,19.09v.9c1.7-.984,3.3-1.91,4.91-2.831.275-.157.231-.4.231-.642V10.795a.756.756,0,0,0-.407-.768Q27.012,5.093,18.446.131a.735.735,0,0,0-.861,0C16.7.666,15.809,1.159,14.92,1.675Q7.743,5.823.563,9.959A.967.967,0,0,0,0,10.933c.018,6.511.01,13.02.015,19.531,0,.278-.076.563.275.76C1.882,32.12,3.457,33.047,5.153,34.025Z" transform="translate(0 0.008)" fill="#fefefd"/>
        <path id="Path_3996" data-name="Path 3996" d="M77.651,119.291c-2.362-1.379-4.713-2.771-7.094-4.128A.97.97,0,0,1,70,114.19q.024-9.73,0-19.461a1,1,0,0,1,.6-1.028c1.329-.726,2.644-1.488,3.939-2.273.524-.317.624-.209.623.369-.013,6.437,0,12.876-.024,19.314a1.324,1.324,0,0,0,.639,1.152,2.765,2.765,0,0,0,3.946-.047,1.181,1.181,0,0,0,.588-1.037c-.021-6.414-.013-12.826-.013-19.245,0-.851,0-.851.735-.429,1.271.735,2.528,1.49,3.82,2.19a1.007,1.007,0,0,1,.6,1.028q-.028,9.73,0,19.461a.965.965,0,0,1-.555.977c-2.236,1.26-4.454,2.553-6.675,3.839a4.4,4.4,0,0,0-.413.294Z" transform="translate(-59.717 -77.825)" fill="#f16323"/>
        <path id="Path_3997" data-name="Path 3997" d="M5.153,34.076c-1.7-.978-3.272-1.905-4.86-2.8-.356-.2-.279-.482-.279-.76q0-9.766-.015-19.531a.967.967,0,0,1,.563-.974q7.19-4.121,14.356-8.28c.89-.511,1.789-1.009,2.666-1.54a.735.735,0,0,1,.861,0q8.566,4.954,17.148,9.887a.754.754,0,0,1,.407.768q-.009,9.875-.009,19.754c0,.239.044.485-.231.642-1.606.92-3.205,1.847-4.91,2.831v-.9q0-9.549.012-19.09a1.126,1.126,0,0,0-.635-1.156Q24.366,9.593,18.541,6.188a.915.915,0,0,0-1.064-.029Q11.554,9.611,5.6,13.013a.917.917,0,0,0-.477.953q.025,9.434.029,18.87Z" transform="translate(0 -0.043)" fill="#f16423"/>
      </g>
    </g>
  </g>
</svg>
