<svg xmlns="http://www.w3.org/2000/svg" width="88" height="68" viewBox="0 0 88 68">
  <g id="OMS" transform="translate(-6340 -19225)">
    <rect id="Rectangle_17684" data-name="Rectangle 17684" width="88" height="68" rx="5" transform="translate(6340 19225)" fill="#fff" opacity="0"/>
    <g id="Layer_2" data-name="Layer 2" transform="translate(6361.16 19237)">
      <g id="Layer_1" data-name="Layer 1" transform="translate(0 0)">
        <path id="Path_3633" data-name="Path 3633" d="M59.537,59.67c-3.033-.259-4.816-2.369-6.594-4.507-4.875,9.262-16.81,8.991-21.5-.339-1.884,2.277-3.768,4.524-6.973,4.9a24.516,24.516,0,0,0,5.7-5.925,2.2,2.2,0,0,0,.372-1.957C29,45.22,32.651,38.219,38.659,36.189,44.73,34.14,51.276,37.6,53.509,44.05a14.457,14.457,0,0,1,.365,8.209,1.992,1.992,0,0,0,.29,1.747A20.249,20.249,0,0,0,59.537,59.67ZM47.271,43.906c-1.545,1.147-3,2.195-4.418,3.3a1.031,1.031,0,0,1-1.491.024c-1.453-1.116-2.96-2.167-4.474-3.259a3.157,3.157,0,0,0-.283.44,67.725,67.725,0,0,1-4,8.713c-.283.471-.021.822.16,1.177,1.9,3.768,4.835,6.179,9.156,6.325,4.491.153,7.585-2.2,9.709-6.017a1.482,1.482,0,0,0-.066-1.712A34.271,34.271,0,0,1,47.271,43.906ZM35.7,40.892c1.884,1.286,3.749,2.51,5.555,3.813a1.235,1.235,0,0,0,1.74-.014c1.707-1.288,3.471-2.5,5.244-3.768a55.154,55.154,0,0,0,4.474,10.51c.942-5.711-1.26-10.774-5.56-13.221a9.843,9.843,0,0,0-11.567,1.265c-3.12,2.654-4.945,8.2-3.707,11.462A43.5,43.5,0,0,0,35.7,40.892Z" transform="translate(-18.7 -27.217)" fill="#1579bd"/>
        <path id="Path_3634" data-name="Path 3634" d="M26.685,148.568a18.523,18.523,0,0,1,4.149,0,31.859,31.859,0,0,0,8.544-.341,7.389,7.389,0,0,0,3.375-1.809,2.689,2.689,0,0,0,.909-2.859c-.28-1.1-1.189-1.458-2.19-1.689-2.932-.678-5.666.308-8.388,1.09-3.311.942-6.274,2.774-9.483,4a41.025,41.025,0,0,1-15.521,3.151,9.578,9.578,0,0,1-6.69-2.7c-2.03-1.94-1.863-3.93.363-5.624,1.6-1.22,3.466-1.283,5.346-1.451,3.464-.308,6.577.852,9.681,2.119a6.934,6.934,0,0,1-2.477-.235c-3.106-.391-6.21-.942-9.33-.134-1.126.287-2.261.706-2.468,2.023a3.218,3.218,0,0,0,1.6,3.3,9.678,9.678,0,0,0,6.566,1.152c5.666-.579,10.9-2.652,16.131-4.71,2.47-.973,4.915-2.018,7.42-2.889a14.84,14.84,0,0,1,7.967-.737c1.63.334,2.981,1.149,3.339,2.9a4.658,4.658,0,0,1-1.827,4.894,10.607,10.607,0,0,1-6.2,1.839A38.088,38.088,0,0,1,26.685,148.568Z" transform="translate(0.032 -107.003)" fill="#1578bd"/>
        <path id="Path_3635" data-name="Path 3635" d="M85.886,0a8.2,8.2,0,0,1,3.66,1c.389.235.678.45.485,1.02a14.379,14.379,0,0,1-2.8,5.219c-.963,1.064-1.566,1.06-2.522,0a14.057,14.057,0,0,1-2.746-5.242c-.165-.513.141-.706.471-.928A6.829,6.829,0,0,1,85.886,0Z" transform="translate(-62.616 0)" fill="#1177bc"/>
      </g>
    </g>
  </g>
</svg>
