<svg xmlns="http://www.w3.org/2000/svg" width="88" height="68" viewBox="0 0 88 68">
  <g id="opencart" transform="translate(-6511 -19649)">
    <rect id="Rectangle_17698" data-name="Rectangle 17698" width="88" height="68" rx="5" transform="translate(6511 19649)" fill="#fff" opacity="0"/>
    <g id="Layer_2" data-name="Layer 2" transform="translate(6534 19662)">
      <g id="Layer_1" data-name="Layer 1" transform="translate(0 0)">
        <ellipse id="Ellipse_466" data-name="Ellipse 466" cx="20.735" cy="20.735" rx="20.735" ry="20.735" fill="#35c3ee"/>
        <path id="Path_3998" data-name="Path 3998" d="M101.255,125.845l.122-.116a.38.38,0,0,0,.37-.38,7.7,7.7,0,0,0,.827-1.205.255.255,0,0,0,.116-.325q0-.192.009-.382a.247.247,0,0,0-.186-.311l-.622-.432a2.04,2.04,0,0,0-1.561-.374l-.435-.043a.5.5,0,0,0-.611-.048l-1-.066a1,1,0,0,0-.711-.129c-1.316,0-2.632-.009-3.948,0a1.7,1.7,0,0,0-.907.093l-.732-.039c-.305-.287-.651-.192-1-.1l-.24-.028c-.243-.26-.536-.165-.823-.116l-.426-.041a.4.4,0,0,0-.427-.1l-.318-.037a.147.147,0,0,0-.244-.031l-.232-.053c-.059-.116-.141-.166-.261-.075l-.232-.05c-.06-.116-.139-.167-.26-.074l-.232-.056a.275.275,0,0,0-.322-.116l-.67-.232a.519.519,0,0,0-.568-.266l-.426-.209a.537.537,0,0,0-.527-.319,4.5,4.5,0,0,1-2.126-2.5c.312.2.626.4.935.607a13.5,13.5,0,0,0,6.5,1.922c2.787.258,5.591.244,8.391.26a43.247,43.247,0,0,1,4.685.2,6.928,6.928,0,0,1,1.8.41c.826.331,1.006.837.56,1.609a10.228,10.228,0,0,1-2.144,2.2.382.382,0,0,0-.4.348l-.6.512a.567.567,0,0,0-.523.464l-.481.4a.267.267,0,0,0-.259.232l-.216.152-.146.116a3.221,3.221,0,0,1-1.107.913l-.016-.434,1.128-1.219A.568.568,0,0,0,101.255,125.845Z" transform="translate(-73.062 -104.015)" fill="#f6fcfd"/>
        <path id="Path_3999" data-name="Path 3999" d="M184.338,231.841a1.691,1.691,0,1,1,1.7-1.678A1.691,1.691,0,0,1,184.338,231.841Z" transform="translate(-161.449 -201.931)" fill="#f6fcfd"/>
        <path id="Path_4000" data-name="Path 4000" d="M117.7,231.835a1.691,1.691,0,1,1-.041-3.381,1.678,1.678,0,0,1,1.729,1.7,1.66,1.66,0,0,1-1.688,1.677Z" transform="translate(-102.517 -201.925)" fill="#f6fcfd"/>
        <path id="Path_4001" data-name="Path 4001" d="M169.38,155.177a1.716,1.716,0,0,1,.907-.093c1.316-.007,2.632,0,3.948,0a1,1,0,0,1,.711.129A40.469,40.469,0,0,1,169.38,155.177Z" transform="translate(-149.712 -137.063)" fill="#c1edf9"/>
        <path id="Path_4002" data-name="Path 4002" d="M223.106,202.93l.016.434-.783.755A1.537,1.537,0,0,1,223.106,202.93Z" transform="translate(-196.522 -179.366)" fill="#d4f2fa"/>
        <path id="Path_4003" data-name="Path 4003" d="M234.9,157.493a2.036,2.036,0,0,1,1.561.374A6.679,6.679,0,0,1,234.9,157.493Z" transform="translate(-207.624 -139.185)" fill="#c1edf9"/>
        <path id="Path_4004" data-name="Path 4004" d="M154.51,154.063c.348-.088.69-.183,1,.1A1.531,1.531,0,0,1,154.51,154.063Z" transform="translate(-136.568 -136.094)" fill="#c1edf9"/>
        <path id="Path_4005" data-name="Path 4005" d="M145.35,153.052c.287-.046.581-.142.823.116A.932.932,0,0,1,145.35,153.052Z" transform="translate(-128.472 -135.231)" fill="#c1edf9"/>
        <path id="Path_4006" data-name="Path 4006" d="M225.89,156.255a.5.5,0,0,1,.611.048A.639.639,0,0,1,225.89,156.255Z" transform="translate(-199.66 -138.038)" fill="#c1edf9"/>
        <path id="Path_4007" data-name="Path 4007" d="M248.12,187.594a.567.567,0,0,1,.523-.464A.834.834,0,0,1,248.12,187.594Z" transform="translate(-219.309 -165.401)" fill="#c8effa"/>
        <path id="Path_4008" data-name="Path 4008" d="M239.132,188a.568.568,0,0,1-.482.509A.834.834,0,0,1,239.132,188Z" transform="translate(-210.938 -166.17)" fill="#c1edf9"/>
        <path id="Path_4009" data-name="Path 4009" d="M101,139.24a.539.539,0,0,1,.527.319A.655.655,0,0,1,101,139.24Z" transform="translate(-89.272 -123.072)" fill="#c1edf9"/>
        <path id="Path_4010" data-name="Path 4010" d="M109.19,143.692a.519.519,0,0,1,.568.266A.7.7,0,0,1,109.19,143.692Z" transform="translate(-96.511 -126.997)" fill="#c1edf9"/>
        <path id="Path_4011" data-name="Path 4011" d="M244.18,183.76a.38.38,0,0,1-.37.38A.563.563,0,0,1,244.18,183.76Z" transform="translate(-215.499 -162.422)" fill="#c1edf9"/>
        <path id="Path_4012" data-name="Path 4012" d="M257.75,180.106a.382.382,0,0,1,.4-.348A.546.546,0,0,1,257.75,180.106Z" transform="translate(-227.82 -158.884)" fill="#c8effa"/>
        <path id="Path_4013" data-name="Path 4013" d="M138,152.088a.4.4,0,0,1,.427.1A.324.324,0,0,1,138,152.088Z" transform="translate(-121.976 -134.405)" fill="#c1edf9"/>
        <path id="Path_4014" data-name="Path 4014" d="M241.72,194.742a.267.267,0,0,1,.259-.232A.305.305,0,0,1,241.72,194.742Z" transform="translate(-213.652 -171.924)" fill="#c8effa"/>
        <path id="Path_4015" data-name="Path 4015" d="M253.7,164.61a.247.247,0,0,1,.186.311A.394.394,0,0,1,253.7,164.61Z" transform="translate(-224.241 -145.496)" fill="#c1edf9"/>
        <path id="Path_4016" data-name="Path 4016" d="M133.16,151.3a.147.147,0,0,1,.244.031.173.173,0,0,1-.244-.031Z" transform="translate(-117.698 -133.688)" fill="#c1edf9"/>
        <path id="Path_4017" data-name="Path 4017" d="M128.9,150.218c.116-.091.2-.044.261.075A.247.247,0,0,1,128.9,150.218Z" transform="translate(-113.932 -132.733)" fill="#c1edf9"/>
        <path id="Path_4018" data-name="Path 4018" d="M254.231,170.58a.255.255,0,0,1-.116.325A.29.29,0,0,1,254.231,170.58Z" transform="translate(-224.597 -150.772)" fill="#c1edf9"/>
        <path id="Path_4019" data-name="Path 4019" d="M124.65,149.142c.116-.093.2-.043.26.074A.232.232,0,0,1,124.65,149.142Z" transform="translate(-110.176 -131.781)" fill="#c1edf9"/>
        <path id="Path_4020" data-name="Path 4020" d="M119.84,147.941a.275.275,0,0,1,.322.116A.259.259,0,0,1,119.84,147.941Z" transform="translate(-105.924 -130.749)" fill="#c1edf9"/>
        <path id="Path_4021" data-name="Path 4021" d="M238.61,197.936l.146-.116Z" transform="translate(-210.903 -174.849)" fill="#c8effa"/>
      </g>
    </g>
  </g>
</svg>
