<svg xmlns="http://www.w3.org/2000/svg" width="88" height="68" viewBox="0 0 88 68">
  <g id="presto" transform="translate(-6654 -19225)">
    <rect id="Rectangle_17707" data-name="Rectangle 17707" width="88" height="68" rx="5" transform="translate(6654 19225)" fill="#fff" opacity="0"/>
    <g id="Group_2734" data-name="Group 2734" transform="translate(6676 19238)">
      <path id="Path_3134" data-name="Path 3134" d="M469.907,446.9c.344-.152.688-.292,1.039-.426.395-.147.795-.288,1.2-.41.5-.151,1.01-.288,1.524-.4a18.967,18.967,0,0,1,2.1-.325q-.592,1.867-1.308,3.711c.022.237.029.477.037.717a15.246,15.246,0,0,1,5.9,0c.008-.24.019-.48.037-.717-.473-1.231-.913-2.469-1.308-3.711a19.02,19.02,0,0,1,2.1.325c.513.111,1.02.248,1.523.4.4.122.8.263,1.2.41.352.134.7.274,1.039.426a18.666,18.666,0,0,1,6.462,4.768,21.441,21.441,0,1,0-28.006,0A18.591,18.591,0,0,1,469.907,446.9Z" transform="translate(-456 -414)" fill="#a0dbe8"/>
      <path id="Path_3135" data-name="Path 3135" d="M471.319,450.779a15.088,15.088,0,0,1,3.175-1c-.007-.24-.018-.48-.037-.717.473-1.231.913-2.469,1.309-3.711a18.978,18.978,0,0,0-2.1.325c-.514.111-1.02.248-1.523.4-.4.122-.8.263-1.2.411l1.564.377Z" transform="translate(-456 -414)" fill="#525353"/>
      <path id="Path_3136" data-name="Path 3136" d="M467.633,453.089a11.844,11.844,0,0,0,.063-1.209.446.446,0,0,1,.444-.444h.388L469.9,446.9a18.691,18.691,0,0,0-6.462,4.769,21.5,21.5,0,0,0,3.231,2.307C466.983,453.665,467.3,453.37,467.633,453.089Z" transform="translate(-456 -414)" fill="#525353"/>
      <path id="Path_3137" data-name="Path 3137" d="M484.984,446.9l1.376,4.536h.388a.445.445,0,0,1,.443.444,11.853,11.853,0,0,0,.063,1.209c.333.281.651.576.958.887a21.346,21.346,0,0,0,3.231-2.307A18.47,18.47,0,0,0,484.984,446.9Z" transform="translate(-456 -414)" fill="#525353"/>
      <path id="Path_3138" data-name="Path 3138" d="M482.384,446.854l1.563-.377c-.395-.148-.794-.289-1.2-.411-.5-.151-1.009-.288-1.523-.4a19.013,19.013,0,0,0-2.1-.325q.592,1.869,1.309,3.711c-.023.237-.03.477-.037.717a15.134,15.134,0,0,1,3.175,1Z" transform="translate(-456 -414)" fill="#525353"/>
      <path id="Path_3139" data-name="Path 3139" d="M477.444,451.436h3.02a11.878,11.878,0,0,1-.07-1.659,15.2,15.2,0,0,0-5.9,0,11.833,11.833,0,0,1-.07,1.659Z" transform="translate(-456 -414)"/>
      <path id="Path_3140" data-name="Path 3140" d="M466.678,453.975c.247.144.5.288.754.422a11.575,11.575,0,0,0,.2-1.309Q467.137,453.509,466.678,453.975Z" transform="translate(-456 -414)"/>
      <path id="Path_3141" data-name="Path 3141" d="M471.119,451.435h3.305a11.885,11.885,0,0,0,.07-1.66,15.149,15.149,0,0,0-3.175,1Z" transform="translate(-456 -414)"/>
      <path id="Path_3142" data-name="Path 3142" d="M487.26,453.088a12.813,12.813,0,0,0,.2,1.309q.382-.205.755-.422C487.91,453.665,487.589,453.369,487.26,453.088Z" transform="translate(-456 -414)"/>
      <path id="Path_3143" data-name="Path 3143" d="M483.772,451.435l-.2-.658a15.148,15.148,0,0,0-3.175-1,11.836,11.836,0,0,0,.07,1.66Z" transform="translate(-456 -414)"/>
      <path id="Path_3144" data-name="Path 3144" d="M471.121,451.438l.2-.658,1.19-3.926-1.564-.377c-.351.133-.7.269-1.039.425l-1.375,4.536h2.588Z" transform="translate(-456 -414)" fill="#aa9678"/>
      <path id="Path_3145" data-name="Path 3145" d="M483.573,450.78l.2.658h2.587l-1.375-4.536c-.344-.152-.691-.292-1.038-.425l-1.564.377Z" transform="translate(-456 -414)" fill="#aa9678"/>
      <path id="Path_3146" data-name="Path 3146" d="M468.574,452.355l.043-.031h-.043Z" transform="translate(-456 -414)" fill="#c0b098"/>
      <path id="Path_3147" data-name="Path 3147" d="M477.442,452.324h-8.828l-.041.03a12.832,12.832,0,0,1-.325,2.458,21.372,21.372,0,0,0,9.194,2.07Z" transform="translate(-456 -414)" fill="#c0b098"/>
      <path id="Path_3148" data-name="Path 3148" d="M486.32,452.324h-.043l.043.031Z" transform="translate(-456 -414)" fill="#aa9678"/>
      <path id="Path_3149" data-name="Path 3149" d="M486.277,452.324h-8.828v4.555a21.315,21.315,0,0,0,9.194-2.071,13.158,13.158,0,0,1-.325-2.458A.235.235,0,0,1,486.277,452.324Z" transform="translate(-456 -414)" fill="#aa9678"/>
      <path id="Path_3150" data-name="Path 3150" d="M487.26,453.089a11.815,11.815,0,0,1-.063-1.209.445.445,0,0,0-.444-.443h-18.6a.444.444,0,0,0-.443.443,11.815,11.815,0,0,1-.063,1.209,12.509,12.509,0,0,1-.2,1.309c.27.144.544.281.817.414a13.266,13.266,0,0,0,.326-2.459v-.029h17.736v.029a12.936,12.936,0,0,0,.326,2.459c.277-.133.547-.27.817-.414A10.16,10.16,0,0,1,487.26,453.089Z" transform="translate(-456 -414)" fill="#8b7460"/>
      <path id="Path_3151" data-name="Path 3151" d="M483.582,448.374c-.062-.074-.133-.155-.2-.244C483.449,448.222,483.52,448.3,483.582,448.374Z" transform="translate(-456 -414)" fill="#525353"/>
      <path id="Path_3152" data-name="Path 3152" d="M484.076,448.867a.068.068,0,0,0,0,.015.027.027,0,0,0,0-.015,4.268,4.268,0,0,1-.492-.488A4.577,4.577,0,0,0,484.076,448.867Z" transform="translate(-456 -414)" fill="#aa9678"/>
      <path id="Path_3153" data-name="Path 3153" d="M491.721,430.668a.052.052,0,0,1-.011-.015,6.837,6.837,0,0,0-.551-.676v0a.015.015,0,0,1,0-.007c-.085-.093-.174-.182-.259-.267-.033-.033-.067-.059-.1-.088-.055-.052-.111-.1-.166-.148v1.992l.765,3.5c.007.026.019.052.026.082l.529.591,0-.007h.555c0-.052,0-.1,0-.155a14.99,14.99,0,0,0-.761-4.721A.582.582,0,0,1,491.721,430.668Z" transform="translate(-456 -414)" fill="#bbbcbd"/>
      <path id="Path_3154" data-name="Path 3154" d="M491.474,435.3c0,.007,0,.011,0,.014a.014.014,0,0,0,0,.011,1.923,1.923,0,0,1,.015.256c0,.014,0,.029,0,.048v.014c0,.019,0,.034,0,.048,0,.085-.007.17-.015.248a.015.015,0,0,1,0,.011c0,.008,0,.011,0,.019a1.882,1.882,0,0,1-.048.255l0,0v0l.525-.587-.528-.592C491.444,435.123,491.459,435.212,491.474,435.3Z" transform="translate(-456 -414)" fill="#676a6a"/>
      <path id="Path_3155" data-name="Path 3155" d="M491.468,435.972a.129.129,0,0,1,.007-.033,1.838,1.838,0,0,0,.015-.248c0-.018,0-.037,0-.055s0-.034,0-.052c0-.085-.007-.17-.015-.255,0-.011,0-.019,0-.03-.012-.088-.03-.177-.049-.258-.007-.03-.018-.056-.025-.082a1.683,1.683,0,0,0-.2-.44c-.011-.014-.022-.033-.033-.048a.809.809,0,0,0-.07-.085,1.314,1.314,0,0,0-.111-.1c-.015-.011-.03-.019-.044-.03a.547.547,0,0,0-.1-.055c-.015-.008-.03-.011-.044-.019a.543.543,0,0,0-.156-.026.566.566,0,0,0-.155.026.211.211,0,0,0-.044.019.546.546,0,0,0-.1.055l-.044.03a1.3,1.3,0,0,0-.111.1c-.022.026-.048.056-.07.085s-.022.034-.034.048a1.69,1.69,0,0,0-.2.44c0,.008,0,.015-.007.019-.022.077-.041.159-.056.24,0,.026-.011.048-.014.078a2.4,2.4,0,0,0-.023.288c0,.015,0,.026,0,.041h0c0,.817.389,1.478.862,1.478a.532.532,0,0,0,.236-.059.317.317,0,0,1,.037-.018.727.727,0,0,0,.093-.063.422.422,0,0,1,.048-.045,1.059,1.059,0,0,0,.107-.122c.022-.029.048-.062.07-.1s.026-.048.041-.07a1.5,1.5,0,0,0,.066-.14l.023-.052c.025-.07.048-.141.07-.218A1.757,1.757,0,0,0,491.468,435.972Zm-.806-.536c-.177,0-.325-.248-.325-.554s.144-.555.325-.555.325.248.325.555S490.839,435.436,490.662,435.436Z" transform="translate(-456 -414)"/>
      <path id="Path_3156" data-name="Path 3156" d="M490.661,434.329c-.177,0-.325.248-.325.555s.144.554.325.554.326-.248.326-.554S490.839,434.329,490.661,434.329Z" transform="translate(-456 -414)" fill="#fff"/>
      <path id="Path_3157" data-name="Path 3157" d="M489.865,434.961a1.626,1.626,0,0,1,.2-.44c.011-.015.022-.033.033-.048a.719.719,0,0,1,.07-.085,1.519,1.519,0,0,1,.111-.1c.015-.011.03-.018.044-.029a.614.614,0,0,1,.1-.056l.044-.018a.541.541,0,0,1,.155-.026.566.566,0,0,1,.156.026.312.312,0,0,1,.044.018.612.612,0,0,1,.1.056c.014.011.029.018.044.029a.957.957,0,0,1,.111.1.719.719,0,0,1,.07.085c.011.015.022.03.033.048a1.659,1.659,0,0,1,.2.44l-.766-3.5Z" transform="translate(-456 -414)" fill="#909393"/>
      <path id="Path_3158" data-name="Path 3158" d="M480.515,435.6a2,2,0,0,0-.014-.207v0a1.993,1.993,0,0,0-.034-.2v0c-.015-.062-.033-.129-.052-.188v0c-.022-.063-.044-.122-.07-.181v0a1.555,1.555,0,0,0-.088-.173,2.1,2.1,0,0,0-.363-.462,1.975,1.975,0,0,0-.628-.407.012.012,0,0,1-.008,0,1.681,1.681,0,0,0-.362-.107h-.011a1.912,1.912,0,0,0-.388-.037,2.168,2.168,0,0,0-.381.037.027.027,0,0,0-.015,0,1.989,1.989,0,0,0-.355.107s-.007,0-.007,0a2.09,2.09,0,0,0-.329.17,1.951,1.951,0,0,0-.292.229l0,.007h-.007a2.071,2.071,0,0,0-.366.47s0,0,0,.007a1.218,1.218,0,0,0-.081.166.04.04,0,0,0-.007.019c-.023.052-.045.107-.063.159l-.011.03c-.015.051-.03.1-.041.155,0,.015-.007.029-.011.044-.011.052-.019.1-.026.159a.2.2,0,0,0-.007.048,1.865,1.865,0,0,0-.011.211,2.332,2.332,0,0,0,.036.392v.007a2.087,2.087,0,0,0,.111.366v0a1.986,1.986,0,0,0,.411.628,1.924,1.924,0,0,0,.469.362h0c.055.03.111.06.166.086,0,0,.008,0,.015.007.052.022.107.044.163.063.011,0,.018.007.029.011.052.015.1.029.156.04l.04.012c.052.011.1.018.155.025a.209.209,0,0,0,.049.008c.07.007.14.011.21.011a2.024,2.024,0,0,0,.788-.159,2.2,2.2,0,0,0,.343-.185,2.023,2.023,0,0,0,.548-.547,1.746,1.746,0,0,0,.184-.344,1.972,1.972,0,0,0,.159-.787V435.6Zm-2.018-.236a.758.758,0,1,1,.758-.758A.759.759,0,0,1,478.5,435.367Z" transform="translate(-456 -414)"/>
      <path id="Path_3159" data-name="Path 3159" d="M478.5,433.848a.758.758,0,1,0,.758.757A.759.759,0,0,0,478.5,433.848Z" transform="translate(-456 -414)" fill="#fff"/>
      <path id="Path_3160" data-name="Path 3160" d="M477.1,434.171h.007l0-.008,1.39-4.255v-1a11.86,11.86,0,0,0-2.388-.248c-.274,0-.543.011-.81.03-.04,0-.077,0-.118.007a11.986,11.986,0,0,0-4.044,1.05,13.078,13.078,0,0,0-3.02,1.933c-.244.207-.481.429-.71.655-.044.04-.085.085-.129.125-.215.219-.425.444-.625.673-.044.052-.085.1-.129.152-.2.24-.4.484-.588.735a.69.69,0,0,1-.045.063c-.177.244-.347.492-.51.747-.033.048-.066.1-.1.148-.133.211-.255.425-.377.643h6.336Z" transform="translate(-456 -414)" fill="#bbbcbd"/>
      <path id="Path_3161" data-name="Path 3161" d="M482.454,433.69l.033-.5c.011-.225.019-.451.022-.676,0-.174,0-.352,0-.525v-.152c0-.451-.022-.9-.048-1.353a0,0,0,0,1,0,0v0l-.014-.008-.019-.011c-.081-.048-.285-.162-.469-.266,0,0-.008,0-.012-.007-.048-.026-.092-.052-.129-.074h0c-.033-.019-.062-.037-.092-.052a.094.094,0,0,0-.018-.011c-.03-.015-.052-.03-.067-.037-.292-.152-.588-.292-.891-.418a15.988,15.988,0,0,0-2.24-.7V429.9l1.379,4.262v0a2.1,2.1,0,0,1,.362.462,1.677,1.677,0,0,1,.089.174v0a1.576,1.576,0,0,1,.07.181v0a1.9,1.9,0,0,1,.052.189v0a1.721,1.721,0,0,1,.033.2v0c.007.066.011.137.015.207l0,.011h1.69c.114-.617.192-1.246.244-1.874A.063.063,0,0,0,482.454,433.69Z" transform="translate(-456 -414)" fill="#e2dddb"/>
      <path id="Path_3162" data-name="Path 3162" d="M484.661,432.181s-.005,0-.005.009S484.661,432.185,484.661,432.181Z" transform="translate(-456 -414)" fill="#fbb040"/>
      <path id="Path_3163" data-name="Path 3163" d="M480.53,441.685c.385-.381.743-.747,1.091-1.105.2-.211.406-.422.6-.633a13.184,13.184,0,0,0,3.072-4.809c.014-.044.029-.1.044-.166,0-.011,0-.019.007-.03.015-.07.03-.144.045-.233.007-.059.011-.118.018-.173a17.6,17.6,0,0,0-.728-2.355s0,0,0,.007l-.008-.007c-.051-.048-.107-.1-.159-.144-.159-.148-.321-.289-.484-.429a13.269,13.269,0,0,0-1.556-1.131c.026.451.044.9.048,1.353v.151c0,.174,0,.351,0,.525,0,.226-.011.451-.022.677-.007.166-.018.332-.033.5,0,.018,0,.033,0,.051a18.781,18.781,0,0,1-.244,1.875l-.2.939a29.983,29.983,0,0,1-1.948,4.776c-.185.417-.358.839-.51,1.268-.015.04-.029.081-.044.122.214-.226.406-.425.554-.566S480.375,441.837,480.53,441.685Z" transform="translate(-456 -414)" fill="#fbb040"/>
      <path id="Path_3164" data-name="Path 3164" d="M477.111,434.158a1.951,1.951,0,0,1,.292-.229,2.134,2.134,0,0,1,.329-.17.014.014,0,0,0,.008,0,2.238,2.238,0,0,1,.355-.107.025.025,0,0,0,.014,0,2.167,2.167,0,0,1,.381-.037,2.238,2.238,0,0,1,.388.037h.011a2.346,2.346,0,0,1,.363.107s0,0,.007,0a2.1,2.1,0,0,1,.629.406v0l-1.379-4.262Z" transform="translate(-456 -414)" fill="#909393"/>
      <path id="Path_3165" data-name="Path 3165" d="M476.627,436.4a1.874,1.874,0,0,1-.111-.366v-.007a1.931,1.931,0,0,1-.037-.392,1.853,1.853,0,0,1,.011-.211.2.2,0,0,1,.007-.048c.008-.052.015-.107.026-.159,0-.015.007-.03.011-.044.011-.052.026-.1.041-.156a.135.135,0,0,1,.011-.029,1.1,1.1,0,0,1,.063-.159c0-.008.007-.011.007-.019.026-.055.052-.111.081-.166,0,0,0,0,0-.007a2.071,2.071,0,0,1,.366-.47l-5.852,1.445h-.011l5.8,1.416a2.021,2.021,0,0,1-.411-.628S476.627,436.4,476.627,436.4Z" transform="translate(-456 -414)" fill="#676a6a"/>
      <path id="Path_3166" data-name="Path 3166" d="M489.79,435.3a.533.533,0,0,1,.014-.078,2.421,2.421,0,0,1,.056-.24.193.193,0,0,0,.007-.026l.765-3.5v-1.992a3.129,3.129,0,0,0-1.988-.8,3.436,3.436,0,0,0-2.311,1.083,8.675,8.675,0,0,0-1.608,2.314c-.018.037-.041.074-.059.115.129.111.259.225.384.34.285.262.566.529.84.8.129.126.255.255.38.385s.27.273.4.41c.17.177.336.359.5.54.071.077.141.151.211.229q.3.333.6.673c.033.033.055.059.066.07h1.723c0-.015,0-.026,0-.041A1.2,1.2,0,0,1,489.79,435.3Z" transform="translate(-456 -414)" fill="#e2dddb"/>
      <path id="Path_3167" data-name="Path 3167" d="M484.664,432.188v0s0,0,0,.007l.008.008C484.664,432.192,484.664,432.192,484.664,432.188Z" transform="translate(-456 -414)" fill="#e2dddb"/>
      <path id="Path_3168" data-name="Path 3168" d="M463.877,437.814c0-.012.011-.026.015-.037.111-.289.233-.577.359-.862.037-.077.074-.159.111-.236.1-.222.214-.444.329-.658.048-.089.092-.178.14-.267.026-.048.055-.1.085-.144.122-.214.244-.432.377-.643.03-.048.063-.1.1-.148.163-.251.333-.5.51-.747.015-.022.03-.044.045-.062.188-.252.384-.5.587-.736.045-.052.086-.1.13-.152.2-.232.41-.454.625-.672.04-.045.085-.085.129-.126.229-.226.462-.444.71-.654a7.689,7.689,0,0,1,14.269-1.309l.011.018c.015.034.033.063.052.1v0a0,0,0,0,1,0,0,13.144,13.144,0,0,1,1.556,1.131c.163.141.325.281.484.429.052.048.107.092.159.144,0,0,0,0,0-.007s0,0,0,0c.019-.037.037-.074.052-.111.492-3.1,1.86-5.334,3.475-5.334,1.216,0,2.292,1.268,2.961,3.22l.008.022v0a7.356,7.356,0,0,1,.55.676.036.036,0,0,1,.011.015.673.673,0,0,1,.026.085l-.026-.1a15.04,15.04,0,0,0-28.542,9.5s0-.008,0-.008c.1-.443.211-.883.344-1.316Q463.69,438.312,463.877,437.814Z" transform="translate(-456 -414)" fill="#525353"/>
      <path id="Path_3169" data-name="Path 3169" d="M491.946,435.635l-.524.587v0a1.918,1.918,0,0,1-.071.218.432.432,0,0,1-.022.052c-.022.048-.044.1-.066.14-.012.023-.026.048-.041.071a.939.939,0,0,1-.07.1,1.289,1.289,0,0,1-.108.122.53.53,0,0,1-.048.044.875.875,0,0,1-.092.063.106.106,0,0,1-.037.018.533.533,0,0,1-.237.06c-.476,0-.861-.662-.861-1.479h-1.73c.322.37.636.747.95,1.127a.045.045,0,0,1,.011.015q.455.555.9,1.12l.045.056q.422.537.832,1.075a1.264,1.264,0,0,0,.081.1c.292.381.577.765.865,1.15a.023.023,0,0,1,.007.007,14.907,14.907,0,0,0,.788-4.654h-.558Z" transform="translate(-456 -414)" fill="#fff"/>
      <path id="Path_3170" data-name="Path 3170" d="M475.19,428.69c.04,0,.077,0,.118-.007.27-.019.54-.03.809-.03a11.88,11.88,0,0,1,2.389.248v0a16,16,0,0,1,2.24.7c.3.129.6.266.891.417.014.008.037.019.066.037a.056.056,0,0,0,.019.011c.026.015.055.034.092.052h0l.129.074s.008,0,.011.008c.185.1.392.221.47.266.011.007.015.007.018.011a.026.026,0,0,0,.015.007c-.015-.033-.033-.063-.052-.1a.176.176,0,0,0-.011-.018,7.818,7.818,0,0,0-2.876-3.131,7.67,7.67,0,0,0-11.393,4.439,12.885,12.885,0,0,1,3.02-1.933A11.847,11.847,0,0,1,475.19,428.69Z" transform="translate(-456 -414)"/>
      <path id="Path_3171" data-name="Path 3171" d="M486.336,429.751a3.442,3.442,0,0,1,2.311-1.083,3.111,3.111,0,0,1,1.988.8v.008c.056.044.111.1.167.148l.1.088c.088.085.173.174.258.267a.01.01,0,0,1,0,.007v0l-.007-.022c-.669-1.952-1.745-3.22-2.961-3.22-1.616,0-2.984,2.233-3.475,5.335l0,0A8.583,8.583,0,0,1,486.336,429.751Z" transform="translate(-456 -414)"/>
      <path id="Path_3172" data-name="Path 3172" d="M472.091,449.492c.137.052.278.1.418.148a15.024,15.024,0,0,0,10.584-.24c.092-.037.181-.078.273-.115.148-.062.292-.125.44-.2.13-.059.259-.118.388-.184-.029,0-.063.011-.092.014a6.363,6.363,0,0,1-1.6-.011c-3.094-.443-3.778-1.937-3.682-3.489-.222-.13-.451-.274-.68-.44a20.089,20.089,0,0,1-3.793-3.564,20.147,20.147,0,0,0,4.576,2.477c.06.022.115.041.171.063.129-.444.28-.865.414-1.239.014-.04.029-.081.044-.122.152-.428.325-.85.51-1.268a29.886,29.886,0,0,0,1.948-4.776l.2-.939H480.52v.019a2.019,2.019,0,0,1-.159.787,2.218,2.218,0,0,1-.185.344,2.033,2.033,0,0,1-.547.547,1.7,1.7,0,0,1-.344.185,1.99,1.99,0,0,1-.787.159,2.109,2.109,0,0,1-.211-.011.2.2,0,0,1-.048-.008c-.052-.007-.1-.014-.155-.025l-.041-.012c-.052-.011-.1-.025-.155-.04-.011,0-.019-.008-.03-.011a1.266,1.266,0,0,1-.162-.063s-.008,0-.015-.008a1.192,1.192,0,0,1-.167-.085h0a2.112,2.112,0,0,1-.47-.362l-5.8-1.416H464.92c-.026.048-.059.1-.085.145-.048.088-.093.177-.141.266-.114.218-.225.436-.329.658-.037.077-.074.155-.111.236-.129.285-.247.57-.358.862,0,.011-.011.025-.015.037q-.189.5-.344,1.009c-.133.436-.248.876-.344,1.316a15.063,15.063,0,0,0,5.468,7.486c.074.051.151.1.225.151a15.4,15.4,0,0,0,1.331.836A14.166,14.166,0,0,0,472.091,449.492Z" transform="translate(-456 -414)" fill="#fff"/>
      <path id="Path_3173" data-name="Path 3173" d="M482.476,444.823c-.023.163-.037.318-.045.473a4.207,4.207,0,0,0,.052.791,4.014,4.014,0,0,0,.107.481,4.561,4.561,0,0,0,.241.643,4.986,4.986,0,0,0,.3.547c.034.056.071.107.1.159.052.078.107.148.159.218.07.089.137.17.2.244a4.235,4.235,0,0,0,.492.488.053.053,0,0,0,0,.015.371.371,0,0,1,.011.037l.092-.015a9.5,9.5,0,0,0,2.011-.506c.34-.122.677-.255,1.013-.407.1-.048.2-.1.3-.148a26.251,26.251,0,0,0,6.329-4.61A18.86,18.86,0,0,1,482.476,444.823Z" transform="translate(-456 -414)" fill="#9f2255"/>
      <path id="Path_3174" data-name="Path 3174" d="M490.769,439.019c-.273-.358-.551-.721-.832-1.075-.014-.019-.029-.037-.044-.056q-.444-.566-.9-1.12a.037.037,0,0,1-.011-.015c-.311-.38-.629-.758-.95-1.127-.023-.022-.041-.048-.063-.07q-.294-.339-.6-.673c-.07-.078-.141-.156-.211-.229-.166-.182-.336-.363-.5-.54l-.4-.411c-.126-.129-.251-.258-.381-.384-.277-.27-.554-.54-.839-.8-.125-.115-.255-.229-.384-.34,0,0,0,0,0,0a17.385,17.385,0,0,1,.736,2.385c.04.211.074.418.1.621.377,2.817-.525,4.658-1.96,7.079-.1.174-.207.351-.318.529a5.574,5.574,0,0,0-.658,1.552c-.04.163-.07.322-.092.477a18.881,18.881,0,0,0,11.371-1.589s-.85-1.246-2.126-2.961c-.284-.385-.573-.766-.865-1.15A.675.675,0,0,0,490.769,439.019Z" transform="translate(-456 -414)" fill="#e2056f"/>
      <path id="Path_3175" data-name="Path 3175" d="M484.079,448.867a4.266,4.266,0,0,1-.492-.488c-.062-.074-.133-.155-.2-.244-.052-.067-.1-.14-.159-.218-.033-.052-.07-.1-.1-.159a4.463,4.463,0,0,1-.3-.547,4.561,4.561,0,0,1-.241-.643,3.935,3.935,0,0,1-.107-.481,4.233,4.233,0,0,1-.052-.791,4.434,4.434,0,0,1,.045-.473,4.6,4.6,0,0,1,.092-.477,5.8,5.8,0,0,1,.658-1.553l0,0c.107-.178.211-.355.314-.525,1.434-2.422,2.336-4.263,1.959-7.08q-.039-.3-.1-.621c-.023.148-.045.274-.067.378,0,.011,0,.018-.007.029-.015.063-.03.122-.045.166a13.2,13.2,0,0,1-3.072,4.81c-.192.207-.392.418-.6.632-.344.359-.706.725-1.09,1.1-.152.152-.307.307-.466.462s-.337.34-.555.566c-.133.373-.284.795-.414,1.238-.059-.022-.114-.04-.17-.062a20.034,20.034,0,0,1-4.576-2.477,20.068,20.068,0,0,0,3.793,3.563,7.782,7.782,0,0,0,.68.44c-.1,1.553.587,3.046,3.682,3.49a6.412,6.412,0,0,0,1.6.011.366.366,0,0,1-.012-.037A.038.038,0,0,0,484.079,448.867Z" transform="translate(-456 -414)"/>
    </g>
  </g>
</svg>
