<svg xmlns="http://www.w3.org/2000/svg" xmlns:xlink="http://www.w3.org/1999/xlink" width="88" height="68" viewBox="0 0 88 68">
  <defs>
    <clipPath id="clip-path">
      <rect id="Rectangle_17704" data-name="Rectangle 17704" width="37.613" height="42.766" fill="#fff"/>
    </clipPath>
  </defs>
  <g id="shopify" transform="translate(-6505 -19225)">
    <rect id="Rectangle_17708" data-name="Rectangle 17708" width="88" height="68" rx="5" transform="translate(6505 19225)" fill="#fff" opacity="0"/>
    <g id="Group_2735" data-name="Group 2735" transform="translate(6529.982 19238.117)" clip-path="url(#clip-path)">
      <path id="Path_4115" data-name="Path 4115" d="M98.939,422.211a.4.4,0,0,0-.378-.343c-.172,0-3.194-.069-3.194-.069s-2.542-2.473-2.782-2.713a1.02,1.02,0,0,0-.927-.1s-.481.138-1.271.378a10.031,10.031,0,0,0-.618-1.511,4.3,4.3,0,0,0-3.813-2.645,1.293,1.293,0,0,0-.343.034c-.034-.069-.1-.1-.137-.172A3.265,3.265,0,0,0,82.828,414c-2.061.069-4.122,1.546-5.771,4.191a17.036,17.036,0,0,0-2.336,6.011c-2.37.721-4.019,1.237-4.053,1.272-1.2.377-1.237.412-1.374,1.545-.1.859-3.263,25.076-3.263,25.076l26.243,4.534,11.37-2.817C103.61,453.779,98.973,422.417,98.939,422.211Zm-9.859-2.439c-.618.171-1.305.412-2.027.618a10.932,10.932,0,0,0-.618-3.743C87.981,416.956,88.737,418.707,89.08,419.772Zm-3.435,1.064c-1.374.412-2.885.893-4.4,1.34a10.607,10.607,0,0,1,2.2-4.294,5.511,5.511,0,0,1,1.477-1.1A8.989,8.989,0,0,1,85.645,420.837Zm-2.782-5.462a2.359,2.359,0,0,1,1.237.31,6.722,6.722,0,0,0-1.614,1.271,12.263,12.263,0,0,0-2.714,5.7c-1.237.378-2.473.756-3.607,1.1C76.886,420.459,79.668,415.479,82.863,415.375Z" transform="translate(-66.002 -414)" fill="#95bf47"/>
      <path id="Path_4116" data-name="Path 4116" d="M99.934,422.123c-.172,0-3.195-.068-3.195-.068s-2.542-2.473-2.782-2.713a.649.649,0,0,0-.343-.172v37.682l11.37-2.817s-4.637-31.361-4.672-31.6A.4.4,0,0,0,99.934,422.123Z" transform="translate(-67.371 -414.257)" fill="#5e8e3e"/>
      <path id="Path_4117" data-name="Path 4117" d="M86.288,428.4l-1.305,4.947a7.164,7.164,0,0,0-3.229-.549c-2.576.171-2.576,1.786-2.576,2.2.137,2.2,5.943,2.679,6.286,7.866.24,4.087-2.164,6.87-5.633,7.076a8.428,8.428,0,0,1-6.492-2.2l.893-3.778s2.3,1.752,4.156,1.614A1.658,1.658,0,0,0,80,443.822c-.172-2.885-4.912-2.713-5.221-7.454-.24-3.985,2.37-8.038,8.141-8.382A6.773,6.773,0,0,1,86.288,428.4Z" transform="translate(-66.364 -414.693)" fill="#fff"/>
    </g>
  </g>
</svg>
