<svg xmlns="http://www.w3.org/2000/svg" width="88" height="68" viewBox="0 0 88 68">
  <g id="shoptimize" transform="translate(-6510 -19539)">
    <rect id="Rectangle_17692" data-name="Rectangle 17692" width="88" height="68" rx="5" transform="translate(6510 19539)" fill="#fff" opacity="0"/>
    <g id="shoptimize-2" data-name="shoptimize" transform="translate(6538.542 19555.354)">
      <g id="Layer_1" data-name="Layer 1" transform="translate(0 0)">
        <path id="Path_4022" data-name="Path 4022" d="M15.647,19.214a10.25,10.25,0,0,0-2.572.146c-.234.078-.516.156-.633,0s.166-.458.3-.672c1.052-1.783,2.738-1.949,4.55-1.8.76,0,1.744-.244,2.2.136s.146,1.384.175,2.124a5.281,5.281,0,0,0,0,1.169c.507,1.812-.653,2.777-1.949,3.9l-.185-3.264c-1.111,1.169-2.114,2.192-3.089,3.254Q11,27.974,7.56,31.754c-.2.224-.575.39-.419.75s.516.273.828.273H25.38c.8,0,.974-.4.974-.974.127-2.923.516-5.846.789-8.7Q27.8,16.145,28.42,9.189a3.447,3.447,0,0,1,.1-.974c.156-.974-.136-1.159-1.14-1.043-4.969.624-9.938.994-14.878,1.6-2.923.331-5.934.711-8.925.906-.857.058-1.13.419-1.033,1.257.38,3.118.721,6.245,1.072,9.373.273,2.465.546,4.94.789,7.4a1.237,1.237,0,0,1-1.13,1.5c-.887.019-1.325-.663-1.384-1.462-.195-1.734-.322-3.478-.516-5.222C.973,18.6.5,14.664,0,10.718A2.826,2.826,0,0,1,2.3,7.464c1.676-.283,3.381-.448,5.076-.643.487-.049.731-.127.8-.711A7.005,7.005,0,0,1,14.195.069,6.918,6.918,0,0,1,21.347,4.21a1.345,1.345,0,0,0,1.637.974c1.228-.166,2.475-.244,3.7-.419,2.066-.3,3.313.195,3.966,1.588a2.572,2.572,0,0,1,.2,1.364c-.351,4.1-.731,8.194-1.1,12.3q-.4,4.472-.789,8.935c-.1,1.082-.156,2.173-.3,3.254-.322,2.309-1.208,3.069-3.566,3.079H11.457a28.792,28.792,0,0,1-4.433-.117,2.524,2.524,0,0,1-2.153-1.841A2.757,2.757,0,0,1,5.465,30.4C8.768,26.746,12.129,23.063,15.647,19.214ZM11,6.392c2.524,0,5.32-.565,8.145-.779.594,0,.458-.351.273-.711a5,5,0,0,0-3.254-2.621,4.872,4.872,0,0,0-5.846,3.5C10.239,6,10,6.548,11,6.392Z" transform="translate(0.041 -0.023)" fill="#0561a9"/>
      </g>
    </g>
  </g>
</svg>
