<svg xmlns="http://www.w3.org/2000/svg" width="88" height="68" viewBox="0 0 88 68">
  <g id="sumtracker" transform="translate(-6654 -19539)">
    <rect id="Rectangle_17693" data-name="Rectangle 17693" width="88" height="68" rx="5" transform="translate(6654 19539)" fill="#fff" opacity="0"/>
    <g id="sumtracker-2" data-name="sumtracker" transform="translate(6678.104 19552.826)">
      <g id="Layer_1" data-name="Layer 1" transform="translate(0 0)">
        <path id="Path_4023" data-name="Path 4023" d="M371.942,0h15.1a.184.184,0,0,0,0,.031l-.215,0H372.951c-.337,0-.674,0-1.011,0A.246.246,0,0,0,371.942,0Z" transform="translate(-359.599 0)" fill="#8c89c1"/>
        <path id="Path_4024" data-name="Path 4024" d="M827.013.031a.18.18,0,0,0,0-.031h2.422V.038c-.046.044-.1.028-.158.026-.181-.007-.361-.027-.542-.028C828.158.031,827.586.033,827.013.031Z" transform="translate(-799.57 0)" fill="#aca9d2"/>
        <path id="Path_4025" data-name="Path 4025" d="M315.857,0a.208.208,0,0,1,0,.031H313.93a.227.227,0,0,0,0-.031Z" transform="translate(-303.514 0)" fill="#a7a5cf"/>
        <path id="Path_4026" data-name="Path 4026" d="M298.531,0a.233.233,0,0,1,0,.03l-.528,0V0Z" transform="translate(-288.112 0)" fill="#d4d3e7"/>
        <path id="Path_4027" data-name="Path 4027" d="M9.888.913l.529,0h1.924c.337,0,.674,0,1.011,0H27.228c.072,0,.144,0,.215,0,.573,0,1.145,0,1.718,0,.181,0,.361.021.542.028.053,0,.111.018.158-.026l.393.018a.258.258,0,0,0,.271.016l.26.016a.152.152,0,0,0,.2.018L31.216,1a.086.086,0,0,0,.139.014l.193.019c.03.043.064.056.106.015l.166.02c.028.045.061.051.1.013l.166.024c.018.033.04.04.066.009l.127.019c.02.031.04.054.073.013l.126.021c.019.03.039.054.073.015l.094.016c.019.031.038.057.072.016l.094.017c.019.031.038.057.072.016l.093.018c.018.03.037.056.072.018l.592.146c.017.03.033.058.072.022l.26.076a.058.058,0,0,0,.085.033,8.056,8.056,0,0,1,2.4,1.351,8.334,8.334,0,0,1,2.573,3.5A10,10,0,0,1,39.586,8.8a22.234,22.234,0,0,1,.175,2.711c.061,5.584.013,11.169.025,16.753q0,1.285-.044,2.569a15.006,15.006,0,0,1-.586,3.956,7.734,7.734,0,0,1-1.327,2.47,8.239,8.239,0,0,1-3.74,2.729,10.622,10.622,0,0,1-2.36.513,30.316,30.316,0,0,1-3.64.174q-7.067,0-14.135,0c-1.2,0-2.41.007-3.614-.02a16.993,16.993,0,0,1-4.151-.511,7.945,7.945,0,0,1-3-1.6,8.1,8.1,0,0,1-2.6-3.831,12.981,12.981,0,0,1-.5-2.785C0,30.841,0,29.759,0,28.676V12.683c0-1.05,0-2.1.1-3.147A11.041,11.041,0,0,1,.891,6.043a8.243,8.243,0,0,1,1.42-2.19A8.313,8.313,0,0,1,5.569,1.608a10.238,10.238,0,0,1,2.09-.5C8.4,1,9.144.956,9.888.913ZM34.614,12.924a2.843,2.843,0,0,0-.041-.474,2.318,2.318,0,0,0-1.856-1.969,4.457,4.457,0,0,0-1.761.075,59.365,59.365,0,0,1-6.765,1.125,11.447,11.447,0,0,1-2.695-.066,8.706,8.706,0,0,1-2.392-.767,5.617,5.617,0,0,0-3.259-.515c-.923.139-1.848.265-2.772.406-1.142.174-2.281.367-3.406.63a3.386,3.386,0,0,0-2.251,1.563,5.81,5.81,0,0,0-.707,1.991c-.261,1.458-.439,2.928-.661,4.392-.278,1.835-.564,3.67-.752,5.518A15.1,15.1,0,0,0,5.173,27.4a3.091,3.091,0,0,0,1.249,2.356,7.432,7.432,0,0,0,4.228,1.412,13.634,13.634,0,0,0,3.484-.374.215.215,0,0,1,.252.085,10.175,10.175,0,0,0,3.856,3.012,7.88,7.88,0,0,0,3.3.693,1,1,0,0,0,.931-1.372.3.3,0,0,1,0-.25,41.361,41.361,0,0,1,5.792-9.7c.982-1.231,2.01-2.426,2.973-3.672a22.856,22.856,0,0,0,2.842-4.526,4.964,4.964,0,0,0,.534-2.14Z" transform="translate(0 -0.88)" fill="#7d7ab8"/>
        <path id="Path_4028" data-name="Path 4028" d="M912.1,1.092a.256.256,0,0,1-.271-.016A.337.337,0,0,1,912.1,1.092Z" transform="translate(-881.575 -1.021)" fill="#aca9d2"/>
        <path id="Path_4029" data-name="Path 4029" d="M928.035,2.118a.153.153,0,0,1-.2-.018A.211.211,0,0,1,928.035,2.118Z" transform="translate(-897.044 -2.013)" fill="#aca9d2"/>
        <path id="Path_4030" data-name="Path 4030" d="M940.959,3.178a.086.086,0,0,1-.139-.014A.107.107,0,0,1,940.959,3.178Z" transform="translate(-909.604 -3.041)" fill="#aca9d2"/>
        <path id="Path_4031" data-name="Path 4031" d="M959.1,5.234c-.039.038-.072.033-.1-.013A.063.063,0,0,1,959.1,5.234Z" transform="translate(-927.18 -5.03)" fill="#aca9d2"/>
        <path id="Path_4032" data-name="Path 4032" d="M950.926,4.253c-.042.042-.076.028-.105-.015A.072.072,0,0,1,950.926,4.253Z" transform="translate(-919.272 -4.083)" fill="#aca9d2"/>
        <path id="Path_4033" data-name="Path 4033" d="M967.066,6.371c-.026.033-.048.025-.066-.009C967.026,6.336,967.048,6.339,967.066,6.371Z" transform="translate(-934.915 -6.134)" fill="#aca9d2"/>
        <path id="Path_4034" data-name="Path 4034" d="M972.883,7.369c-.033.041-.053.018-.073-.013a.047.047,0,0,1,.039-.011.047.047,0,0,1,.033.024Z" transform="translate(-940.532 -7.1)" fill="#aca9d2"/>
        <path id="Path_4035" data-name="Path 4035" d="M978.883,8.39c-.033.039-.053.015-.073-.015a.047.047,0,0,1,.073.015Z" transform="translate(-946.333 -8.086)" fill="#aca9d2"/>
        <path id="Path_4036" data-name="Path 4036" d="M983.892,9.34c-.033.041-.054.015-.072-.016a.048.048,0,0,1,.072.016Z" transform="translate(-951.177 -9.005)" fill="#aca9d2"/>
        <path id="Path_4037" data-name="Path 4037" d="M988.892,10.34c-.033.041-.054.015-.072-.016a.048.048,0,0,1,.072.016Z" transform="translate(-956.011 -9.972)" fill="#aca9d2"/>
        <path id="Path_4038" data-name="Path 4038" d="M993.892,11.372c-.035.038-.054.012-.072-.018a.047.047,0,0,1,.072.018Z" transform="translate(-960.845 -10.967)" fill="#aca9d2"/>
        <path id="Path_4039" data-name="Path 4039" d="M1013.912,16.372c-.037.036-.055.009-.072-.022a.048.048,0,0,1,.072.022Z" transform="translate(-980.201 -15.8)" fill="#aca9d2"/>
        <path id="Path_4040" data-name="Path 4040" d="M1023.9,19.386a.058.058,0,0,1-.085-.033C1023.859,19.334,1023.885,19.355,1023.9,19.386Z" transform="translate(-989.849 -18.704)" fill="#aca9d2"/>
        <path id="Path_4041" data-name="Path 4041" d="M184.9,285.708a4.965,4.965,0,0,1-.534,2.141,22.925,22.925,0,0,1-2.842,4.526c-.962,1.247-1.991,2.441-2.973,3.672a41.362,41.362,0,0,0-5.789,9.694.3.3,0,0,0,0,.25,1,1,0,0,1-.931,1.372,7.881,7.881,0,0,1-3.3-.693,10.177,10.177,0,0,1-3.856-3.012.215.215,0,0,0-.252-.085,13.645,13.645,0,0,1-3.484.374,7.429,7.429,0,0,1-4.228-1.412,3.093,3.093,0,0,1-1.249-2.356,15.1,15.1,0,0,1,.124-2.562c.188-1.847.474-3.683.752-5.518.222-1.464.4-2.935.661-4.392a5.835,5.835,0,0,1,.707-1.991,3.387,3.387,0,0,1,2.251-1.563c1.125-.263,2.264-.457,3.406-.63.923-.14,1.848-.268,2.772-.406a5.614,5.614,0,0,1,3.259.515,8.665,8.665,0,0,0,2.392.767,11.445,11.445,0,0,0,2.695.066,59.377,59.377,0,0,0,6.765-1.125,4.456,4.456,0,0,1,1.761-.075,2.318,2.318,0,0,1,1.856,1.969A2.844,2.844,0,0,1,184.9,285.708Zm-6.707,8.772a.5.5,0,0,0,.048-.045c.878-1.074,1.774-2.134,2.607-3.243a23.119,23.119,0,0,0,2.031-3.144c.054-.1.063-.158-.054-.232a1.1,1.1,0,0,1-.52-.947,2.265,2.265,0,0,0-.04-.462.3.3,0,0,0-.356-.268c-.154.009-.308.035-.462.046a1.082,1.082,0,0,1-1.155-.654,1.731,1.731,0,0,1-.162-.5c-.019-.133-.063-.166-.2-.139q-1.813.363-3.642.633c-.733.109-1.47.179-2.207.236a.976.976,0,0,0-.114-.007,11.029,11.029,0,0,1-3.224-.286,13.606,13.606,0,0,1-2.094-.785,4.219,4.219,0,0,0-2.152-.343c-.533.059-1.062.145-1.593.223-.328.048-.323.051-.21.353a12.189,12.189,0,0,1,.589,2.564,27.43,27.43,0,0,0,1.349,5.4c.371,1.036.811,2.045,1.128,3.1a8.546,8.546,0,0,1,.409,3.434,4.722,4.722,0,0,1-1.613,3.172c-.095.082-.082.129-.006.209a9.726,9.726,0,0,0,1.464,1.294,6.745,6.745,0,0,0,3.338,1.272.248.248,0,0,0,.3-.178c.356-.858.755-1.7,1.173-2.526a41.794,41.794,0,0,1,4.026-6.447C177.287,295.62,177.745,295.053,178.2,294.479Z" transform="translate(-150.288 -273.663)" fill="#0f1130"/>
        <path id="Path_4042" data-name="Path 4042" d="M445.613,331.061c-.45.573-.908,1.141-1.349,1.721a41.79,41.79,0,0,0-4.026,6.447c-.418.829-.817,1.668-1.173,2.526a.248.248,0,0,1-.3.178,6.748,6.748,0,0,1-3.338-1.272,9.468,9.468,0,0,1-1.464-1.294c-.075-.08-.088-.127.006-.209a4.722,4.722,0,0,0,1.613-3.172,8.544,8.544,0,0,0-.409-3.434c-.316-1.055-.757-2.065-1.128-3.1a27.427,27.427,0,0,1-1.349-5.4,12.133,12.133,0,0,0-.589-2.564c-.113-.3-.119-.3.21-.353.531-.078,1.059-.164,1.593-.223a4.209,4.209,0,0,1,2.152.343,13.619,13.619,0,0,0,2.094.785,11.057,11.057,0,0,0,3.224.286.949.949,0,0,1,.115.007c-.01.066-.025.13-.03.2a9.612,9.612,0,0,0,.023,1.668,9.3,9.3,0,0,0,3.221,6.188A5.851,5.851,0,0,0,445.613,331.061Zm-7.906-4.232a.97.97,0,0,0,1.056-.913,1.029,1.029,0,0,0-.989-1.039,1.069,1.069,0,0,0-1.043,1A.9.9,0,0,0,437.707,326.829Z" transform="translate(-417.705 -310.245)" fill="#c99665"/>
        <path id="Path_4043" data-name="Path 4043" d="M719.58,347.627a5.916,5.916,0,0,1-.9-.671,9.3,9.3,0,0,1-3.221-6.188,9.605,9.605,0,0,1-.023-1.668c.005-.066.02-.131.03-.2.738-.057,1.475-.127,2.207-.236q1.829-.271,3.642-.633c.14-.028.183.006.2.139a1.728,1.728,0,0,0,.162.5,1.082,1.082,0,0,0,1.155.654c.154-.011.308-.037.462-.046a.3.3,0,0,1,.356.268,2.264,2.264,0,0,1,.04.462,1.1,1.1,0,0,0,.52.947c.117.075.108.13.054.232a23.094,23.094,0,0,1-2.031,3.144c-.833,1.109-1.729,2.169-2.608,3.243A.492.492,0,0,1,719.58,347.627Z" transform="translate(-691.673 -326.811)" fill="#eceded"/>
        <path id="Path_4044" data-name="Path 4044" d="M574.366,442.942a.9.9,0,0,1-.976-.955,1.069,1.069,0,0,1,1.043-1,1.029,1.029,0,0,1,.989,1.039A.97.97,0,0,1,574.366,442.942Z" transform="translate(-554.365 -426.358)" fill="#111231"/>
      </g>
    </g>
  </g>
</svg>
