<svg xmlns="http://www.w3.org/2000/svg" width="88" height="68" viewBox="0 0 88 68">
  <g id="ecywid" transform="translate(-6181 -19649)">
    <rect id="Rectangle_17696" data-name="Rectangle 17696" width="88" height="68" rx="5" transform="translate(6181 19649)" fill="#fff" opacity="0"/>
    <g id="Layer_2" data-name="Layer 2" transform="translate(6200.312 19668.316)">
      <g id="Layer_1" data-name="Layer 1" transform="translate(-0.001 -0.01)">
        <path id="Path_4118" data-name="Path 4118" d="M49.151,81.9c0,.389,0,.754,0,1.119-.019,1.4-.023,2.792-.068,4.189a12.2,12.2,0,0,1-1.661,6.051,11.117,11.117,0,0,1-5.1,4.373,19.854,19.854,0,0,1-5.776,1.54,27.51,27.51,0,0,1-3.709.182c-1.412-.011-2.825-.007-4.238,0-.211,0-.279-.044-.277-.269.012-1.24.015-2.48,0-3.721A12.38,12.38,0,0,0,27.7,91.25,5.215,5.215,0,0,0,25.039,88.1a6.4,6.4,0,0,0-2.116-.518c-.792-.085-1.589-.091-2.383-.148-.237-.017-.3.043-.3.287q.017,5.655.014,11.31c0,.35.044.313-.316.314-1.4,0-2.793-.009-4.189,0a30.781,30.781,0,0,1-6.155-.66,12.693,12.693,0,0,1-3.127-.933,10.37,10.37,0,0,1-4.574-4.333,14.564,14.564,0,0,1-1.7-5.358A54.43,54.43,0,0,1,0,81.646c0-.209.126-.168.242-.168H6.278c.189-.033.231.049.23.232q-.011,1.91,0,3.819a11.674,11.674,0,0,0,.7,4.273,5.088,5.088,0,0,0,2.705,2.981,6.7,6.7,0,0,0,2.054.466c.792.083,1.59.087,2.384.141.2.014.243-.052.243-.242q-.009-3.672,0-7.343c0-1.371.033-2.741.042-4.112,0-.173.049-.219.222-.219,1.766.006,3.535-.061,5.3.019A26.272,26.272,0,0,1,27.6,82.77a9.841,9.841,0,0,1,5.13,4.294A13.57,13.57,0,0,1,34.549,92.2c.056.348.1.7.143,1.048.012.1.044.145.151.139a12.9,12.9,0,0,0,4.778-.918,4.739,4.739,0,0,0,2.919-4.119c.031-.318.015-.644.073-.956a4.561,4.561,0,0,1,2.471-3.2,6.6,6.6,0,0,1,1.443-.555,5.206,5.206,0,0,0,1.821-.838A3.866,3.866,0,0,0,49.151,81.9Z" transform="translate(0.001 -77.44)" fill="#4787ec"/>
        <path id="Path_4119" data-name="Path 4119" d="M854.7,8.711a2.241,2.241,0,0,1-.358-.944,6.036,6.036,0,0,1-.115-2.778,3.783,3.783,0,0,1,2.805-2.937,9.619,9.619,0,0,1,1.664-.311A3.838,3.838,0,0,0,861.208.188c.041-.049.079-.1.12-.156a.486.486,0,0,1,.043-.042c.049.052.029.119.03.174A9.458,9.458,0,0,1,860.809,4a2.387,2.387,0,0,1-1.474,1.416,16.534,16.534,0,0,0-2.922,1.221A3.152,3.152,0,0,0,854.8,8.653c-.114-.223,0-.464-.054-.69a4.018,4.018,0,0,1,2.478-3.8c.534-.246,1.071-.493,1.618-.707a3.937,3.937,0,0,0,2.2-2.288.409.409,0,0,0,.077-.34l-.151.345a4.3,4.3,0,0,1-2.441,2.021c-.595.231-1.2.426-1.786.69a3.193,3.193,0,0,0-1.928,2.328,6.6,6.6,0,0,0-.117,1.761ZM861.229.7c0-.032-.008-.055-.037-.039a.083.083,0,0,0-.027.057c0,.015-.007.055.031.033C861.214.741,861.221.714,861.229.7Z" transform="translate(-812.024 0.01)" fill="#9acc35"/>
        <path id="Path_4120" data-name="Path 4120" d="M431.865,510c0,.419-.008.838,0,1.256,0,.157-.043.2-.192.187-.22-.017-.508.069-.641-.042s-.042-.415-.044-.634c-.006-.624,0-1.248,0-1.873a.875.875,0,1,0-1.744,0q-.012,1.17,0,2.34c0,.176-.049.228-.22.214-.211-.017-.488.067-.618-.038s-.04-.4-.042-.609c-.006-.641,0-1.281,0-1.922a.87.87,0,1,0-1.738-.011c0,.789-.006,1.577,0,2.366,0,.174-.049.229-.219.215-.219-.018-.508.069-.641-.041s-.044-.415-.046-.635c-.006-.665.012-1.331-.011-1.995a.857.857,0,0,0-1.114-.785.871.871,0,0,0-.62.826c-.009.8-.012,1.593,0,2.389,0,.2-.049.257-.243.24s-.477.068-.594-.036c-.137-.12-.043-.4-.045-.61-.005-.649,0-1.3,0-1.946a.869.869,0,1,0-1.736-.017q-.011,1.195,0,2.389c0,.17-.039.238-.215.217-.217-.026-.509.093-.633-.049-.106-.123-.029-.406-.03-.619,0-.55,0-1.1-.01-1.65a2.34,2.34,0,0,1,.208-1.052,1.7,1.7,0,0,1,2.691-.561c.124.108.182.144.328.011a1.71,1.71,0,0,1,2.326.012c.121.11.176.148.317.008a1.684,1.684,0,0,1,2.3-.032c.122.107.18.145.328.013a1.642,1.642,0,0,1,1.855-.3,1.665,1.665,0,0,1,1.042,1.567c.014.4,0,.8,0,1.207Z" transform="translate(-399.73 -482.072)" fill="#1d1d1d"/>
        <path id="Path_4121" data-name="Path 4121" d="M909.253,509.854a1.285,1.285,0,0,0,1.539.828c.087-.023.171-.054.257-.083a.782.782,0,0,1,.908.3c.075.108-.024.128-.069.168a2.186,2.186,0,0,1-3.378-2.636,2.19,2.19,0,0,1,4.139,1.182c-.015.187-.08.243-.271.242C911.344,509.849,910.31,509.854,909.253,509.854Zm0-.87h2.259c.121,0,.19,0,.116-.158a1.347,1.347,0,0,0-1.249-.721,1.276,1.276,0,0,0-1.126.878Z" transform="translate(-863.513 -482.233)" fill="#1d1d1d"/>
        <path id="Path_4122" data-name="Path 4122" d="M664.233,510.075a1.228,1.228,0,0,0,1.5.8,1.107,1.107,0,0,1,1.109.158c.118.1.128.15,0,.255a2.226,2.226,0,0,1-2.513.215,2.184,2.184,0,1,1,3.291-1.712c-.012.207-.078.273-.3.27-1.009-.012-2.021,0-3.028,0A.4.4,0,0,0,664.233,510.075Zm-.008-.887h2.259c.116,0,.194,0,.119-.156a1.343,1.343,0,0,0-1.223-.723,1.281,1.281,0,0,0-1.155.88Z" transform="translate(-630.555 -482.438)" fill="#1d1d1d"/>
        <path id="Path_4123" data-name="Path 4123" d="M320.9,509.488a2.176,2.176,0,1,1,.638,1.548A2.184,2.184,0,0,1,320.9,509.488Zm.884,0a1.289,1.289,0,0,0,1.31,1.306,1.322,1.322,0,0,0,1.313-1.314,1.338,1.338,0,0,0-1.333-1.3,1.311,1.311,0,0,0-1.29,1.308Z" transform="translate(-305.085 -482.308)" fill="#1c1c1c"/>
        <path id="Path_4124" data-name="Path 4124" d="M104.969,510.372a7.719,7.719,0,0,1,.041-1.228,2.183,2.183,0,0,1,4.336.365c0,.657-.009,1.314.006,1.971,0,.209-.078.228-.243.2a.665.665,0,0,1-.641-.752c0-.477,0-.953,0-1.429a1.308,1.308,0,0,0-2.615-.02c-.012.484,0,.969,0,1.454a.666.666,0,0,1-.668.752c-.144.018-.224.007-.215-.179C104.981,511.153,104.969,510.8,104.969,510.372Z" transform="translate(-99.79 -482.326)" fill="#1d1d1d"/>
        <path id="Path_4125" data-name="Path 4125" d="M9.259,508.078a8.109,8.109,0,0,1-.093,1.522,2.193,2.193,0,0,1-2.79,1.7,2.184,2.184,0,0,1-1.4-1.738,12.085,12.085,0,0,1-.107-2.406c0-.107.049-.113.136-.111.519.012.739.236.743.761a7.391,7.391,0,0,0,.066,1.5,1.381,1.381,0,0,0,.838,1.159,1.312,1.312,0,0,0,1.676-1.138,9.646,9.646,0,0,0,.049-1.5,1.506,1.506,0,0,1,.049-.414.73.73,0,0,1,.782-.363c.074.034.049.1.049.148Q9.258,507.634,9.259,508.078Z" transform="translate(-4.626 -482.031)" fill="#1d1d1d"/>
        <path id="Path_4126" data-name="Path 4126" d="M238.187,508.105a.962.962,0,0,1-1.31.122,1.305,1.305,0,1,0,.038,2.236.987.987,0,0,1,1.039.09c.114.073.017.128-.023.173a2.13,2.13,0,0,1-2.254.745,2.069,2.069,0,0,1-1.6-1.69,2.047,2.047,0,0,1,.8-2.136,2.187,2.187,0,0,1,2.388-.225,2.774,2.774,0,0,1,.916.687Z" transform="translate(-222.498 -482.174)" fill="#1c1c1c"/>
        <path id="Path_4127" data-name="Path 4127" d="M821.6,509.574a2.169,2.169,0,0,1,2.788-2.1,2.4,2.4,0,0,1,1.067.632c.09.1.1.148-.026.24a.84.84,0,0,1-1.04.057,1.252,1.252,0,0,0-1.6.316,1.292,1.292,0,0,0,1.456,2.043,2.812,2.812,0,0,0,.38-.172.694.694,0,0,1,.822.079c.136.1.134.165.028.287a2.228,2.228,0,0,1-2.436.653A2.186,2.186,0,0,1,821.6,509.574Z" transform="translate(-781.113 -482.376)" fill="#1c1c1c"/>
        <path id="Path_4128" data-name="Path 4128" d="M763.357,510.119a6.88,6.88,0,0,1,.059-1.328,2.227,2.227,0,0,1,2.108-1.758c.148-.012.345-.122.448.043s-.074.587-.243.706a1.51,1.51,0,0,1-.454.181,1.355,1.355,0,0,0-1.045,1.423c0,.444-.024.887.007,1.331.025.345-.424.658-.792.647-.123,0-.086-.1-.087-.164C763.355,510.865,763.357,510.528,763.357,510.119Z" transform="translate(-725.733 -482.001)" fill="#1d1d1d"/>
        <path id="Path_4129" data-name="Path 4129" d="M204.918,509.264c0-.583.007-1.165,0-1.748,0-.183.049-.219.224-.193a.669.669,0,0,1,.659.735c0,1.133-.006,2.267.006,3.4,0,.218-.08.246-.255.216a.692.692,0,0,1-.637-.735C204.937,510.381,204.918,509.822,204.918,509.264Z" transform="translate(-194.812 -482.314)" fill="#1d1d1d"/>
        <path id="Path_4130" data-name="Path 4130" d="M205.936,484.129a.439.439,0,0,1-.878,0,.426.426,0,0,1,.436-.433.434.434,0,0,1,.442.43Z" transform="translate(-194.953 -459.86)" fill="#1d1d1d"/>
        <path id="Path_4131" data-name="Path 4131" d="M865.933,162.49q0-.373,0-.745l.049,0c.054.228-.06.469.054.69l-.019.053h-.081Z" transform="translate(-823.255 -153.769)" fill="#cee69f"/>
        <path id="Path_4132" data-name="Path 4132" d="M865.77,176.87h.081c-.02.033,0,.1-.06.1C865.764,176.962,865.744,176.909,865.77,176.87Z" transform="translate(-823.092 -168.153)" fill="#9acc35"/>
        <path id="Path_4133" data-name="Path 4133" d="M865.755,30.6l-.049,0a6.682,6.682,0,0,1,.117-1.761,3.193,3.193,0,0,1,1.928-2.328c.583-.263,1.191-.459,1.786-.69a4.287,4.287,0,0,0,2.44-2.021l.073,0a3.931,3.931,0,0,1-2.2,2.289c-.547.216-1.084.459-1.618.707A4.019,4.019,0,0,0,865.755,30.6Z" transform="translate(-823.031 -22.627)" fill="#fafcf7"/>
        <path id="Path_4134" data-name="Path 4134" d="M993.284,17.232l-.073,0,.151-.345A.41.41,0,0,1,993.284,17.232Z" transform="translate(-944.263 -16.057)" fill="#e2f0c6"/>
        <path id="Path_4135" data-name="Path 4135" d="M997.194,13.518c-.009.015-.015.041-.032.049-.038.022-.033-.018-.031-.033a.083.083,0,0,1,.027-.057C997.185,13.462,997.195,13.486,997.194,13.518Z" transform="translate(-947.988 -12.808)" fill="#e2f0c6"/>
      </g>
    </g>
  </g>
</svg>
