<svg xmlns="http://www.w3.org/2000/svg" width="88" height="68" viewBox="0 0 88 68">
  <g id="vinculum" transform="translate(-6824.303 -19538.723)">
    <rect id="Rectangle_17694" data-name="Rectangle 17694" width="88" height="68" rx="5" transform="translate(6824.303 19538.723)" fill="#fff" opacity="0"/>
    <g id="vinculum-2" data-name="vinculum" transform="translate(6831.909 19560.801)">
      <g id="Layer_1" data-name="Layer 1" transform="translate(0 0)">
        <path id="Path_4045" data-name="Path 4045" d="M124.515,1.64H97c-.25,0-.644.17-.722-.17a4.551,4.551,0,0,1,0-1.262c0-.107.16-.115.267-.117h55.395c.233,0,.613-.144.679.141a3.632,3.632,0,0,1-.015,1.321c-.027.17-.34.1-.525.1h-5.73Z" transform="translate(-79.902 -0.055)" fill="#496b93"/>
        <path id="Path_4046" data-name="Path 4046" d="M353.386,30.468c1.807-2.262,4.445-1.768,5.435.258a5.617,5.617,0,0,1,1-1.084,2.992,2.992,0,0,1,4.755,1.432,4.939,4.939,0,0,1,.273,1.559c0,1.761-.017,3.522,0,5.284,0,.423-.115.528-.528.525-1.126-.012-1.123,0-1.126-1.143,0-1.484,0-2.97-.019-4.455a3.334,3.334,0,0,0-.087-.691c-.28-1.255-.982-1.851-2.038-1.739a2.2,2.2,0,0,0-1.836,2.191c-.017,1.739-.027,3.48,0,5.219.01.52-.16.633-.642.62-1.033-.031-1.033,0-1.033-1.039,0-1.529.027-3.057,0-4.586s-.778-2.422-1.89-2.412a2.4,2.4,0,0,0-2.153,2.548c-.01,1.634-.022,3.268.01,4.9.01.484-.126.6-.6.589-1.053-.031-1.05,0-1.055-1.085-.012-2.548-.015-5.1-.051-7.643,0-.416.088-.552.51-.549.912,0,.91-.014,1,.881C353.322,30.191,353.269,30.347,353.386,30.468Z" transform="translate(-292.065 -24.059)" fill="#494f86"/>
        <path id="Path_4047" data-name="Path 4047" d="M5.32,19.751c.761-2.564,1.676-5.063,2.534-7.58.3-.883.625-1.758.892-2.651a.684.684,0,0,1,.8-.574c1.214.032,1.219.01.807,1.165q-2.018,5.622-4.01,11.241a.6.6,0,0,1-.679.457c-1.343-.01-1.343,0-1.751-1.248C2.708,16.884,1.514,13.2.3,9.522c-.146-.44-.134-.581.382-.567,1.264.015,1.275-.01,1.654,1.211C3.321,13.35,4.416,16.507,5.32,19.751Z" transform="translate(-0.191 -7.435)" fill="#495087"/>
        <path id="Path_4048" data-name="Path 4048" d="M299.492,37.976a3.953,3.953,0,0,1-2.284,1.488,3.07,3.07,0,0,1-3.837-3.139c-.1-1.948-.041-3.906-.061-5.858,0-.306.109-.389.408-.4,1.286-.063,1.269-.073,1.289,1.236a41.718,41.718,0,0,0,.09,4.833c.182,1.382.878,2.016,2.038,1.955a2.328,2.328,0,0,0,2.2-2.294c.031-1.656.039-3.312,0-4.968-.017-.618.158-.849.769-.757a1.474,1.474,0,0,0,.445,0c.44-.065.53.141.526.543-.017,2.293-.01,4.586,0,6.878,0,.467,0,.936.044,1.4.029.34-.061.433-.408.438-1.056.017-1.056.034-1.141-1.036A3.2,3.2,0,0,0,299.492,37.976Z" transform="translate(-243.508 -24.951)" fill="#ce363b"/>
        <path id="Path_4049" data-name="Path 4049" d="M217.526,37.945a3.744,3.744,0,0,1-2.354,1.554,3.082,3.082,0,0,1-3.84-3.006c-.151-1.95-.048-3.906-.085-5.852,0-.411.138-.545.554-.547,1.189,0,1.189-.022,1.189,1.15v4.139a4.257,4.257,0,0,0,.09.883c.287,1.374.922,1.933,2.137,1.846a2.313,2.313,0,0,0,2.1-2.244q.046-2.514,0-5.029c-.01-.564.115-.783.729-.752,1.033.051,1.033.01,1.034,1.058,0,2.568,0,5.136.029,7.7,0,.367-.061.572-.481.51a1.528,1.528,0,0,0-.445,0c-.469.066-.666-.117-.615-.6A5.881,5.881,0,0,0,217.526,37.945Z" transform="translate(-175.383 -24.984)" fill="#dea92b"/>
        <path id="Path_4050" data-name="Path 4050" d="M97.746,30.766a3.523,3.523,0,0,1,2.913-1.629,3.048,3.048,0,0,1,3.247,2.777c.258,2.108.056,4.246.105,6.359,0,.217-.092.311-.3.3h-.063c-1.345.114-1.343.114-1.345-1.223,0-1.486.019-2.97-.012-4.455a2.114,2.114,0,0,0-1.432-2.237,2.264,2.264,0,0,0-2.9,2.038c-.1,1.712-.042,3.434-.068,5.153,0,.233.148.616-.136.679a3.269,3.269,0,0,1-1.5-.024c-.044-.012-.065-.187-.065-.287-.012-2.843-.017-5.686-.037-8.529,0-.294.112-.375.37-.36a1.759,1.759,0,0,0,.382,0c.6-.1.864.138.79.756A4.1,4.1,0,0,0,97.746,30.766Z" transform="translate(-79.833 -24.198)" fill="#3f467a"/>
        <path id="Path_4051" data-name="Path 4051" d="M155.5,34.065c.019-4.076,3.747-5.628,6.963-4.541.248.083.319.19.258.464-.2.914-.216.936-1.141.713a3.267,3.267,0,0,0-3.906,1.455,3.844,3.844,0,0,0,.6,4.475,3.549,3.549,0,0,0,3.711.537c.17-.053.474-.382.509.068.036.387.618.922-.11,1.18a5.859,5.859,0,0,1-4.229.029A4.352,4.352,0,0,1,155.5,34.065Z" transform="translate(-129.103 -24.24)" fill="#3c7e52"/>
        <path id="Path_4052" data-name="Path 4052" d="M270.2,23.485c0-1.7.017-3.4-.01-5.081,0-.447.115-.574.564-.566,1.124.022,1.126,0,1.126,1.143,0,3.2-.009,6.4.014,9.592,0,.5-.126.645-.633.625-1.056-.046-1.058-.015-1.058-1.077Q270.2,25.8,270.2,23.485Z" transform="translate(-224.315 -14.818)" fill="#ef5923"/>
        <path id="Path_4053" data-name="Path 4053" d="M74.924,34.75c0,1.337-.019,2.671.01,4.008.01.46-.1.627-.594.616-1.15-.022-1.15,0-1.15-1.133,0-2.5.014-5.005-.01-7.507,0-.491.109-.662.628-.649,1.114.032,1.114,0,1.114,1.1v3.567Z" transform="translate(-60.764 -24.985)" fill="#8c6c97"/>
        <path id="Path_4054" data-name="Path 4054" d="M163.666,119.2l.679-1.914c.063-.17.08-.372.352-.37s.3.17.363.358c.2.6.425,1.189.679,1.9.253-.695.484-1.279.679-1.868.082-.253.183-.486.464-.362s.044.34-.017.509c-.251.695-.525,1.382-.768,2.079-.071.206-.149.323-.391.314s-.256-.17-.316-.326c-.206-.577-.423-1.148-.661-1.788a11.422,11.422,0,0,0-.691,1.732c-.085.2-.119.389-.411.384s-.287-.221-.34-.379q-.414-1.063-.793-2.142c-.042-.122-.255-.307.032-.4a.321.321,0,0,1,.436.243C163.165,117.812,163.4,118.444,163.666,119.2Z" transform="translate(-134.815 -97.066)" fill="#161616"/>
        <path id="Path_4055" data-name="Path 4055" d="M88.466,115.37c-.5.2-.647-.1-.734-.418a.629.629,0,0,0-.786-.525,3.288,3.288,0,0,1-.824,0,.663.663,0,0,0-.83.554c-.088.34-.248.6-.7.37.52-1.151,1.044-2.3,1.554-3.458a.4.4,0,0,1,.413-.3c.233,0,.277.148.34.3Zm-2.677-1.359c.4,0,.754-.008,1.109,0,.282.01.406-.059.265-.36-.216-.457-.419-.921-.662-1.455A16.465,16.465,0,0,0,85.789,114Z" transform="translate(-70.236 -92.652)" fill="#111"/>
        <path id="Path_4056" data-name="Path 4056" d="M1.419,115.239a1.972,1.972,0,0,1-1.189-.411.268.268,0,0,1-.082-.431c.139-.187.255-.044.37.039a1.6,1.6,0,0,0,1.384.279.552.552,0,0,0,.455-.47.51.51,0,0,0-.34-.55c-.353-.143-.717-.256-1.068-.4a.958.958,0,0,1-.7-1.019c.049-.554.428-.793.926-.9a2.184,2.184,0,0,1,1.359.17c.11.049.319.07.212.3-.082.17-.17.277-.386.17a1.542,1.542,0,0,0-.978-.2c-.27.051-.557.143-.588.484-.027.3.2.455.433.562a6.8,6.8,0,0,0,.659.229c.773.268,1.109.679,1.019,1.252S2.238,115.253,1.419,115.239Z" transform="translate(-0.073 -92.438)" fill="#131313"/>
        <path id="Path_4057" data-name="Path 4057" d="M197.782,113.495v-1.529c0-.187-.039-.394.267-.387s.2.248.224.411a1.568,1.568,0,0,1,0,.318c-.034.4.092.442.47.3,1.041-.387,1.688.093,1.7,1.209v1.272c0,.17.015.34-.248.331s-.245-.17-.245-.34v-1.208c0-.465-.09-.849-.664-.887a.851.851,0,0,0-.992.836c-.039.419-.012.849-.014,1.27,0,.17.025.34-.243.34s-.256-.161-.251-.34v-.063Q197.782,114.259,197.782,113.495Z" transform="translate(-164.203 -92.638)" fill="#1e1e1e"/>
        <path id="Path_4058" data-name="Path 4058" d="M331.729,118.566v.572c0,.386.046.82-.543.374-.134-.1-.256.083-.391.11-.533.109-1.067.18-1.418-.374a.793.793,0,0,1,.52-1.235,7.9,7.9,0,0,1,.883-.078c.148-.017.372.1.421-.144a.467.467,0,0,0-.27-.526,1.111,1.111,0,0,0-1.084.114c-.124.063-.231.194-.362-.02-.151-.246.051-.289.182-.37a1.245,1.245,0,0,1,2.055,1.065v.51Zm-1.1-.243c-.314.138-.849-.124-.88.481-.015.379.3.493.622.474.431-.027.829-.2.849-.688C331.233,118.16,330.831,118.433,330.632,118.323Z" transform="translate(-273.332 -96.896)" fill="#161616"/>
        <path id="Path_4059" data-name="Path 4059" d="M115.3,118.327V117.12c0-.282.28-.375.358-.256.239.367.462.131.69.058a1.108,1.108,0,0,1,1.608,1.14v1.4c0,.143.037.3-.2.309s-.292-.088-.287-.3c.008-.445,0-.89,0-1.335,0-.4-.105-.729-.552-.793a.838.838,0,0,0-1.043.6,5.938,5.938,0,0,0-.08,1.45c-.014.18.061.4-.26.379-.267-.015-.229-.2-.229-.36C115.3,119.052,115.3,118.687,115.3,118.327Z" transform="translate(-95.73 -96.983)" fill="#1e1e1e"/>
        <path id="Path_4060" data-name="Path 4060" d="M388.431,118.553c.3.849.849,1.07,1.551.718.148-.073.29-.34.465-.071.2.3-.136.36-.275.45a1.638,1.638,0,0,1-1.782-.149,1.6,1.6,0,0,1-.324-1.809,1.423,1.423,0,0,1,1.529-.78,1.381,1.381,0,0,1,1.157,1.374c0,.314-.18.267-.367.267Zm.88-.387a1.164,1.164,0,0,0,.251,0c.224-.051.6.151.65-.131.059-.357-.253-.576-.613-.679a.922.922,0,0,0-.776.131c-.2.126-.406.34-.362.55.056.279.35.082.533.126A1.388,1.388,0,0,0,389.31,118.166Z" transform="translate(-322.048 -97.048)" fill="#131313"/>
        <path id="Path_4061" data-name="Path 4061" d="M262.54,118.483c-.212,0-.425-.014-.635,0-.158.014-.38-.1-.459.076-.1.221.087.406.243.537a1.015,1.015,0,0,0,1.291.061c.17-.107.323-.26.455,0,.11.217-.112.289-.238.374a1.639,1.639,0,0,1-1.841-.107,1.547,1.547,0,0,1-.34-1.8,1.473,1.473,0,0,1,1.651-.78,1.328,1.328,0,0,1,1.019,1.359c-.012.25-.127.273-.316.27C263.1,118.479,262.815,118.483,262.54,118.483Zm-.222-.387a.549.549,0,0,0,.19,0c.224-.09.637.221.667-.17.027-.353-.324-.566-.679-.65a.869.869,0,0,0-.771.2c-.17.131-.369.3-.292.521s.331.082.51.107A2.548,2.548,0,0,0,262.317,118.1Z" transform="translate(-216.573 -96.978)" fill="#131313"/>
        <path id="Path_4062" data-name="Path 4062" d="M24.826,118.59c.3.822.812,1.048,1.518.712.17-.08.35-.357.51-.037s-.183.34-.34.423a1.484,1.484,0,0,1-2.045-2.013,1.427,1.427,0,0,1,1.545-.734,1.206,1.206,0,0,1,.946.666c.355.707.205.961-.564.961H25C24.957,118.575,24.923,118.581,24.826,118.59Zm-.008-.4c.521,0,1.019-.014,1.518,0,.353.014.34-.155.224-.382a.82.82,0,0,0-.829-.469.907.907,0,0,0-.914.849Z" transform="translate(-20.18 -97.066)" fill="#111"/>
        <path id="Path_4063" data-name="Path 4063" d="M223.091,118.565h-.824c-.11,0-.268-.075-.319.1a.393.393,0,0,0,.117.34,1.022,1.022,0,0,0,1.459.226c.146-.076.273-.241.418-.025s-.048.29-.185.384a1.647,1.647,0,0,1-1.843-.048,1.562,1.562,0,0,1-.4-1.736,1.379,1.379,0,0,1,1.512-.89,1.347,1.347,0,0,1,1.2,1.389c0,.2-.063.262-.248.256C223.684,118.56,223.386,118.565,223.091,118.565Zm-.3-.387a1.293,1.293,0,0,0,.313,0c.2-.053.542.156.6-.126s-.2-.525-.493-.649a.89.89,0,0,0-.788.032c-.245.127-.523.324-.467.608s.389.073.589.134a.965.965,0,0,0,.25,0Z" transform="translate(-183.816 -97.06)" fill="#111"/>
        <path id="Path_4064" data-name="Path 4064" d="M139.172,119.18c.279-.727.509-1.315.729-1.906.087-.231.2-.472.484-.352s.031.34-.02.472q-.542,1.418-1.133,2.818a.931.931,0,0,1-1.218.618c-.127-.046-.318-.075-.258-.285.042-.151.136-.217.326-.207.693.037.929-.309.671-.958-.273-.679-.559-1.359-.839-2.048-.058-.141-.222-.316.015-.408.187-.071.34,0,.435.241C138.6,117.8,138.863,118.414,139.172,119.18Z" transform="translate(-114.363 -97.048)" fill="#161616"/>
        <path id="Path_4065" data-name="Path 4065" d="M308.458,113.451c0-.465.02-.932,0-1.4-.02-.34.044-.5.433-.476.549.034,1.1,0,1.649.014.139,0,.363-.105.367.2s-.216.248-.4.25h-.7c-.859,0-1,.2-.849,1.078.048.26.2.226.357.228h1.143c.127,0,.255,0,.272.18s-.1.251-.268.251c-.36,0-.72.02-1.078,0s-.45.093-.421.425c.025.294,0,.593,0,.888,0,.17.01.329-.251.34s-.268-.127-.267-.318C308.459,114.551,308.456,114,308.458,113.451Z" transform="translate(-256.076 -92.635)" fill="#0b0b0b"/>
        <path id="Path_4066" data-name="Path 4066" d="M74.223,10.067a.978.978,0,0,1-1.051,1.077A1,1,0,0,1,72.144,10.1a1.021,1.021,0,0,1,1.06-1.09A.988.988,0,0,1,74.223,10.067Z" transform="translate(-59.903 -7.489)" fill="#8c6c97"/>
        <path id="Path_4067" data-name="Path 4067" d="M352.3,119.832a1.41,1.41,0,0,1-.834-.265c-.129-.09-.226-.17-.114-.355.129-.217.231-.075.34-.01a1.333,1.333,0,0,0,.778.221c.212-.02.435-.068.481-.326s-.129-.375-.34-.448-.438-.153-.656-.231a.73.73,0,0,1-.533-.769.749.749,0,0,1,.618-.708,1.6,1.6,0,0,1,1.112.093c.122.049.231.117.17.28s-.144.226-.34.141a1.426,1.426,0,0,0-.61-.136c-.17,0-.4.037-.438.285s.131.34.313.408c.136.056.279.1.42.141.509.158.929.414.788,1.019S352.8,119.822,352.3,119.832Z" transform="translate(-291.65 -97.039)" fill="#161616"/>
        <path id="Path_4068" data-name="Path 4068" d="M372.5,116.884a.675.675,0,0,1-.73-.707c-.017-.423,0-.849-.009-1.272,0-.2.114-.481-.289-.481-.17,0-.1-.294-.088-.294.617.058.1-.887.717-.805.053,0,.141.075.138.1-.071.569.238.679.71.606a.167.167,0,0,1,.205.17c.015.17-.07.255-.216.224-.824-.17-.679.406-.679.866v.763a.314.314,0,0,0,.414.34c.188-.034.448-.233.474.141.02.29-.279.253-.464.316A.849.849,0,0,1,372.5,116.884Z" transform="translate(-308.304 -94.084)" fill="#111"/>
        <path id="Path_4069" data-name="Path 4069" d="M245.78,118.333V117.2c0-.2.144-.416.272-.292.34.34.623.061.932,0,.112-.022.27-.073.3.117.02.136.07.321-.148.35-.841.11-.861.727-.849,1.359v.759c0,.17.01.34-.251.323s-.245-.17-.243-.34v-1.138Z" transform="translate(-204.051 -97.028)" fill="#1e1e1e"/>
        <path id="Path_4070" data-name="Path 4070" d="M412.28,118.324v-1.141c0-.234.17-.459.307-.309.326.362.564.065.849,0,.131-.027.311-.119.352.117.029.17.036.318-.224.352-.608.08-.751.542-.778,1.058-.019.358,0,.718,0,1.078,0,.155,0,.289-.221.294s-.28-.117-.277-.314v-1.141Z" transform="translate(-342.273 -96.994)" fill="#1e1e1e"/>
        <path id="Path_4071" data-name="Path 4071" d="M49.3,113.514V115.1c0,.185-.012.328-.26.331s-.234-.17-.234-.34V111.92c0-.17-.022-.34.245-.331s.251.161.251.34C49.3,112.458,49.3,112.986,49.3,113.514Z" transform="translate(-40.531 -92.646)" fill="#1e1e1e"/>
        <path id="Path_4072" data-name="Path 4072" d="M60.1,113.516V115.1c0,.17.036.34-.234.34s-.263-.144-.262-.329V111.94c0-.17,0-.34.251-.34s.248.155.246.329C60.1,112.458,60.1,112.988,60.1,113.516Z" transform="translate(-49.497 -92.656)" fill="#131313"/>
        <path id="Path_4073" data-name="Path 4073" d="M283.122,131c.246.008.389.155.328.324-.109.3-.105.695-.481.827-.138.048-.187-.155-.126-.207C283.147,131.679,282.563,131.144,283.122,131Z" transform="translate(-234.798 -108.761)" fill="#1e1e1e"/>
        <path id="Path_4074" data-name="Path 4074" d="M425.565,130.83a.289.289,0,0,1-.321.3.294.294,0,0,1-.309-.318.3.3,0,0,1,.328-.306.3.3,0,0,1,.3.324Z" transform="translate(-352.778 -108.35)" fill="#1e1e1e"/>
      </g>
    </g>
  </g>
</svg>
