<svg xmlns="http://www.w3.org/2000/svg" width="88" height="68" viewBox="0 0 88 68">
  <g id="wix" transform="translate(-6654 -19649)">
    <rect id="Rectangle_17699" data-name="Rectangle 17699" width="88" height="68" rx="5" transform="translate(6654 19649)" fill="#fff" opacity="0"/>
    <g id="Layer_2" data-name="Layer 2" transform="translate(6673 19673)">
      <g id="Layer_1" data-name="Layer 1" transform="translate(0 0)">
        <path id="Path_4075" data-name="Path 4075" d="M24.589-.015h.337a.557.557,0,0,0,.482,0h.145c.136.088.055.2.029.3q-1.5,5.7-3.014,11.4-.954,3.61-1.905,7.222c-.03.115-.038.249-.215.215a3.4,3.4,0,0,0-.92.042h-.145c-.042-.09-.127-.048-.193-.053a3.146,3.146,0,0,1-2.78-2.088,13.136,13.136,0,0,1-.45-1.368c-.828-3.138-1.568-6.3-2.363-9.443a3.74,3.74,0,0,0-.35-1.093.434.434,0,0,0-.794,0,2.209,2.209,0,0,0-.252.671c-.708,2.844-1.41,5.691-2.127,8.534a20.471,20.471,0,0,1-.807,2.79A3.168,3.168,0,0,1,6.9,19.056a4.62,4.62,0,0,0-.718.111h-.1a1.491,1.491,0,0,0-.819,0h-.1a.457.457,0,0,1-.145-.281Q2.563,9.622.1.359C.083.3.093.212.009.178c-.031-.154.015-.209.184-.2.289.019.583.005.874.005.013.053.057.042.1.048a3.362,3.362,0,0,1,3.067,2.6q1.1,4.193,2.188,8.391c.162.622.326,1.243.5,1.917.034-.108.053-.16.067-.214q.876-3.545,1.75-7.092a13.05,13.05,0,0,1,.857-2.744,3.168,3.168,0,0,1,1.539-1.68A4.056,4.056,0,0,1,13.577.935a2.981,2.981,0,0,1,2.182,1.6,7.437,7.437,0,0,1,.634,1.527q1,3.759,1.98,7.526c.113.434.229.863.356,1.343a1.362,1.362,0,0,0,.048-.145c.876-3.354,1.764-6.706,2.622-10.065A3.329,3.329,0,0,1,23.9.145,3.944,3.944,0,0,0,24.589-.015Z" transform="translate(0 0.022)" fill="#010101"/>
        <path id="Path_4076" data-name="Path 4076" d="M663.917,19.312c-.071-.1-.182-.019-.267-.068a.646.646,0,0,1,.15-.263q3.032-4.526,6.073-9.046a.3.3,0,0,0,0-.395Q666.888,5,663.913.452l-.129-.2c.131-.1.3-.017.424-.122h.337a1.494,1.494,0,0,0,.819,0h.241c.033.088.11.042.166.048a3.424,3.424,0,0,1,2.47,1.272c.175.229.373.441.551.668,1.1,1.4,2.039,2.917,3.056,4.377.418.6.675.609,1.087.006q1.225-1.8,2.443-3.6a15.529,15.529,0,0,1,1.068-1.393A3.6,3.6,0,0,1,678.6.245a1.559,1.559,0,0,0,.546-.115h.241c.03.064.085.032.132.033l.7.007h.333c.1.011.206.019.308.035.062.01.158,0,.119.115-.048.064-.1.125-.142.193q-3.051,4.512-6.107,9.022a.324.324,0,0,0,0,.434q3.053,4.527,6.093,9.061c.042.064.112.117.107.2-.085.076-.211-.027-.283.079h-.1a1.824,1.824,0,0,0-.916,0h-.193a1.082,1.082,0,0,0-.477-.094,3.755,3.755,0,0,1-2.43-1.181c-.215-.249-.442-.488-.644-.747-1.081-1.386-2.01-2.879-3.011-4.321-.412-.593-.675-.6-1.088.006q-1.05,1.542-2.1,3.084a16.942,16.942,0,0,1-1.446,1.89,3.9,3.9,0,0,1-2.309,1.228,5.243,5.243,0,0,0-.86.137h-.145a1.678,1.678,0,0,0-.867,0Z" transform="translate(-631.665 -0.123)" fill="#010101"/>
        <path id="Path_4077" data-name="Path 4077" d="M995.19,396.976a1.824,1.824,0,0,1,.916,0Z" transform="translate(-947.227 -377.787)" fill="#757575"/>
        <path id="Path_4078" data-name="Path 4078" d="M406.11,397.054a.091.091,0,0,0,0,.042h-.916A3.4,3.4,0,0,1,406.11,397.054Z" transform="translate(-385.662 -377.906)" fill="#979797"/>
        <path id="Path_4079" data-name="Path 4079" d="M672.19,397a1.678,1.678,0,0,1,.867,0Z" transform="translate(-639.794 -377.815)" fill="#757575"/>
        <path id="Path_4080" data-name="Path 4080" d="M683.009.13a1.494,1.494,0,0,1-.819,0Z" transform="translate(-649.312 -0.123)" fill="#2c2c2c"/>
        <path id="Path_4081" data-name="Path 4081" d="M109.19,397a1.49,1.49,0,0,1,.819,0Z" transform="translate(-103.928 -377.807)" fill="#979797"/>
        <path id="Path_4082" data-name="Path 4082" d="M614.846.12l-.009.056L614.12.162a.34.34,0,0,0,0-.042Z" transform="translate(-584.522 -0.113)" fill="#fce5c9"/>
        <path id="Path_4083" data-name="Path 4083" d="M993.616.181l-.7-.008a.072.072,0,0,1,.013-.033h.675a.282.282,0,0,0,.008.041Z" transform="translate(-945.066 -0.132)" fill="#2c2c2c"/>
        <path id="Path_4084" data-name="Path 4084" d="M517.672.13a.557.557,0,0,1-.482,0Z" transform="translate(-492.264 -0.123)" fill="#2c2c2c"/>
        <path id="Path_4085" data-name="Path 4085" d="M1007.2.21a.288.288,0,0,1-.008-.04h.193a.3.3,0,0,0,0,.04Z" transform="translate(-958.648 -0.161)" fill="#757575"/>
        <path id="Path_4086" data-name="Path 4086" d="M1011.216.2a.32.32,0,0,1,0-.04h.145a.129.129,0,0,0,0,.041Z" transform="translate(-962.48 -0.151)" fill="#979797"/>
        <path id="Path_4087" data-name="Path 4087" d="M990.335.13a.072.072,0,0,0-.013.033c-.048,0-.1.03-.132-.033Z" transform="translate(-942.468 -0.123)" fill="#757575"/>
        <path id="Path_4088" data-name="Path 4088" d="M560.821,66.3v.113q-.008,6.373-.016,12.746a8.8,8.8,0,0,1-.084,1.152,2.057,2.057,0,0,1-1.735,1.783,5.166,5.166,0,0,1-1.437.1c-.128,0-.174-.048-.16-.172a1.3,1.3,0,0,0,0-.145c0-4.145.012-8.29-.01-12.434a1.6,1.6,0,0,1,.985-1.628c.225-.1.44-.231.666-.333A5.509,5.509,0,0,0,560.821,66.3Z" transform="translate(-530.516 -63.104)" fill="#030303"/>
        <path id="Path_4089" data-name="Path 4089" d="M560.8,1l.717.014a5.472,5.472,0,0,1-.14,1.48,2.021,2.021,0,0,1-.79,1.145,4.454,4.454,0,0,1-1.1.634,4.716,4.716,0,0,0-1.386.8,6.208,6.208,0,0,1,.455-2.88A2.21,2.21,0,0,1,560.3,1.059C560.464,1.028,560.633,1.019,560.8,1Z" transform="translate(-531.202 -0.951)" fill="#fabd72"/>
      </g>
    </g>
  </g>
</svg>
