<svg xmlns="http://www.w3.org/2000/svg" width="88" height="68" viewBox="0 0 88 68">
  <g id="woo" transform="translate(-6820 -19225)">
    <rect id="Rectangle_17706" data-name="Rectangle 17706" width="88" height="68" rx="5" transform="translate(6820 19225)" fill="#fff" opacity="0"/>
    <g id="Group_2736" data-name="Group 2736" transform="translate(6840.678 19246)">
      <path id="Path_3131" data-name="Path 3131" d="M198.269,430h37.443A4.248,4.248,0,0,1,240,434.211v14.037a4.248,4.248,0,0,1-4.288,4.211H222.285l1.843,4.433-8.106-4.433H198.288A4.248,4.248,0,0,1,194,448.248V434.211A4.232,4.232,0,0,1,198.269,430Z" transform="translate(-193.677 -430)" fill="#9b5c8f"/>
      <path id="Path_3132" data-name="Path 3132" d="M196.617,433.838a1.51,1.51,0,0,1,1.178-.569,1.359,1.359,0,0,1,1.627,1.322c.579,3.838,1.215,7.089,1.888,9.751l4.1-7.657a1.77,1.77,0,0,1,1.4-1.1c.823-.055,1.327.459,1.533,1.542a33.908,33.908,0,0,0,1.776,6.281c.487-4.665,1.309-8.025,2.469-10.1a1.438,1.438,0,0,1,1.234-.808,1.645,1.645,0,0,1,1.178.368,1.433,1.433,0,0,1,.58,1.046,1.583,1.583,0,0,1-.187.882,21.894,21.894,0,0,0-1.814,6.629,33.587,33.587,0,0,0-.524,7,2.141,2.141,0,0,1-.224,1.212,1.2,1.2,0,0,1-.991.661,1.892,1.892,0,0,1-1.477-.679,18.081,18.081,0,0,1-4.133-7.823q-1.822,3.525-2.692,5.289c-1.1,2.075-2.039,3.14-2.824,3.195-.505.037-.935-.386-1.309-1.267q-1.431-3.609-3.085-13.939a1.541,1.541,0,0,1,.3-1.23Zm40.185,2.883a4.3,4.3,0,0,0-2.992-2.13,4.954,4.954,0,0,0-1.01-.11,5.052,5.052,0,0,0-4.394,2.754,9.605,9.605,0,0,0-1.458,5.179,7.012,7.012,0,0,0,.9,3.636,4.3,4.3,0,0,0,2.992,2.131,4.854,4.854,0,0,0,5.4-2.645,9.712,9.712,0,0,0,1.459-5.2A6.693,6.693,0,0,0,236.8,436.721Zm-2.356,5.087a4.831,4.831,0,0,1-1.421,2.718,1.815,1.815,0,0,1-1.515.588c-.449-.092-.823-.478-1.1-1.194a4.577,4.577,0,0,1-.337-1.671,6.316,6.316,0,0,1,.131-1.341,5.878,5.878,0,0,1,.991-2.185c.617-.9,1.272-1.267,1.945-1.139.449.092.823.478,1.1,1.194a4.577,4.577,0,0,1,.337,1.671,6.358,6.358,0,0,1-.131,1.359Zm-9.35-5.087a4.339,4.339,0,0,0-2.992-2.13,4.945,4.945,0,0,0-1.009-.11,5.054,5.054,0,0,0-4.4,2.754,9.605,9.605,0,0,0-1.458,5.179,7.012,7.012,0,0,0,.9,3.636,4.308,4.308,0,0,0,2.992,2.131,4.854,4.854,0,0,0,5.4-2.645,9.7,9.7,0,0,0,1.459-5.2A6.847,6.847,0,0,0,225.1,436.721Zm-2.375,5.087a4.825,4.825,0,0,1-1.421,2.718,1.813,1.813,0,0,1-1.514.588c-.449-.092-.823-.478-1.1-1.194a4.6,4.6,0,0,1-.336-1.671,6.251,6.251,0,0,1,.131-1.341,5.878,5.878,0,0,1,.991-2.185c.617-.9,1.271-1.267,1.945-1.139.448.092.822.478,1.1,1.194a4.6,4.6,0,0,1,.336,1.671,5.291,5.291,0,0,1-.131,1.359Z" transform="translate(-193.677 -430)" fill="#fff"/>
    </g>
  </g>
</svg>
