<svg xmlns="http://www.w3.org/2000/svg" width="88" height="68" viewBox="0 0 88 68">
  <g id="zoho" transform="translate(-6828 -19649)">
    <rect id="Rectangle_17700" data-name="Rectangle 17700" width="88" height="68" rx="5" transform="translate(6828 19649)" fill="#fff" opacity="0"/>
    <g id="Layer_2" data-name="Layer 2" transform="translate(6836 19671)">
      <g id="Layer_1" data-name="Layer 1" transform="translate(0)">
        <path id="Path_4090" data-name="Path 4090" d="M131.144,0a.167.167,0,0,0,.01.127,3.593,3.593,0,0,0,.064.7c.39,1.353.8,2.7,1.2,4.048-1.713,3.911-3.412,7.83-5.161,11.726-.206.461-.239,1.055-.751,1.358a3.586,3.586,0,0,0,.033-1.589c-.229-1.423-.424-2.853-.64-4.279q1.164-2.714,2.325-5.43C129.154,4.443,130.073,2.221,131,0Z" transform="translate(-108.104)" fill="#68be6d"/>
        <path id="Path_4091" data-name="Path 4091" d="M498.015,37.95a.083.083,0,0,1,.109-.021V55.175l-2.194,2.047c-.024-.327-.066-.653-.068-.98q-.017-7.824-.023-15.65Z" transform="translate(-425.75 -32.558)" fill="#db7c28"/>
        <path id="Path_4092" data-name="Path 4092" d="M18.043,68.56c.016.444-.362.307-.565.339-3.154.512-6.31,1.005-9.471,1.5-1.484.235-2.968.461-4.454.707-.424.071-.63.045-.707-.492-.507-3.311-1.115-6.614-1.6-9.937a39.578,39.578,0,0,1-.63-4.07q0-.192-.014-.384v-.014a2.952,2.952,0,0,0,.628.042c1.272-.181,2.533-.379,3.8-.575L15.782,54c.049.324.106.646.15.97.283,2.084.621,4.159.909,6.241.228,1.633.486,3.275.79,4.9A13.955,13.955,0,0,0,18.043,68.56ZM5.307,67.276c.216,2.064.729,2.386,2.156,2.156,1.576-.254,3.168-.424,4.735-.722a3.85,3.85,0,0,0,1.876-.7,1.028,1.028,0,0,0-.112-1.708,2.968,2.968,0,0,0-2.2-.212c-1.093.324-2.231.349-3.311.68-.474.141-.424-.163-.3-.4A16.565,16.565,0,0,1,9.3,64.407a30.606,30.606,0,0,0,2.544-3.689,4.794,4.794,0,0,0,.565-4.013,1.127,1.127,0,0,0-1.165-.892,9.977,9.977,0,0,0-2.3.334c-1.306.312-2.7.113-3.958.741-.65.327-.933.792-.76,1.4a1.162,1.162,0,0,0,1.4.919c1.1-.283,2.246-.211,3.343-.515.247-.069.663-.239.834.09a.945.945,0,0,1-.174.913c-1,1.555-2.262,2.916-3.229,4.5A9.187,9.187,0,0,0,5.307,67.276Z" transform="translate(-0.516 -46.367)" fill="#ce2335"/>
        <path id="Path_4093" data-name="Path 4093" d="M129.163,47.55c.512-.3.544-.9.751-1.358,1.75-3.892,3.449-7.81,5.165-11.721.243.088.493.158.727.264,2.666,1.207,5.338,2.431,8.016,3.627,1.626.724,3.2,1.555,4.894,2.129-.2,1-.833,1.829-1.084,2.8a19.536,19.536,0,0,0-1.626,3.5q-1.617,3.582-3.141,7.209c-.226.539-.444.544-.922.325Q135.482,51.381,129,48.474ZM145.014,44a6.068,6.068,0,0,0-1.58-4.338,5.752,5.752,0,0,0-4.617-1.8c-4.136.141-7.54,5.391-5.8,9.471a5.453,5.453,0,0,0,2.017,2.642,5.935,5.935,0,0,0,5.495.756A7.263,7.263,0,0,0,145.014,44Z" transform="translate(-110.766 -29.597)" fill="#1c994d"/>
        <path id="Path_4094" data-name="Path 4094" d="M15.747,21.219,4.986,22.9c-1.265.2-2.526.393-3.8.574a2.952,2.952,0,0,1-.628-.042c.305-1.613.621-3.226.91-4.841.072-.41.382-.368.636-.409q3.715-.613,7.438-1.2,3.3-.53,6.61-1.046c.2-.031.5-.3.594.141Z" transform="translate(-0.482 -13.586)" fill="#ec473f"/>
        <path id="Path_4095" data-name="Path 4095" d="M260.8,60.167c.252-.978.883-1.809,1.084-2.807l-.328-1.272c2.262-.464,4.567-.613,6.843-.978,2.324-.372,4.665-.666,6.99-.989a5.26,5.26,0,0,1,.14,1.538c-.669.628-1.083,1.456-1.7,2.129-.123.141-.206.37-.4.341-.247-.037-.2-.331-.283-.509-.107-.223.141-.592-.283-.691a4.9,4.9,0,0,0-.257-.646,1.169,1.169,0,0,0-1.568-.495,1.348,1.348,0,0,0-.759,1.568c-.209.188-.141.44-.123.662.037.416.141.827.171,1.243.065.769.663,1.66-.462,2.18a18.265,18.265,0,0,0-2.262.36c-1.148.127-1.1.148-1.3-.971a15.434,15.434,0,0,0-.647-3.6.652.652,0,0,0-.455-.44c-1.175-.341-1.979.358-1.807,1.634.237,1.72.522,3.434.76,5.152s.51,3.465.625,5.213c0,.229-.2.3-.328.424a4.378,4.378,0,0,0-1.375,2l-.4.058c-.221-.209-.016-.652-.424-.76Z" transform="translate(-223.935 -46.47)" fill="#1a7dbb"/>
        <path id="Path_4096" data-name="Path 4096" d="M400.242,56.85q.01,7.824.023,15.65c0,.327.044.653.068.98h-.01l-.115-.014.061.1c-.206.242-.485.131-.728.131q-7.137,0-14.277.017c-.575,0-.8-.126-.746-.729s.033-1.223.042-1.838a1.49,1.49,0,0,0,1.122-.455,5.054,5.054,0,0,1,1.479-1.121c.3.03.392.317.565.491a5.848,5.848,0,0,0,7.312,1.175,6.016,6.016,0,0,0,3.217-5.579,6.644,6.644,0,0,0-1.948-4.977,11.524,11.524,0,0,1,1.93-1.945c.438-.38.783-.989,1.341-1.1s.575-.356.548-.762A1.032,1.032,0,0,0,400.242,56.85Z" transform="translate(-330.156 -48.814)" fill="#efa521"/>
        <path id="Path_4097" data-name="Path 4097" d="M277,80.558a4.378,4.378,0,0,1,1.375-2c.131-.127.331-.2.328-.424.257.1.236.387.362.577a1.2,1.2,0,0,0,1.34.553,1.117,1.117,0,0,0,.944-1.006,3.041,3.041,0,0,0-.03-.84c-.155-1.093-.317-2.185-.5-3.274-.072-.424-.013-.625.489-.679,1.121-.117,2.236-.3,3.347-.491.369-.064.51.016.543.394.075.886.3,1.751.317,2.653a4.482,4.482,0,0,0,.41,1.537,1.123,1.123,0,0,0,1.323.7,1.16,1.16,0,0,0,1.029-1.091,3.355,3.355,0,0,0-.057-.838q-.721-5.024-1.446-10.046c.424.1.175.466.283.691.085.178.034.471.283.509.192.028.283-.2.4-.341.612-.673,1.026-1.5,1.7-2.13a11.019,11.019,0,0,1,.293,1.223c.12,2.144.686,4.227.91,6.361.208,1.971.537,3.927.813,5.89-1.662.4-3.369.532-5.053.787-2.99.455-5.985.862-8.973,1.286A3.03,3.03,0,0,1,277,80.558Z" transform="translate(-237.845 -55.82)" fill="#126faa"/>
        <path id="Path_4098" data-name="Path 4098" d="M386.967,69.737a5.011,5.011,0,0,0-1.479,1.121,1.483,1.483,0,0,1-1.122.455l-.041-1.392a4.719,4.719,0,0,0,.305-2.721c-.158-.878-.237-1.77-.351-2.656q.027-3.052.055-6.1c0-.466.028-.933.042-1.4h15.549c.031.4,0,.649-.543.76s-.9.718-1.341,1.1a11.578,11.578,0,0,0-1.93,1.945,6.544,6.544,0,0,0-2.56-1.467A6,6,0,0,0,387.523,61a6.78,6.78,0,0,0-1.009,7.8A2.978,2.978,0,0,1,386.967,69.737Z" transform="translate(-329.96 -48.977)" fill="#f2ad1f"/>
        <path id="Path_4099" data-name="Path 4099" d="M108,22.694l1-5.154c.355,1.405.466,2.85.7,4.275.283,1.774.55,3.552.824,5.329.212,1.426.413,2.855.64,4.279a3.586,3.586,0,0,1-.033,1.589l-.163.923-.707,3.319a13.658,13.658,0,0,1-.416-2.448c-.3-1.627-.565-3.268-.79-4.9-.283-2.082-.633-4.156-.909-6.241C108.107,23.347,108.051,23.023,108,22.694Z" transform="translate(-92.734 -15.061)" fill="#761217"/>
        <path id="Path_4100" data-name="Path 4100" d="M366.865,41.479c.114.886.194,1.778.351,2.656a4.719,4.719,0,0,1-.305,2.721c-.414.5-.39,1.2-.76,1.72-.283-1.963-.606-3.92-.813-5.89-.225-2.134-.79-4.215-.91-6.361a10.55,10.55,0,0,0-.293-1.223A5.258,5.258,0,0,0,364,33.558c.141-.392.266-.794.44-1.173a8.7,8.7,0,0,1,.946-2.205l1.241,9.629C366.7,40.368,366.786,40.923,366.865,41.479Z" transform="translate(-312.547 -25.914)" fill="#1a98d5"/>
        <path id="Path_4101" data-name="Path 4101" d="M271.21,170c.4.107.2.551.424.76C270.994,170.782,271.341,170.26,271.21,170Z" transform="translate(-232.873 -145.969)" fill="#126faa"/>
        <path id="Path_4102" data-name="Path 4102" d="M.089,69.74l.014.384a.249.249,0,0,1-.014-.384Z" transform="translate(-0.005 -59.882)" fill="#ec473f"/>
        <path id="Path_4103" data-name="Path 4103" d="M495.631,174.5l-.061-.1.115.014C495.7,174.462,495.679,174.485,495.631,174.5Z" transform="translate(-425.519 -149.747)" fill="#db7c28"/>
        <path id="Path_4104" data-name="Path 4104" d="M177.582,10.385l.328,1.272c-1.691-.565-3.27-1.4-4.9-2.12C170.329,8.344,167.669,7.12,165,5.913c-.235-.106-.485-.177-.727-.264-.4-1.35-.811-2.7-1.2-4.05A3.593,3.593,0,0,1,163,.9l6.734,3.038c2.159.98,4.3,1.99,6.473,2.942a1.405,1.405,0,0,1,.777.98Z" transform="translate(-139.96 -0.773)" fill="#93ce9f"/>
        <path id="Path_4105" data-name="Path 4105" d="M262.588,33.814,262,31.288c.126-.989.848-1.064,1.638-1.168,2.879-.382,5.755-.807,8.631-1.213q2.544-.359,5.082-.707c.225-.031.435-.041.459.269a8.7,8.7,0,0,0-.946,2.205c-.172.379-.294.782-.44,1.173-2.331.328-4.665.621-6.99.989C267.154,33.2,264.848,33.354,262.588,33.814Z" transform="translate(-224.965 -24.202)" fill="#90c7ea"/>
        <path id="Path_4106" data-name="Path 4106" d="M400.549,40.617H385c.667-.912,1.5-1.679,2.236-2.525a.583.583,0,0,1,.509-.172l15.1.028-2.18,2.643A1.071,1.071,0,0,1,400.549,40.617Z" transform="translate(-330.578 -32.56)" fill="#fcd605"/>
        <path id="Path_4107" data-name="Path 4107" d="M27.064,78.284a9.05,9.05,0,0,1,1.1-3.077c.965-1.589,2.228-2.95,3.229-4.5a.932.932,0,0,0,.174-.913c-.17-.329-.587-.158-.834-.09-1.1.3-2.238.226-3.342.513a1.161,1.161,0,0,1-1.4-.919c-.172-.608.11-1.073.76-1.4,1.25-.628,2.645-.424,3.958-.741a9.977,9.977,0,0,1,2.3-.334,1.127,1.127,0,0,1,1.165.892,4.759,4.759,0,0,1-.565,4.013,32.139,32.139,0,0,1-2.544,3.689,16.566,16.566,0,0,0-1.156,1.969c-.124.236-.171.544.3.4,1.08-.331,2.218-.356,3.311-.68a2.969,2.969,0,0,1,2.2.212,1.028,1.028,0,0,1,.112,1.708,3.837,3.837,0,0,1-1.876.7c-1.568.3-3.159.468-4.735.722C27.794,80.67,27.281,80.346,27.064,78.284Z" transform="translate(-22.273 -57.375)" fill="#fdfcfc"/>
        <path id="Path_4108" data-name="Path 4108" d="M166.593,64.567a7.253,7.253,0,0,1-4.484,6.727,5.931,5.931,0,0,1-5.495-.756A5.481,5.481,0,0,1,154.6,67.9c-1.742-4.075,1.661-9.33,5.8-9.471a5.752,5.752,0,0,1,4.617,1.8A6.069,6.069,0,0,1,166.593,64.567Zm-5.9-3.661a2.256,2.256,0,0,0-2.021.809,6.49,6.49,0,0,0-1.527,2.453c-.5,1.586-.679,3.032.848,4.293a3.013,3.013,0,0,0,3.9.1,6.951,6.951,0,0,0,2.068-3.869A3.205,3.205,0,0,0,160.7,60.906Z" transform="translate(-132.344 -50.163)" fill="#fdfcfc"/>
        <path id="Path_4109" data-name="Path 4109" d="M288.519,66.326q.721,5.022,1.439,10.045a3.355,3.355,0,0,1,.057.838,1.16,1.16,0,0,1-1.029,1.091,1.117,1.117,0,0,1-1.323-.7,4.514,4.514,0,0,1-.41-1.537c-.018-.9-.242-1.767-.317-2.653-.033-.379-.172-.458-.543-.394-1.111.191-2.226.372-3.347.491-.5.052-.565.253-.489.679.185,1.088.345,2.181.5,3.274a3.041,3.041,0,0,1,.03.84,1.117,1.117,0,0,1-.944,1.006,1.2,1.2,0,0,1-1.34-.553c-.126-.189-.1-.472-.362-.577-.115-1.749-.383-3.48-.625-5.213s-.524-3.434-.76-5.152c-.175-1.272.632-1.979,1.807-1.634a.652.652,0,0,1,.465.448,15.476,15.476,0,0,1,.647,3.6c.192,1.121.148,1.1,1.3.971a18.111,18.111,0,0,1,2.262-.36c.356-.106,1.018.216.939-.526-.126-1.192-.346-2.373-.526-3.558a1.354,1.354,0,0,1,.755-1.568,1.168,1.168,0,0,1,1.568.495A4.889,4.889,0,0,1,288.519,66.326Z" transform="translate(-239.589 -55.865)" fill="#fdfcfc"/>
        <path id="Path_4110" data-name="Path 4110" d="M325.393,77c.18,1.186.4,2.366.526,3.558.078.742-.582.424-.939.526,1.131-.519.526-1.414.462-2.18-.035-.416-.141-.827-.171-1.243C325.251,77.442,325.184,77.192,325.393,77Z" transform="translate(-279.043 -66.116)" fill="#126faa"/>
        <path id="Path_4111" data-name="Path 4111" d="M395.727,82.617a3.014,3.014,0,0,0-.454-.946,6.779,6.779,0,0,1,1.009-7.8,6,6,0,0,1,6.03-1.621,6.51,6.51,0,0,1,2.56,1.467,6.644,6.644,0,0,1,1.948,4.977,6.018,6.018,0,0,1-3.217,5.579,5.851,5.851,0,0,1-7.308-1.169C396.119,82.934,396.031,82.647,395.727,82.617Zm2.1-1.959a2.745,2.745,0,0,0,2.663,1.963,3.251,3.251,0,0,0,3.171-1.949c.68-1.6.459-4.088-.472-4.99-.061-.424-.409-.616-.707-.821a3.482,3.482,0,0,0-3.889.2C397.141,76.2,396.915,79.42,397.824,80.658Z" transform="translate(-338.72 -61.858)" fill="#fdfcfc"/>
        <path id="Path_4112" data-name="Path 4112" d="M176.832,75.846a3.209,3.209,0,0,1,3.263,3.783,6.96,6.96,0,0,1-2.072,3.863,3.011,3.011,0,0,1-3.9-.1c-1.524-1.261-1.343-2.707-.848-4.293a6.545,6.545,0,0,1,1.527-2.453A2.263,2.263,0,0,1,176.832,75.846Z" transform="translate(-148.48 -65.103)" fill="#1c994d"/>
        <path id="Path_4113" data-name="Path 4113" d="M423.509,97.8c.932.9,1.152,3.385.472,4.99a3.251,3.251,0,0,1-3.158,1.949,2.745,2.745,0,0,1-2.663-1.963c.625-.078.926-.618,1.34-.977,1.272-1.1,2.51-2.246,3.766-3.371A.759.759,0,0,0,423.509,97.8Z" transform="translate(-359.051 -83.975)" fill="#efa521"/>
        <path id="Path_4114" data-name="Path 4114" d="M420.149,89.765a.759.759,0,0,1-.256.628c-1.254,1.131-2.492,2.269-3.766,3.371-.414.359-.715.9-1.34.977-.909-1.238-.683-4.454.765-5.6a3.483,3.483,0,0,1,3.89-.2C419.747,89.148,420.1,89.34,420.149,89.765Z" transform="translate(-355.691 -75.94)" fill="#f2ad1f"/>
      </g>
    </g>
  </g>
</svg>
